<svg width="20" height="20" viewBox="0 0 20 20" fill="none" xmlns="http://www.w3.org/2000/svg">
<g clip-path="url(#clip0_1573_21948)">
<path d="M19.082 9.84379H17.1289V8.96875C17.1289 7.89527 16.3798 6.99176 15.3711 6.74117V0.585938C15.3711 0.262344 15.1088 0 14.7852 0H0.917969C0.594375 0 0.332031 0.262344 0.332031 0.585938V16.6406C0.332031 16.9642 0.594375 17.2266 0.917969 17.2266H9.94141V17.7067C9.94141 18.9713 10.9718 20 12.2383 20H17.3711C18.6376 20 19.668 18.9713 19.668 17.7067V10.4297C19.668 10.1061 19.4056 9.84379 19.082 9.84379ZM15.957 8.96875V9.84379H13.6523V8.96875C13.6523 8.34844 14.1693 7.84375 14.8047 7.84375C15.4401 7.84375 15.957 8.3484 15.957 8.96875ZM1.50391 16.0547V1.17188H14.1992V6.75141C13.2104 7.01539 12.4805 7.90918 12.4805 8.96871V9.84375H10.5273C10.2037 9.84375 9.94141 10.1061 9.94141 10.4297V16.0547H1.50391ZM18.4961 17.7067C18.4961 18.3251 17.9914 18.8281 17.3711 18.8281H12.2383C11.618 18.8281 11.1133 18.3251 11.1133 17.7067V11.0157H12.4805V12.5586C12.4805 12.8822 12.7428 13.1445 13.0664 13.1445C13.39 13.1445 13.6523 12.8822 13.6523 12.5586V11.0157H15.957V12.5586C15.957 12.8822 16.2194 13.1445 16.543 13.1445C16.8666 13.1445 17.1289 12.8822 17.1289 12.5586V11.0157H18.4961V17.7067Z" fill="#333333"/>
<path d="M4.42894 2.53043L3.76301 3.24578L3.71844 3.19035C3.5157 2.93813 3.14687 2.89793 2.89465 3.1007C2.64242 3.3034 2.60226 3.67223 2.80496 3.92445L3.27371 4.5077C3.38031 4.64027 3.53918 4.72004 3.70914 4.72621C3.71629 4.72645 3.72336 4.7266 3.73047 4.7266C3.89277 4.7266 4.04824 4.65918 4.1593 4.53992L5.2866 3.32898C5.50715 3.09215 5.49387 2.72137 5.25699 2.50086C5.02027 2.28035 4.64945 2.29359 4.42894 2.53043Z" fill="#333333"/>
<path d="M7.20703 4.12109H12.4414C12.765 4.12109 13.0273 3.85875 13.0273 3.53516C13.0273 3.21156 12.765 2.94922 12.4414 2.94922H7.20703C6.88344 2.94922 6.62109 3.21156 6.62109 3.53516C6.62109 3.85875 6.88344 4.12109 7.20703 4.12109Z" fill="#333333"/>
<path d="M4.42894 6.08512L3.76301 6.80047L3.71844 6.74504C3.5157 6.49281 3.14687 6.45266 2.89465 6.65539C2.64242 6.85813 2.60226 7.22692 2.80496 7.47915L3.27371 8.06239C3.38031 8.19497 3.53918 8.27473 3.70914 8.28091C3.71629 8.28114 3.72336 8.2813 3.73047 8.2813C3.89277 8.2813 4.04824 8.21387 4.1593 8.09462L5.2866 6.88367C5.50715 6.64684 5.49387 6.27606 5.25699 6.05555C5.02027 5.83504 4.64945 5.84828 4.42894 6.08512Z" fill="#333333"/>
<path d="M7.20703 7.67578H10.4882C10.8118 7.67578 11.0741 7.41344 11.0741 7.08984C11.0741 6.76625 10.8118 6.50391 10.4882 6.50391H7.20703C6.88344 6.50391 6.62109 6.76625 6.62109 7.08984C6.62109 7.41344 6.88344 7.67578 7.20703 7.67578Z" fill="#333333"/>
<path d="M4.42894 9.63981L3.76301 10.3552L3.71844 10.2997C3.5157 10.0475 3.14687 10.0073 2.89465 10.2101C2.64242 10.4128 2.60226 10.7816 2.80496 11.0338L3.27371 11.6171C3.38031 11.7497 3.53918 11.8294 3.70914 11.8356C3.71629 11.8358 3.72336 11.836 3.73047 11.836C3.89277 11.836 4.04824 11.7686 4.1593 11.6493L5.2866 10.4384C5.50715 10.2015 5.49387 9.83074 5.25699 9.61024C5.02027 9.38973 4.64945 9.40297 4.42894 9.63981Z" fill="#333333"/>
<path d="M8.18348 10.0586H7.20703C6.88344 10.0586 6.62109 10.3209 6.62109 10.6445C6.62109 10.9681 6.88344 11.2305 7.20703 11.2305H8.18348C8.50707 11.2305 8.76941 10.9681 8.76941 10.6445C8.76941 10.3209 8.50707 10.0586 8.18348 10.0586Z" fill="#333333"/>
</g>
<defs>
<clipPath id="clip0_1573_21948">
<rect width="20" height="20" fill="white"/>
</clipPath>
</defs>
</svg>
