<svg width="20" height="20" viewBox="0 0 20 20" fill="none" xmlns="http://www.w3.org/2000/svg">
<path d="M17.8516 3.125H17.2656V1.75781C17.2656 0.788555 16.4771 0 15.5078 0C14.5386 0 13.75 0.788555 13.75 1.75781V2.2377C13.75 2.84488 13.3423 3.38547 12.7584 3.55227L12.1875 3.71539V3.71094C12.1875 3.38734 11.9252 3.125 11.6016 3.125H9.25781C8.93422 3.125 8.67188 3.38734 8.67188 3.71094V6.32812H1.75781C0.788555 6.32812 0 7.11668 0 8.08594V19.4141C0 19.6302 0.118945 19.8287 0.309453 19.9307C0.396094 19.9771 0.491094 20 0.585898 20C0.69957 20 0.81293 19.967 0.910937 19.9016L3.10711 18.4375H14.2578C15.2271 18.4375 16.0156 17.6489 16.0156 16.6797V10.5469H17.8516C19.0362 10.5469 20 9.58309 20 8.39844V5.27344C20 4.08879 19.0362 3.125 17.8516 3.125ZM9.84375 4.29688H11.0156V9.375H9.84375V4.29688ZM14.8438 16.6797C14.8438 17.0028 14.5809 17.2656 14.2578 17.2656H2.92969C2.81402 17.2656 2.70094 17.2999 2.60469 17.3641L1.17188 18.3193V8.08594C1.17188 7.76285 1.43473 7.5 1.75781 7.5H8.67188V9.96094C8.67188 10.2845 8.93422 10.5469 9.25781 10.5469H11.6016C11.9026 10.5469 12.1503 10.3198 12.1834 10.0276C12.7054 10.3605 13.3192 10.5469 13.9575 10.5469H14.8438V16.6797ZM18.8281 8.39844C18.8281 8.93691 18.39 9.375 17.8516 9.375H13.9575C13.245 9.375 12.5797 9.01559 12.1875 8.42789V4.93418L13.0803 4.6791C14.1646 4.3693 14.9219 3.36535 14.9219 2.2377V1.75781C14.9219 1.43473 15.1847 1.17188 15.5078 1.17188C15.8309 1.17188 16.0938 1.43473 16.0938 1.75781V3.71094C16.0938 4.03453 16.3561 4.29688 16.6797 4.29688H17.8516C18.39 4.29688 18.8281 4.73496 18.8281 5.27344V8.39844Z" fill="#333333"/>
<path d="M2.92969 11.0156H6.83594C7.15953 11.0156 7.42188 10.7533 7.42188 10.4297C7.42188 10.1061 7.15953 9.84375 6.83594 9.84375H2.92969C2.60609 9.84375 2.34375 10.1061 2.34375 10.4297C2.34375 10.7533 2.60609 11.0156 2.92969 11.0156Z" fill="#333333"/>
<path d="M13.0859 12.1875H2.92969C2.60609 12.1875 2.34375 12.4498 2.34375 12.7734C2.34375 13.097 2.60609 13.3594 2.92969 13.3594H13.0859C13.4095 13.3594 13.6719 13.097 13.6719 12.7734C13.6719 12.4498 13.4095 12.1875 13.0859 12.1875Z" fill="#333333"/>
<path d="M13.0859 14.5312H2.92969C2.60609 14.5312 2.34375 14.7936 2.34375 15.1172C2.34375 15.4408 2.60609 15.7031 2.92969 15.7031H13.0859C13.4095 15.7031 13.6719 15.4408 13.6719 15.1172C13.6719 14.7936 13.4095 14.5312 13.0859 14.5312Z" fill="#333333"/>
</svg>
