<svg width="40" height="40" viewBox="0 0 40 40" fill="none" xmlns="http://www.w3.org/2000/svg">
<rect width="40" height="40" rx="12" fill="#BBEECA"/>
<mask id="path-2-inside-1_1601_21407" fill="white">
<path d="M25.8333 12H14.1667C13.062 12.0016 12.003 12.5289 11.2218 13.4662C10.4407 14.4036 10.0013 15.6744 10 17H30C29.9987 15.6744 29.5593 14.4036 28.7782 13.4662C27.997 12.5289 26.938 12.0016 25.8333 12Z"/>
</mask>
<path d="M25.8333 12H14.1667C13.062 12.0016 12.003 12.5289 11.2218 13.4662C10.4407 14.4036 10.0013 15.6744 10 17H30C29.9987 15.6744 29.5593 14.4036 28.7782 13.4662C27.997 12.5289 26.938 12.0016 25.8333 12Z" fill="#32C05B"/>
<path d="M14.1667 12V-9.33333H14.1513L14.136 -9.33331L14.1667 12ZM10 17L-11.3333 16.9787L-11.3546 38.3333H10V17ZM30 17V38.3333H51.3546L51.3333 16.9787L30 17ZM25.8333 -9.33333H14.1667V33.3333H25.8333V-9.33333ZM14.136 -9.33331C5.99993 -9.32162 -0.817667 -5.41009 -5.16687 -0.191048L27.6106 27.1235C24.8236 30.4679 20.1241 33.3248 14.1973 33.3333L14.136 -9.33331ZM-5.16687 -0.191048C-9.42214 4.91528 -11.3275 11.132 -11.3333 16.9787L31.3333 17.0213C31.3301 20.2168 30.3036 23.8918 27.6106 27.1235L-5.16687 -0.191048ZM10 38.3333H30V-4.33333H10V38.3333ZM51.3333 16.9787C51.3275 11.132 49.4221 4.91529 45.1669 -0.191048L12.3894 27.1235C9.69638 23.8918 8.66987 20.2168 8.66668 17.0213L51.3333 16.9787ZM45.1669 -0.191048C40.8177 -5.4101 34.0001 -9.32162 25.864 -9.33331L25.8027 33.3333C19.8759 33.3248 15.1764 30.4679 12.3894 27.1235L45.1669 -0.191048Z" fill="#32C05B" mask="url(#path-2-inside-1_1601_21407)"/>
<path d="M10 23.4545C10.0013 24.6596 10.4407 25.8149 11.2218 26.6671C12.003 27.5192 13.062 27.9986 14.1667 28H25.8333C26.938 27.9986 27.997 27.5192 28.7782 26.6671C29.5593 25.8149 29.9987 24.6596 30 23.4545V18H10V23.4545ZM15.8333 23C15.8333 23.2697 15.76 23.5333 15.6227 23.7576C15.4853 23.9818 15.2901 24.1566 15.0617 24.2598C14.8333 24.363 14.5819 24.3901 14.3395 24.3374C14.097 24.2848 13.8743 24.1549 13.6994 23.9642C13.5246 23.7735 13.4056 23.5306 13.3574 23.266C13.3091 23.0015 13.3339 22.7273 13.4285 22.4782C13.5231 22.229 13.6833 22.016 13.8889 21.8662C14.0944 21.7163 14.3361 21.6364 14.5833 21.6364C14.9149 21.6364 15.2328 21.78 15.4672 22.0358C15.7016 22.2915 15.8333 22.6383 15.8333 23Z" fill="#32C05B"/>
</svg>
