<svg width="40" height="40" viewBox="0 0 40 40" fill="none" xmlns="http://www.w3.org/2000/svg">
<rect width="40" height="40" rx="12" fill="#FEC8C8"/>
<mask id="path-2-inside-1_1601_21408" fill="white">
<path d="M21.6 15.8333V10.3833C22.34 10.6744 23.0122 11.1261 23.572 11.7083L26.3592 14.6133C26.9188 15.1957 27.3527 15.8957 27.632 16.6667H22.4C22.1878 16.6667 21.9843 16.5789 21.8343 16.4226C21.6843 16.2663 21.6 16.0543 21.6 15.8333ZM28 18.7375V25.8333C27.9987 26.938 27.5769 27.997 26.827 28.7782C26.0772 29.5593 25.0605 29.9987 24 30H16C14.9395 29.9987 13.9228 29.5593 13.173 28.7782C12.4231 27.997 12.0013 26.938 12 25.8333V14.1667C12.0013 13.062 12.4231 12.003 13.173 11.2218C13.9228 10.4407 14.9395 10.0013 16 10H19.612C19.7424 10 19.8712 10.0108 20 10.02V15.8333C20 16.4964 20.2529 17.1323 20.7029 17.6011C21.153 18.0699 21.7635 18.3333 22.4 18.3333H27.9808C27.9896 18.4675 28 18.6017 28 18.7375ZM21.6 25.8333C21.6 25.6123 21.5157 25.4004 21.3657 25.2441C21.2157 25.0878 21.0122 25 20.8 25H16.8C16.5878 25 16.3843 25.0878 16.2343 25.2441C16.0843 25.4004 16 25.6123 16 25.8333C16 26.0543 16.0843 26.2663 16.2343 26.4226C16.3843 26.5789 16.5878 26.6667 16.8 26.6667H20.8C21.0122 26.6667 21.2157 26.5789 21.3657 26.4226C21.5157 26.2663 21.6 26.0543 21.6 25.8333ZM24 22.5C24 22.279 23.9157 22.067 23.7657 21.9107C23.6157 21.7545 23.4122 21.6667 23.2 21.6667H16.8C16.5878 21.6667 16.3843 21.7545 16.2343 21.9107C16.0843 22.067 16 22.279 16 22.5C16 22.721 16.0843 22.933 16.2343 23.0893C16.3843 23.2455 16.5878 23.3333 16.8 23.3333H23.2C23.4122 23.3333 23.6157 23.2455 23.7657 23.0893C23.9157 22.933 24 22.721 24 22.5Z"/>
</mask>
<path d="M21.6 15.8333V10.3833C22.34 10.6744 23.0122 11.1261 23.572 11.7083L26.3592 14.6133C26.9188 15.1957 27.3527 15.8957 27.632 16.6667H22.4C22.1878 16.6667 21.9843 16.5789 21.8343 16.4226C21.6843 16.2663 21.6 16.0543 21.6 15.8333ZM28 18.7375V25.8333C27.9987 26.938 27.5769 27.997 26.827 28.7782C26.0772 29.5593 25.0605 29.9987 24 30H16C14.9395 29.9987 13.9228 29.5593 13.173 28.7782C12.4231 27.997 12.0013 26.938 12 25.8333V14.1667C12.0013 13.062 12.4231 12.003 13.173 11.2218C13.9228 10.4407 14.9395 10.0013 16 10H19.612C19.7424 10 19.8712 10.0108 20 10.02V15.8333C20 16.4964 20.2529 17.1323 20.7029 17.6011C21.153 18.0699 21.7635 18.3333 22.4 18.3333H27.9808C27.9896 18.4675 28 18.6017 28 18.7375ZM21.6 25.8333C21.6 25.6123 21.5157 25.4004 21.3657 25.2441C21.2157 25.0878 21.0122 25 20.8 25H16.8C16.5878 25 16.3843 25.0878 16.2343 25.2441C16.0843 25.4004 16 25.6123 16 25.8333C16 26.0543 16.0843 26.2663 16.2343 26.4226C16.3843 26.5789 16.5878 26.6667 16.8 26.6667H20.8C21.0122 26.6667 21.2157 26.5789 21.3657 26.4226C21.5157 26.2663 21.6 26.0543 21.6 25.8333ZM24 22.5C24 22.279 23.9157 22.067 23.7657 21.9107C23.6157 21.7545 23.4122 21.6667 23.2 21.6667H16.8C16.5878 21.6667 16.3843 21.7545 16.2343 21.9107C16.0843 22.067 16 22.279 16 22.5C16 22.721 16.0843 22.933 16.2343 23.0893C16.3843 23.2455 16.5878 23.3333 16.8 23.3333H23.2C23.4122 23.3333 23.6157 23.2455 23.7657 23.0893C23.9157 22.933 24 22.721 24 22.5Z" fill="#F65B5B"/>
<path d="M21.6 10.3833L29.4094 -9.46922L0.266666 -20.9332V10.3833H21.6ZM23.572 11.7083L38.9658 -3.06127L38.9583 -3.0691L38.9508 -3.07693L23.572 11.7083ZM26.3592 14.6133L10.9654 29.3829L10.9707 29.3884L10.9759 29.3939L26.3592 14.6133ZM27.632 16.6667V38H58.0512L47.6896 9.39995L27.632 16.6667ZM28 25.8333L49.3333 25.8579L49.3333 25.8456V25.8333H28ZM24 30V51.3333H24.0133L24.0266 51.3333L24 30ZM16 30L15.9734 51.3333L15.9867 51.3333H16V30ZM12 25.8333H-9.33333V25.8456L-9.33332 25.8579L12 25.8333ZM12 14.1667L-9.33332 14.1421L-9.33333 14.1544V14.1667H12ZM16 10V-11.3333H15.9867L15.9734 -11.3333L16 10ZM20 10.02H41.3333V-9.849L21.5145 -11.2595L20 10.02ZM27.9808 18.3333L49.2684 16.9371L47.9607 -3H27.9808V18.3333ZM42.9333 15.8333V10.3833H0.266666V15.8333H42.9333ZM13.7906 30.2359C11.6263 29.3845 9.72798 28.09 8.19321 26.4936L38.9508 -3.07693C36.2965 -5.83779 33.0537 -8.03565 29.4094 -9.46922L13.7906 30.2359ZM8.17817 26.4779L10.9654 29.3829L41.753 -0.156266L38.9658 -3.06127L8.17817 26.4779ZM10.9759 29.3939C9.43726 27.7925 8.29503 25.9224 7.57443 23.9334L47.6896 9.39995C46.4104 5.86914 44.4003 2.59894 41.7425 -0.167276L10.9759 29.3939ZM27.632 -4.66667H22.4V38H27.632V-4.66667ZM22.4 -4.66667C28.1333 -4.66667 33.4466 -2.28612 37.2239 1.64858L6.44472 31.1966C10.5221 35.4439 16.2423 38 22.4 38V-4.66667ZM37.2239 1.64858C40.9728 5.55366 42.9333 10.671 42.9333 15.8333H0.266666C0.266666 21.4377 2.39578 26.979 6.44472 31.1966L37.2239 1.64858ZM6.66667 18.7375V25.8333H49.3333V18.7375H6.66667ZM6.66668 25.8088C6.67159 21.5384 8.29441 17.2781 11.4374 14.0041L42.2166 43.5522C46.8594 38.716 49.3259 32.3376 49.3333 25.8579L6.66668 25.8088ZM11.4374 14.0041C14.6087 10.7007 19.0979 8.67277 23.9734 8.66668L24.0266 51.3333C31.023 51.3246 37.5456 48.4178 42.2166 43.5522L11.4374 14.0041ZM24 8.66667H16V51.3333H24V8.66667ZM16.0266 8.66668C20.9021 8.67277 25.3913 10.7007 28.5626 14.0041L-2.21662 43.5522C2.4544 48.4178 8.97696 51.3246 15.9734 51.3333L16.0266 8.66668ZM28.5626 14.0041C31.7056 17.2781 33.3284 21.5384 33.3333 25.8088L-9.33332 25.8579C-9.32587 32.3376 -6.85938 38.716 -2.21662 43.5522L28.5626 14.0041ZM33.3333 25.8333V14.1667H-9.33333V25.8333H33.3333ZM33.3333 14.1912C33.3284 18.4616 31.7056 22.7219 28.5626 25.9959L-2.21662 -3.55216C-6.85938 1.28404 -9.32587 7.66239 -9.33332 14.1421L33.3333 14.1912ZM28.5626 25.9959C25.3913 29.2993 20.9021 31.3272 16.0266 31.3333L15.9734 -11.3333C8.97695 -11.3246 2.45439 -8.4178 -2.21662 -3.55216L28.5626 25.9959ZM16 31.3333H19.612V-11.3333H16V31.3333ZM19.612 31.3333C19.1015 31.3333 18.7093 31.3124 18.5361 31.302C18.4471 31.2967 18.3845 31.2922 18.3815 31.292C18.3803 31.2919 18.3808 31.2919 18.4012 31.2934C18.4161 31.2945 18.449 31.2969 18.4855 31.2995L21.5145 -11.2595C21.5188 -11.2592 21.5195 -11.2591 21.5022 -11.2604C21.4904 -11.2613 21.4586 -11.2636 21.4252 -11.266C21.3578 -11.2708 21.2307 -11.2797 21.0771 -11.2889C20.7747 -11.3069 20.2529 -11.3333 19.612 -11.3333V31.3333ZM-1.33333 10.02V15.8333H41.3333V10.02H-1.33333ZM-1.33333 15.8333C-1.33333 21.8797 0.964333 27.8449 5.31335 32.3751L36.0925 2.82709C39.5414 6.41963 41.3333 11.1131 41.3333 15.8333H-1.33333ZM5.31335 32.3751C9.69079 36.935 15.818 39.6667 22.4 39.6667V-3C27.7089 -3 32.6153 -0.795069 36.0925 2.82709L5.31335 32.3751ZM22.4 39.6667H27.9808V-3H22.4V39.6667ZM6.69321 19.7296C6.69554 19.7652 6.69772 19.7975 6.69877 19.8132C6.69942 19.823 6.69975 19.8278 6.70007 19.8326C6.70035 19.8368 6.70042 19.8378 6.70037 19.8371C6.70029 19.8359 6.69939 19.8223 6.69809 19.8013C6.69677 19.7799 6.6948 19.7472 6.69254 19.706C6.68418 19.5539 6.66667 19.2002 6.66667 18.7375H49.3333C49.3333 18.139 49.3106 17.6503 49.2949 17.3635C49.2869 17.218 49.279 17.097 49.2747 17.0309C49.2725 16.9982 49.2704 16.9669 49.2695 16.9541C49.2683 16.9362 49.2683 16.935 49.2684 16.9371L6.69321 19.7296ZM42.9333 25.8333C42.9333 20.229 40.8042 14.6877 36.7553 10.4701L5.97609 40.0181C2.22719 36.113 0.266666 30.9956 0.266666 25.8333H42.9333ZM36.7553 10.4701C32.6779 6.22277 26.9576 3.66667 20.8 3.66667V46.3333C15.0667 46.3333 9.75344 43.9528 5.97609 40.0181L36.7553 10.4701ZM20.8 3.66667H16.8V46.3333H20.8V3.66667ZM16.8 3.66667C10.6424 3.66667 4.92212 6.22277 0.844718 10.4701L31.6239 40.0181C27.8466 43.9528 22.5333 46.3333 16.8 46.3333V3.66667ZM0.844718 10.4701C-3.20424 14.6877 -5.33333 20.229 -5.33333 25.8333H37.3333C37.3333 30.9956 35.3728 36.113 31.6239 40.0181L0.844718 10.4701ZM-5.33333 25.8333C-5.33333 31.4377 -3.20424 36.9789 0.844718 41.1966L31.6239 11.6486C35.3728 15.5537 37.3333 20.671 37.3333 25.8333H-5.33333ZM0.844718 41.1966C4.92212 45.4439 10.6424 48 16.8 48V5.33333C22.5333 5.33333 27.8466 7.71384 31.6239 11.6486L0.844718 41.1966ZM16.8 48H20.8V5.33333H16.8V48ZM20.8 48C26.9576 48 32.6779 45.4439 36.7553 41.1966L5.97609 11.6486C9.75344 7.71384 15.0667 5.33333 20.8 5.33333V48ZM36.7553 41.1966C40.8042 36.9789 42.9333 31.4377 42.9333 25.8333H0.266666C0.266666 20.671 2.22719 15.5537 5.97609 11.6486L36.7553 41.1966ZM45.3333 22.5C45.3333 16.8957 43.2043 11.3544 39.1553 7.13673L8.37609 36.6848C4.62717 32.7796 2.66667 27.6623 2.66667 22.5H45.3333ZM39.1553 7.13673C35.0779 2.88946 29.3576 0.333332 23.2 0.333332V43C17.4667 43 12.1534 40.6195 8.37609 36.6848L39.1553 7.13673ZM23.2 0.333332H16.8V43H23.2V0.333332ZM16.8 0.333332C10.6423 0.333332 4.92209 2.88947 0.844718 7.13673L31.6239 36.6848C27.8466 40.6195 22.5333 43 16.8 43V0.333332ZM0.844718 7.13673C-3.20422 11.3544 -5.33333 16.8956 -5.33333 22.5H37.3333C37.3333 27.6623 35.3728 32.7797 31.6239 36.6848L0.844718 7.13673ZM-5.33333 22.5C-5.33333 28.1044 -3.20422 33.6456 0.844718 37.8633L31.6239 8.31524C35.3728 12.2203 37.3333 17.3377 37.3333 22.5H-5.33333ZM0.844718 37.8633C4.92209 42.1105 10.6423 44.6667 16.8 44.6667V2C22.5333 2 27.8466 4.38054 31.6239 8.31524L0.844718 37.8633ZM16.8 44.6667H23.2V2H16.8V44.6667ZM23.2 44.6667C29.3576 44.6667 35.0779 42.1105 39.1553 37.8633L8.37609 8.31524C12.1534 4.38053 17.4667 2 23.2 2V44.6667ZM39.1553 37.8633C43.2043 33.6456 45.3333 28.1043 45.3333 22.5H2.66667C2.66667 17.3377 4.62717 12.2204 8.37609 8.31524L39.1553 37.8633Z" fill="#F65B5B" mask="url(#path-2-inside-1_1601_21408)"/>
</svg>
