<svg width="40" height="40" viewBox="0 0 40 40" fill="none" xmlns="http://www.w3.org/2000/svg">
<rect width="40" height="40" rx="12" fill="#CFF6F8"/>
<mask id="path-2-inside-1_1601_21406" fill="white">
<path d="M20 10C18.0222 10 16.0888 10.5865 14.4443 11.6853C12.7998 12.7841 11.5181 14.3459 10.7612 16.1732C10.0043 18.0004 9.8063 20.0111 10.1922 21.9509C10.578 23.8907 11.5304 25.6725 12.9289 27.0711C14.3275 28.4696 16.1093 29.422 18.0491 29.8078C19.9889 30.1937 21.9996 29.9957 23.8268 29.2388C25.6541 28.4819 27.2159 27.2002 28.3147 25.5557C29.4135 23.9112 30 21.9778 30 20C29.9971 17.3487 28.9426 14.8068 27.0679 12.9321C25.1932 11.0574 22.6513 10.0029 20 10V10ZM20 26.6667C19.8352 26.6667 19.6741 26.6178 19.537 26.5262C19.4 26.4347 19.2932 26.3045 19.2301 26.1522C19.167 26 19.1505 25.8324 19.1827 25.6708C19.2148 25.5091 19.2942 25.3606 19.4107 25.2441C19.5273 25.1275 19.6758 25.0482 19.8374 25.016C19.9991 24.9839 20.1666 25.0004 20.3189 25.0634C20.4712 25.1265 20.6013 25.2333 20.6929 25.3704C20.7845 25.5074 20.8333 25.6685 20.8333 25.8333C20.8333 26.0543 20.7455 26.2663 20.5893 26.4226C20.433 26.5789 20.221 26.6667 20 26.6667ZM21.6083 20.4217C21.3624 20.5754 21.1613 20.7912 21.0253 21.0474C20.8892 21.3035 20.823 21.591 20.8333 21.8808V22.5C20.8333 22.721 20.7455 22.933 20.5893 23.0893C20.433 23.2455 20.221 23.3333 20 23.3333C19.779 23.3333 19.567 23.2455 19.4107 23.0893C19.2545 22.933 19.1667 22.721 19.1667 22.5V21.8808C19.1544 21.2928 19.2996 20.7123 19.5874 20.1994C19.8752 19.6865 20.2951 19.26 20.8033 18.9642C21.1112 18.7946 21.3576 18.532 21.5073 18.2139C21.657 17.8959 21.7022 17.5387 21.6367 17.1933C21.5717 16.8643 21.4102 16.5622 21.1727 16.3254C20.9352 16.0887 20.6325 15.9281 20.3033 15.8642C20.0631 15.8197 19.816 15.8286 19.5796 15.8902C19.3432 15.9518 19.1232 16.0647 18.9353 16.2208C18.7473 16.3768 18.596 16.5723 18.4919 16.7934C18.3879 17.0145 18.3338 17.2557 18.3333 17.5C18.3333 17.721 18.2455 17.933 18.0893 18.0893C17.933 18.2455 17.721 18.3333 17.5 18.3333C17.279 18.3333 17.067 18.2455 16.9107 18.0893C16.7545 17.933 16.6667 17.721 16.6667 17.5C16.6669 16.9121 16.8226 16.3347 17.118 15.8264C17.4134 15.3181 17.8379 14.8969 18.3486 14.6057C18.8593 14.3144 19.438 14.1634 20.0259 14.1679C20.6137 14.1725 21.19 14.3325 21.6961 14.6316C22.2022 14.9308 22.6202 15.3584 22.9077 15.8713C23.1951 16.3841 23.3419 16.9639 23.333 17.5517C23.324 18.1395 23.1598 18.7146 22.8569 19.2185C22.554 19.7223 22.1233 20.1372 21.6083 20.4208V20.4217Z"/>
</mask>
<path d="M20 10C18.0222 10 16.0888 10.5865 14.4443 11.6853C12.7998 12.7841 11.5181 14.3459 10.7612 16.1732C10.0043 18.0004 9.8063 20.0111 10.1922 21.9509C10.578 23.8907 11.5304 25.6725 12.9289 27.0711C14.3275 28.4696 16.1093 29.422 18.0491 29.8078C19.9889 30.1937 21.9996 29.9957 23.8268 29.2388C25.6541 28.4819 27.2159 27.2002 28.3147 25.5557C29.4135 23.9112 30 21.9778 30 20C29.9971 17.3487 28.9426 14.8068 27.0679 12.9321C25.1932 11.0574 22.6513 10.0029 20 10V10ZM20 26.6667C19.8352 26.6667 19.6741 26.6178 19.537 26.5262C19.4 26.4347 19.2932 26.3045 19.2301 26.1522C19.167 26 19.1505 25.8324 19.1827 25.6708C19.2148 25.5091 19.2942 25.3606 19.4107 25.2441C19.5273 25.1275 19.6758 25.0482 19.8374 25.016C19.9991 24.9839 20.1666 25.0004 20.3189 25.0634C20.4712 25.1265 20.6013 25.2333 20.6929 25.3704C20.7845 25.5074 20.8333 25.6685 20.8333 25.8333C20.8333 26.0543 20.7455 26.2663 20.5893 26.4226C20.433 26.5789 20.221 26.6667 20 26.6667ZM21.6083 20.4217C21.3624 20.5754 21.1613 20.7912 21.0253 21.0474C20.8892 21.3035 20.823 21.591 20.8333 21.8808V22.5C20.8333 22.721 20.7455 22.933 20.5893 23.0893C20.433 23.2455 20.221 23.3333 20 23.3333C19.779 23.3333 19.567 23.2455 19.4107 23.0893C19.2545 22.933 19.1667 22.721 19.1667 22.5V21.8808C19.1544 21.2928 19.2996 20.7123 19.5874 20.1994C19.8752 19.6865 20.2951 19.26 20.8033 18.9642C21.1112 18.7946 21.3576 18.532 21.5073 18.2139C21.657 17.8959 21.7022 17.5387 21.6367 17.1933C21.5717 16.8643 21.4102 16.5622 21.1727 16.3254C20.9352 16.0887 20.6325 15.9281 20.3033 15.8642C20.0631 15.8197 19.816 15.8286 19.5796 15.8902C19.3432 15.9518 19.1232 16.0647 18.9353 16.2208C18.7473 16.3768 18.596 16.5723 18.4919 16.7934C18.3879 17.0145 18.3338 17.2557 18.3333 17.5C18.3333 17.721 18.2455 17.933 18.0893 18.0893C17.933 18.2455 17.721 18.3333 17.5 18.3333C17.279 18.3333 17.067 18.2455 16.9107 18.0893C16.7545 17.933 16.6667 17.721 16.6667 17.5C16.6669 16.9121 16.8226 16.3347 17.118 15.8264C17.4134 15.3181 17.8379 14.8969 18.3486 14.6057C18.8593 14.3144 19.438 14.1634 20.0259 14.1679C20.6137 14.1725 21.19 14.3325 21.6961 14.6316C22.2022 14.9308 22.6202 15.3584 22.9077 15.8713C23.1951 16.3841 23.3419 16.9639 23.333 17.5517C23.324 18.1395 23.1598 18.7146 22.8569 19.2185C22.554 19.7223 22.1233 20.1372 21.6083 20.4208V20.4217Z" fill="#5BD1D7"/>
<path d="M20 10H41.3333V-11.3333H20V10ZM30 20H51.3333V19.9885L51.3333 19.9769L30 20ZM20 10H-1.33333V31.3103L19.9769 31.3333L20 10ZM19.2301 26.1522L-0.479328 34.3161L19.2301 26.1522ZM21.6083 20.4217L32.9181 38.5103L42.9417 32.2432V20.4217H21.6083ZM20.8333 21.8808H42.1667V21.5016L42.1532 21.1226L20.8333 21.8808ZM19.1667 21.8808H40.5V21.6575L40.4953 21.4343L19.1667 21.8808ZM20.8033 18.9642L10.5113 0.277695L10.2898 0.399693L10.0712 0.526908L20.8033 18.9642ZM21.6367 17.1933L42.5954 13.2131L42.5811 13.1378L42.5663 13.0625L21.6367 17.1933ZM20.3033 15.8642L24.3686 -5.07825L24.2774 -5.09595L24.186 -5.11286L20.3033 15.8642ZM18.3333 17.5L-2.99996 17.4616L-3 17.4808V17.5H18.3333ZM18.0893 18.0893L3.00431 3.00431L18.0893 18.0893ZM16.9107 18.0893L31.9957 3.00431L16.9107 18.0893ZM16.6667 17.5L-4.66666 17.4924V17.5H16.6667ZM21.6083 20.4208L11.315 1.73505L0.275002 7.8166V20.4208H21.6083ZM20 -11.3333C13.8029 -11.3333 7.74488 -9.49567 2.59213 -6.05272L26.2965 29.4233C24.4327 30.6686 22.2415 31.3333 20 31.3333V-11.3333ZM2.59213 -6.05272C-2.56061 -2.60976 -6.57668 2.28384 -8.94822 8.00925L30.4706 24.3371C29.6128 26.408 28.1602 28.178 26.2965 29.4233L2.59213 -6.05272ZM-8.94822 8.00925C-11.3198 13.7347 -11.9403 20.0348 -10.7313 26.1128L31.1156 17.789C31.5529 19.9874 31.3284 22.2662 30.4706 24.3371L-8.94822 8.00925ZM-10.7313 26.1128C-9.52226 32.1909 -6.53806 37.774 -2.15601 42.156L28.0139 11.9861C29.5989 13.5711 30.6783 15.5905 31.1156 17.789L-10.7313 26.1128ZM-2.15601 42.156C2.22604 46.5381 7.80911 49.5223 13.8872 50.7313L22.211 8.88443C24.4095 9.32173 26.4289 10.4011 28.0139 11.9861L-2.15601 42.156ZM13.8872 50.7313C19.9652 51.9403 26.2653 51.3198 31.9907 48.9482L15.6629 9.52936C17.7338 8.67157 20.0126 8.44713 22.211 8.88443L13.8872 50.7313ZM31.9907 48.9482C37.7162 46.5767 42.6098 42.5606 46.0527 37.4079L10.5767 13.7035C11.822 11.8398 13.592 10.3872 15.6629 9.52936L31.9907 48.9482ZM46.0527 37.4079C49.4957 32.2551 51.3333 26.1972 51.3333 20H8.66667C8.66667 17.7585 9.33136 15.5673 10.5767 13.7035L46.0527 37.4079ZM51.3333 19.9769C51.3243 11.6757 48.0227 3.71702 42.1528 -2.15285L11.983 28.017C9.86257 25.8967 8.66992 23.0217 8.66668 20.0231L51.3333 19.9769ZM42.1528 -2.15285C36.283 -8.02271 28.3243 -11.3243 20.0231 -11.3333L19.9769 31.3333C16.9783 31.3301 14.1033 30.1374 11.983 28.017L42.1528 -2.15285ZM41.3333 10V10H-1.33333V10H41.3333ZM20 5.33333C24.0544 5.33333 28.0179 6.53559 31.3892 8.7882L7.68486 44.2642C11.3302 46.7 15.6159 48 20 48V5.33333ZM31.3892 8.7882C34.7605 11.0408 37.388 14.2425 38.9395 17.9883L-0.479328 34.3161C1.19838 38.3665 4.0395 41.8285 7.68486 44.2642L31.3892 8.7882ZM38.9395 17.9883C40.4911 21.7342 40.8971 25.8561 40.1061 29.8327L-1.74074 21.5088C-2.59604 25.8087 -2.15707 30.2657 -0.479328 34.3161L38.9395 17.9883ZM40.1061 29.8327C39.3151 33.8093 37.3627 37.4621 34.4957 40.329L4.3258 10.1591C1.22575 13.2592 -0.885428 17.2089 -1.74074 21.5088L40.1061 29.8327ZM34.4957 40.329C31.6287 43.196 27.9759 45.1484 23.9994 45.9394L15.6755 4.09259C11.3756 4.94789 7.42589 7.05904 4.3258 10.1591L34.4957 40.329ZM23.9994 45.9394C20.0227 46.7304 15.9009 46.3245 12.155 44.7729L28.4828 5.354C24.4324 3.67626 19.9754 3.23728 15.6755 4.09259L23.9994 45.9394ZM12.155 44.7729C8.4091 43.2213 5.20744 40.5937 2.95487 37.2225L38.4309 13.5182C35.9952 9.8729 32.5333 7.03174 28.4828 5.354L12.155 44.7729ZM2.95487 37.2225C0.702304 33.8513 -0.499998 29.8878 -0.499998 25.8333H42.1667C42.1667 21.4492 40.8666 17.1635 38.4309 13.5182L2.95487 37.2225ZM-0.499998 25.8333C-0.499998 20.3964 1.65981 15.1821 5.50431 11.3376L35.6742 41.5075C39.8313 37.3505 42.1667 31.7123 42.1667 25.8333H-0.499998ZM5.50431 11.3376C9.34883 7.49312 14.5631 5.33333 20 5.33333V48C25.8789 48 31.5171 45.6646 35.6742 41.5075L5.50431 11.3376ZM10.2986 2.33298C6.87626 4.47275 4.07774 7.47596 2.18449 11.0406L39.866 31.0542C38.2449 34.1065 35.8486 36.6781 32.9181 38.5103L10.2986 2.33298ZM2.18449 11.0406C0.291245 14.6052 -0.629981 18.6055 -0.486518 22.6391L42.1532 21.1226C42.276 24.5765 41.4872 28.0019 39.866 31.0542L2.18449 11.0406ZM-0.499998 21.8808V22.5H42.1667V21.8808H-0.499998ZM-0.499998 22.5C-0.499998 17.063 1.65983 11.8488 5.50431 8.00431L35.6742 38.1742C39.8312 34.0172 42.1667 28.379 42.1667 22.5H-0.499998ZM5.50431 8.00431C9.3488 4.15982 14.563 2 20 2V44.6667C25.879 44.6667 31.5172 42.3312 35.6742 38.1742L5.50431 8.00431ZM20 2C25.437 2 30.6512 4.15982 34.4957 8.00431L4.3258 38.1742C8.48285 42.3312 14.121 44.6667 20 44.6667V2ZM34.4957 8.00431C38.3402 11.8488 40.5 17.063 40.5 22.5H-2.16667C-2.16667 28.379 0.168756 34.0172 4.3258 38.1742L34.4957 8.00431ZM40.5 22.5V21.8808H-2.16667V22.5H40.5ZM40.4953 21.4343C40.5627 24.6531 39.7674 27.8314 38.1918 30.6391L0.983049 9.75969C-1.16809 13.5932 -2.25401 17.9326 -2.16199 22.3274L40.4953 21.4343ZM38.1918 30.6391C36.6163 33.4469 34.318 35.7818 31.5355 37.4014L10.0712 0.526908C6.27215 2.7383 3.13419 5.92619 0.983049 9.75969L38.1918 30.6391ZM31.0954 37.6506C35.3444 35.3104 38.7446 31.6867 40.8101 27.2976L2.2045 9.13028C3.97061 5.37728 6.87809 2.27876 10.5113 0.277695L31.0954 37.6506ZM40.8101 27.2976C42.8756 22.9085 43.5004 17.9787 42.5954 13.2131L0.677919 21.1735C-0.0959377 17.0986 0.438377 12.8833 2.2045 9.13028L40.8101 27.2976ZM42.5663 13.0625C41.68 8.57229 39.4754 4.44814 36.234 1.21687L6.11139 31.4339C3.34498 28.6762 1.46344 25.1564 0.707084 21.3241L42.5663 13.0625ZM36.234 1.21687C32.9926 -2.01439 28.8616 -4.20608 24.3686 -5.07825L16.238 36.8066C12.4035 36.0622 8.87779 34.1917 6.11139 31.4339L36.234 1.21687ZM24.186 -5.11286C20.8708 -5.72649 17.4612 -5.60375 14.1987 -4.75336L24.9605 36.5338C22.1708 37.2609 19.2554 37.3659 16.4206 36.8412L24.186 -5.11286ZM14.1987 -4.75336C10.9362 -3.90296 7.90056 -2.3457 5.3067 -0.191834L32.5638 32.6334C30.3459 34.4751 27.7502 35.8066 24.9605 36.5338L14.1987 -4.75336ZM5.3067 -0.191834C2.71285 1.96203 0.624248 4.65981 -0.811216 7.71048L37.7951 25.8763C36.5677 28.4848 34.7818 30.7917 32.5638 32.6334L5.3067 -0.191834ZM-0.811216 7.71048C-2.24668 10.7612 -2.9939 14.0901 -2.99996 17.4616L39.6666 17.5384C39.6615 20.4213 39.0225 23.2678 37.7951 25.8763L-0.811216 7.71048ZM-3 17.5C-3 12.063 -0.840173 6.84879 3.00431 3.00431L33.1742 33.1742C37.3312 29.0172 39.6667 23.379 39.6667 17.5H-3ZM3.00431 3.00431C6.8488 -0.840176 12.063 -3 17.5 -3V39.6667C23.379 39.6667 29.0172 37.3312 33.1742 33.1742L3.00431 3.00431ZM17.5 -3C22.937 -3 28.1512 -0.840176 31.9957 3.00431L1.8258 33.1742C5.98285 37.3312 11.621 39.6667 17.5 39.6667V-3ZM31.9957 3.00431C35.8402 6.84879 38 12.063 38 17.5H-4.66666C-4.66666 23.379 -2.33124 29.0172 1.8258 33.1742L31.9957 3.00431ZM38 17.5076C37.9989 20.6823 37.1581 23.8002 35.563 26.5451L-1.32708 5.10763C-3.51297 8.86916 -4.66512 13.1419 -4.66666 17.4924L38 17.5076ZM35.563 26.5451C33.9679 29.29 31.6752 31.5642 28.9174 33.137L7.77981 -3.92571C4.00068 -1.77039 0.858814 1.3461 -1.32708 5.10763L35.563 26.5451ZM28.9174 33.137C26.1597 34.7098 23.035 35.5253 19.8604 35.5006L20.1913 -7.16475C15.8409 -7.19849 11.5589 -6.08102 7.77981 -3.92571L28.9174 33.137ZM19.8604 35.5006C16.6858 35.476 13.5741 34.6122 10.8411 32.9968L32.5511 -3.73358C28.8058 -5.94725 24.5417 -7.131 20.1913 -7.16475L19.8604 35.5006ZM10.8411 32.9968C8.1081 31.3814 5.85094 29.072 4.29859 26.3026L41.5168 5.43992C39.3895 1.64493 36.2963 -1.51991 32.5511 -3.73358L10.8411 32.9968ZM4.29859 26.3026C2.74624 23.5333 1.95395 20.4027 2.00207 17.2284L44.6638 17.8751C44.7298 13.525 43.644 9.23491 41.5168 5.43992L4.29859 26.3026ZM2.00207 17.2284C2.05019 14.054 2.93701 10.9488 4.57258 8.22785L41.1413 30.2091C43.3826 26.4803 44.5979 22.2251 44.6638 17.8751L2.00207 17.2284ZM4.57258 8.22785C6.20815 5.50686 8.53428 3.26685 11.315 1.73505L31.9017 39.1066C35.7123 37.0075 38.8999 33.9378 41.1413 30.2091L4.57258 8.22785ZM0.275002 20.4208V20.4217H42.9417V20.4208H0.275002Z" fill="#5BD1D7" mask="url(#path-2-inside-1_1601_21406)"/>
</svg>
