<svg width="40" height="40" viewBox="0 0 40 40" fill="none" xmlns="http://www.w3.org/2000/svg">
<rect width="40" height="40" rx="12" fill="#F4E0FF"/>
<mask id="path-2-inside-1_1601_21404" fill="white">
<path d="M30 17.5C30 16.837 29.7366 16.2011 29.2678 15.7322C28.7989 15.2634 28.163 15 27.5 15H25C25 13.6739 24.4732 12.4021 23.5355 11.4645C22.5979 10.5268 21.3261 10 20 10C18.6739 10 17.4021 10.5268 16.4645 11.4645C15.5268 12.4021 15 13.6739 15 15H12.5C11.837 15 11.2011 15.2634 10.7322 15.7322C10.2634 16.2011 10 16.837 10 17.5V25.8333C10.0013 26.938 10.4407 27.997 11.2218 28.7782C12.003 29.5593 13.062 29.9987 14.1667 30H25.8333C26.938 29.9987 27.997 29.5593 28.7782 28.7782C29.5593 27.997 29.9987 26.938 30 25.8333V17.5ZM16.6667 15C16.6667 14.1159 17.0179 13.2681 17.643 12.643C18.2681 12.0179 19.1159 11.6667 20 11.6667C20.8841 11.6667 21.7319 12.0179 22.357 12.643C22.9821 13.2681 23.3333 14.1159 23.3333 15H16.6667Z"/>
</mask>
<path d="M30 17.5C30 16.837 29.7366 16.2011 29.2678 15.7322C28.7989 15.2634 28.163 15 27.5 15H25C25 13.6739 24.4732 12.4021 23.5355 11.4645C22.5979 10.5268 21.3261 10 20 10C18.6739 10 17.4021 10.5268 16.4645 11.4645C15.5268 12.4021 15 13.6739 15 15H12.5C11.837 15 11.2011 15.2634 10.7322 15.7322C10.2634 16.2011 10 16.837 10 17.5V25.8333C10.0013 26.938 10.4407 27.997 11.2218 28.7782C12.003 29.5593 13.062 29.9987 14.1667 30H25.8333C26.938 29.9987 27.997 29.5593 28.7782 28.7782C29.5593 27.997 29.9987 26.938 30 25.8333V17.5ZM16.6667 15C16.6667 14.1159 17.0179 13.2681 17.643 12.643C18.2681 12.0179 19.1159 11.6667 20 11.6667C20.8841 11.6667 21.7319 12.0179 22.357 12.643C22.9821 13.2681 23.3333 14.1159 23.3333 15H16.6667Z" fill="#CA78F6"/>
<path d="M30 17.5H51.3333H30ZM25 15H3.66667V36.3333H25V15ZM20 10V-11.3333V10ZM15 15V36.3333H36.3333V15H15ZM10 17.5H-11.3333H10ZM10 25.8333H-11.3333V25.8461L-11.3333 25.8589L10 25.8333ZM14.1667 30L14.1411 51.3333L14.1539 51.3333H14.1667V30ZM25.8333 30V51.3333H25.8461L25.8589 51.3333L25.8333 30ZM30 25.8333L51.3333 25.8589L51.3333 25.8461V25.8333H30ZM16.6667 15H-4.66667V36.3333H16.6667V15ZM20 11.6667V-9.66667V11.6667ZM23.3333 15V36.3333H44.6667V15H23.3333ZM51.3333 17.5C51.3333 11.179 48.8223 5.11691 44.3527 0.647288L14.1828 30.8172C10.6509 27.2852 8.66667 22.4949 8.66667 17.5H51.3333ZM44.3527 0.647288C39.8831 -3.82233 33.821 -6.33333 27.5 -6.33333V36.3333C22.5051 36.3333 17.7148 34.3491 14.1828 30.8172L44.3527 0.647288ZM27.5 -6.33333H25V36.3333H27.5V-6.33333ZM46.3333 15C46.3333 8.01597 43.5589 1.31798 38.6205 -3.62048L8.45059 26.5494C5.38749 23.4863 3.66667 19.3319 3.66667 15H46.3333ZM38.6205 -3.62048C33.682 -8.55894 26.984 -11.3333 20 -11.3333V31.3333C15.6681 31.3333 11.5137 29.6125 8.45059 26.5494L38.6205 -3.62048ZM20 -11.3333C13.016 -11.3333 6.31798 -8.55894 1.37952 -3.62048L31.5494 26.5494C28.4863 29.6125 24.3319 31.3333 20 31.3333V-11.3333ZM1.37952 -3.62048C-3.55894 1.31798 -6.33333 8.01596 -6.33333 15H36.3333C36.3333 19.3319 34.6125 23.4863 31.5494 26.5494L1.37952 -3.62048ZM15 -6.33333H12.5V36.3333H15V-6.33333ZM12.5 -6.33333C6.17901 -6.33333 0.116904 -3.82233 -4.35271 0.647288L25.8172 30.8172C22.2852 34.3491 17.4949 36.3333 12.5 36.3333V-6.33333ZM-4.35271 0.647288C-8.82233 5.1169 -11.3333 11.179 -11.3333 17.5H31.3333C31.3333 22.4949 29.3491 27.2852 25.8172 30.8172L-4.35271 0.647288ZM-11.3333 17.5V25.8333H31.3333V17.5H-11.3333ZM-11.3333 25.8589C-11.3252 32.6126 -8.63873 39.0875 -3.8631 43.8631L26.3068 13.6932C29.5202 16.9066 31.3279 21.2634 31.3333 25.8078L-11.3333 25.8589ZM-3.8631 43.8631C0.912541 48.6387 7.38737 51.3252 14.1411 51.3333L14.1922 8.66668C18.7366 8.67212 23.0934 10.4798 26.3068 13.6932L-3.8631 43.8631ZM14.1667 51.3333H25.8333V8.66667H14.1667V51.3333ZM25.8589 51.3333C32.6126 51.3252 39.0875 48.6387 43.8631 43.8631L13.6932 13.6932C16.9066 10.4798 21.2634 8.67212 25.8078 8.66668L25.8589 51.3333ZM43.8631 43.8631C48.6387 39.0875 51.3252 32.6126 51.3333 25.8589L8.66668 25.8078C8.67212 21.2634 10.4798 16.9066 13.6932 13.6932L43.8631 43.8631ZM51.3333 25.8333V17.5H8.66667V25.8333H51.3333ZM38 15C38 19.7739 36.1036 24.3523 32.7279 27.7279L2.55803 -2.44197C-2.06787 2.18393 -4.66667 8.458 -4.66667 15H38ZM32.7279 27.7279C29.3523 31.1036 24.7739 33 20 33V-9.66667C13.458 -9.66667 7.18393 -7.06787 2.55803 -2.44197L32.7279 27.7279ZM20 33C15.2261 33 10.6477 31.1036 7.27208 27.7279L37.442 -2.44197C32.8161 -7.06787 26.542 -9.66667 20 -9.66667V33ZM7.27208 27.7279C3.89642 24.3523 2 19.7739 2 15H44.6667C44.6667 8.458 42.0679 2.18393 37.442 -2.44197L7.27208 27.7279ZM23.3333 -6.33333H16.6667V36.3333H23.3333V-6.33333Z" fill="#CA78F6" mask="url(#path-2-inside-1_1601_21404)"/>
</svg>
