<svg width="48" height="48" viewBox="0 0 48 48" fill="none" xmlns="http://www.w3.org/2000/svg">
<circle cx="24" cy="24" r="24" fill="#F2F2F2"/>
<path d="M27.1797 25.7379C26.3695 25.7379 25.7803 25.0634 25.7803 24.3139C25.7803 23.8642 26.0013 23.4894 26.3695 23.1897C27.548 22.2153 28.2109 20.5665 27.8426 18.8427C27.4743 17.2688 26.2959 16.0696 24.6755 15.7698C21.9503 15.1702 19.5934 17.2688 19.5934 19.8919C19.5934 21.241 20.1827 22.4402 21.2138 23.1897C21.5821 23.4894 21.7294 23.8642 21.7294 24.3139C21.7294 25.1383 21.0665 25.7379 20.33 25.7379C18.194 25.7379 16.5 27.4617 16.5 29.6352V31.0592C16.5 31.7337 17.0156 32.3333 17.7521 32.3333H29.8312C30.4941 32.3333 31.0833 31.8087 31.0833 31.0592V29.6352C31.0097 27.4617 29.3157 25.7379 27.1797 25.7379Z" stroke="#8134AF" stroke-width="2" stroke-miterlimit="10"/>
</svg>
