<svg width="40" height="40" viewBox="0 0 40 40" fill="none" xmlns="http://www.w3.org/2000/svg">
<rect width="40" height="40" rx="12" fill="#F8E3CD"/>
<mask id="path-2-inside-1_1601_21409" fill="white">
<path d="M25.6567 24.3442C27.158 22.7622 28 20.6274 28 18.4029C28 16.1784 27.158 14.0436 25.6567 12.4616C24.9171 11.6818 24.0362 11.0627 23.0652 10.6401C22.0942 10.2176 21.0523 10 19.9999 10C18.9476 10 17.9057 10.2176 16.9347 10.6401C15.9636 11.0627 15.0828 11.6818 14.3432 12.4616C12.8384 14.0472 11.9961 16.1881 12 18.4178C12.0039 20.6474 12.8536 22.7851 14.364 24.365L17.2312 27.1475C17.9654 27.9037 18.9556 28.3291 19.9882 28.3319C21.0208 28.3347 22.013 27.9147 22.7511 27.1625L25.6567 24.3442ZM21.0735 22.2075C20.7399 22.3796 20.3726 22.4691 20.0003 22.4691C19.628 22.4691 19.2608 22.3796 18.9271 22.2075L17.3272 21.3742C16.9275 21.1676 16.5913 20.8487 16.3568 20.4533C16.1222 20.058 15.9986 19.6022 16 19.1375V16.6667C15.9984 16.2019 16.1218 15.7459 16.3562 15.3505C16.5907 14.955 16.9267 14.6359 17.3264 14.4292L18.9263 13.5958C19.2598 13.4232 19.6271 13.3333 19.9995 13.3333C20.3719 13.3333 20.7392 13.4232 21.0727 13.5958L22.6727 14.4292C23.0725 14.6357 23.4087 14.9548 23.6433 15.3503C23.8779 15.7458 24.0014 16.2018 23.9999 16.6667V19.1383C24.0013 19.603 23.8778 20.0587 23.6434 20.454C23.409 20.8493 23.073 21.1684 22.6735 21.375L21.0735 22.2075ZM22.3591 16.4117C22.3854 16.4939 22.3991 16.58 22.3999 16.6667V19.1383C22.4005 19.2933 22.3594 19.4454 22.2812 19.5772C22.203 19.7091 22.0908 19.8154 21.9575 19.8842L20.3575 20.7175C20.2463 20.775 20.1237 20.805 19.9995 20.805C19.8753 20.805 19.7528 20.775 19.6415 20.7175L18.0415 19.8842C17.9082 19.8152 17.7962 19.7087 17.7181 19.5767C17.64 19.4447 17.5991 19.2925 17.5999 19.1375V16.6667C17.6012 16.5816 17.615 16.4973 17.6407 16.4167L19.3847 17.325C19.5758 17.4244 19.7864 17.4762 19.9999 17.4762C20.2135 17.4762 20.4241 17.4244 20.6151 17.325L22.3591 16.4117ZM26.3999 29.1667C26.3999 29.3877 26.3156 29.5996 26.1655 29.7559C26.0155 29.9122 25.812 30 25.5999 30H14.4C14.1878 30 13.9843 29.9122 13.8343 29.7559C13.6843 29.5996 13.6 29.3877 13.6 29.1667C13.6 28.9457 13.6843 28.7337 13.8343 28.5774C13.9843 28.4211 14.1878 28.3333 14.4 28.3333H25.5999C25.812 28.3333 26.0155 28.4211 26.1655 28.5774C26.3156 28.7337 26.3999 28.9457 26.3999 29.1667Z"/>
</mask>
<path d="M25.6567 24.3442C27.158 22.7622 28 20.6274 28 18.4029C28 16.1784 27.158 14.0436 25.6567 12.4616C24.9171 11.6818 24.0362 11.0627 23.0652 10.6401C22.0942 10.2176 21.0523 10 19.9999 10C18.9476 10 17.9057 10.2176 16.9347 10.6401C15.9636 11.0627 15.0828 11.6818 14.3432 12.4616C12.8384 14.0472 11.9961 16.1881 12 18.4178C12.0039 20.6474 12.8536 22.7851 14.364 24.365L17.2312 27.1475C17.9654 27.9037 18.9556 28.3291 19.9882 28.3319C21.0208 28.3347 22.013 27.9147 22.7511 27.1625L25.6567 24.3442ZM21.0735 22.2075C20.7399 22.3796 20.3726 22.4691 20.0003 22.4691C19.628 22.4691 19.2608 22.3796 18.9271 22.2075L17.3272 21.3742C16.9275 21.1676 16.5913 20.8487 16.3568 20.4533C16.1222 20.058 15.9986 19.6022 16 19.1375V16.6667C15.9984 16.2019 16.1218 15.7459 16.3562 15.3505C16.5907 14.955 16.9267 14.6359 17.3264 14.4292L18.9263 13.5958C19.2598 13.4232 19.6271 13.3333 19.9995 13.3333C20.3719 13.3333 20.7392 13.4232 21.0727 13.5958L22.6727 14.4292C23.0725 14.6357 23.4087 14.9548 23.6433 15.3503C23.8779 15.7458 24.0014 16.2018 23.9999 16.6667V19.1383C24.0013 19.603 23.8778 20.0587 23.6434 20.454C23.409 20.8493 23.073 21.1684 22.6735 21.375L21.0735 22.2075ZM22.3591 16.4117C22.3854 16.4939 22.3991 16.58 22.3999 16.6667V19.1383C22.4005 19.2933 22.3594 19.4454 22.2812 19.5772C22.203 19.7091 22.0908 19.8154 21.9575 19.8842L20.3575 20.7175C20.2463 20.775 20.1237 20.805 19.9995 20.805C19.8753 20.805 19.7528 20.775 19.6415 20.7175L18.0415 19.8842C17.9082 19.8152 17.7962 19.7087 17.7181 19.5767C17.64 19.4447 17.5991 19.2925 17.5999 19.1375V16.6667C17.6012 16.5816 17.615 16.4973 17.6407 16.4167L19.3847 17.325C19.5758 17.4244 19.7864 17.4762 19.9999 17.4762C20.2135 17.4762 20.4241 17.4244 20.6151 17.325L22.3591 16.4117ZM26.3999 29.1667C26.3999 29.3877 26.3156 29.5996 26.1655 29.7559C26.0155 29.9122 25.812 30 25.5999 30H14.4C14.1878 30 13.9843 29.9122 13.8343 29.7559C13.6843 29.5996 13.6 29.3877 13.6 29.1667C13.6 28.9457 13.6843 28.7337 13.8343 28.5774C13.9843 28.4211 14.1878 28.3333 14.4 28.3333H25.5999C25.812 28.3333 26.0155 28.4211 26.1655 28.5774C26.3156 28.7337 26.3999 28.9457 26.3999 29.1667Z" fill="#E5B683"/>
<path d="M25.6567 24.3442L40.51 39.6572L40.8269 39.3498L41.1308 39.0296L25.6567 24.3442ZM25.6567 12.4616L10.1781 27.1424L10.1825 27.1471L25.6567 12.4616ZM19.9999 10V31.3333V10ZM14.3432 12.4616L29.8171 27.1473L29.8218 27.1424L14.3432 12.4616ZM14.364 24.365L-1.05643 39.1068L-0.780146 39.3958L-0.493225 39.6743L14.364 24.365ZM17.2312 27.1475L32.5367 12.2865L32.3159 12.059L32.0884 11.8382L17.2312 27.1475ZM22.7511 27.1625L7.89777 11.8494L7.70821 12.0333L7.52325 12.2218L22.7511 27.1625ZM21.0735 22.2075L30.8535 41.167L30.887 41.1497L30.9205 41.1323L21.0735 22.2075ZM18.9271 22.2075L9.07245 41.1283L9.10978 41.1477L9.14719 41.167L18.9271 22.2075ZM17.3272 21.3742L27.1818 2.45337L27.1514 2.43752L27.1209 2.42177L17.3272 21.3742ZM16 19.1375L37.3332 19.1996L37.3333 19.1686V19.1375H16ZM16 16.6667H37.3333V16.6305L37.3332 16.5943L16 16.6667ZM17.3264 14.4292L27.1273 33.3778L27.1542 33.3639L27.181 33.3499L17.3264 14.4292ZM18.9263 13.5958L9.11767 -5.34887L9.09465 -5.33695L9.07165 -5.32497L18.9263 13.5958ZM19.9995 13.3333V34.6666V13.3333ZM21.0727 13.5958L30.9274 -5.32497L30.9044 -5.33695L30.8814 -5.34887L21.0727 13.5958ZM22.6727 14.4292L12.818 33.3499L12.8485 33.3658L12.8789 33.3816L22.6727 14.4292ZM23.9999 16.6667L2.66666 16.5977L2.66655 16.6322V16.6667H23.9999ZM23.9999 19.1383H2.66655V19.1711L2.66665 19.2039L23.9999 19.1383ZM22.6735 21.375L12.8725 2.42635L12.8495 2.43823L12.8266 2.45017L22.6735 21.375ZM22.3591 16.4117L42.6829 9.9268L34.9621 -14.2705L12.4618 -2.48689L22.3591 16.4117ZM22.3999 16.6667H43.7332V16.5703L43.7324 16.474L22.3999 16.6667ZM22.3999 19.1383H1.06657V19.1814L1.06674 19.2244L22.3999 19.1383ZM21.9575 19.8842L12.18 0.92338L12.1414 0.943295L12.1028 0.963367L21.9575 19.8842ZM20.3575 20.7175L30.1606 39.6651L30.1864 39.6517L30.2122 39.6383L20.3575 20.7175ZM19.6415 20.7175L9.78684 39.6383L9.81264 39.6517L9.83847 39.6651L19.6415 20.7175ZM18.0415 19.8842L27.8962 0.963367L27.8685 0.948921L27.8407 0.934556L18.0415 19.8842ZM17.5999 19.1375L38.933 19.2543L38.9333 19.1959V19.1375H17.5999ZM17.5999 16.6667L-3.73098 16.3463L-3.73339 16.5064V16.6667H17.5999ZM17.6407 16.4167L27.4954 -2.50414L5.02553 -14.2073L-2.68152 9.92693L17.6407 16.4167ZM19.3847 17.325L9.53004 36.2458L9.53265 36.2471L19.3847 17.325ZM20.6151 17.325L30.4672 36.2471L30.4898 36.2354L30.5124 36.2235L20.6151 17.325ZM41.1308 39.0296C46.4768 33.3965 49.3333 25.971 49.3333 18.4029H6.66667C6.66667 15.2838 7.83922 12.1279 10.1825 9.6587L41.1308 39.0296ZM49.3333 18.4029C49.3333 10.8348 46.4768 3.40929 41.1308 -2.22381L10.1825 27.1471C7.83921 24.6779 6.66667 21.522 6.66667 18.4029H49.3333ZM41.1353 -2.21908C38.455 -5.04506 35.2148 -7.33851 31.5777 -8.92124L14.5526 30.2015C12.8577 29.4639 11.3791 28.4087 10.1781 27.1424L41.1353 -2.21908ZM31.5777 -8.92124C27.9384 -10.505 24.0003 -11.3333 19.9999 -11.3333V31.3333C18.1042 31.3333 16.25 30.9402 14.5526 30.2015L31.5777 -8.92124ZM19.9999 -11.3333C15.9995 -11.3333 12.0615 -10.505 8.42213 -8.92124L25.4472 30.2015C23.7499 30.9402 21.8956 31.3333 19.9999 31.3333V-11.3333ZM8.42213 -8.92124C4.7851 -7.33851 1.54488 -5.04506 -1.13543 -2.21908L29.8218 27.1424C28.6207 28.4087 27.1422 29.4639 25.4472 30.2015L8.42213 -8.92124ZM-1.13073 -2.22403C-6.48947 3.42234 -9.34654 10.8692 -9.33329 18.4551L33.3333 18.3805C33.3388 21.5071 32.1662 24.6722 29.8171 27.1473L-1.13073 -2.22403ZM-9.33329 18.4551C-9.32003 26.041 -6.43681 33.4788 -1.05643 39.1068L29.7844 9.62315C32.144 12.0914 33.3279 15.2538 33.3333 18.3805L-9.33329 18.4551ZM-0.493225 39.6743L2.37395 42.4568L32.0884 11.8382L29.2212 9.0557L-0.493225 39.6743ZM1.92558 42.0085C6.56939 46.7913 13.0176 49.6464 19.9302 49.6652L20.0461 6.99867C24.8936 7.01185 29.3615 9.01623 32.5367 12.2865L1.92558 42.0085ZM19.9302 49.6652C26.8432 49.684 33.3083 46.8636 37.9789 42.1032L7.52325 12.2218C10.7178 8.96592 15.1984 6.9855 20.0461 6.99867L19.9302 49.6652ZM37.6044 42.4756L40.51 39.6572L10.8033 9.0311L7.89777 11.8494L37.6044 42.4756ZM11.2936 3.24796C13.9577 1.87372 16.9405 1.13579 20.0003 1.13579V43.8025C23.8047 43.8025 27.5221 42.8855 30.8535 41.167L11.2936 3.24796ZM20.0003 1.13579C23.0601 1.13579 26.043 1.87373 28.7071 3.24796L9.14719 41.167C12.4786 42.8854 16.1959 43.8025 20.0003 43.8025V1.13579ZM28.7818 3.2867L27.1818 2.45337L7.47246 40.2949L9.07245 41.1283L28.7818 3.2867ZM27.1209 2.42177C30.3521 4.09149 32.9456 6.60457 34.7034 9.56692L-1.98979 31.3398C0.237125 35.0927 3.5029 38.2438 7.53338 40.3265L27.1209 2.42177ZM34.7034 9.56692C36.4573 12.5228 37.3429 15.8568 37.3332 19.1996L-5.33328 19.0753C-5.34572 23.3476 -4.21287 27.5933 -1.98979 31.3398L34.7034 9.56692ZM37.3333 19.1375V16.6667H-5.33337V19.1375H37.3333ZM37.3332 16.5943C37.3445 19.9374 36.4603 23.2722 34.7075 26.229L-1.995 4.4719C-4.21667 8.21967 -5.34774 12.4663 -5.33325 16.739L37.3332 16.5943ZM34.7075 26.229C32.9508 29.1924 30.3582 31.7067 27.1273 33.3778L7.52535 -4.51951C3.49529 -2.435 0.230499 0.717665 -1.995 4.4719L34.7075 26.229ZM27.181 33.3499L28.781 32.5166L9.07165 -5.32497L7.47166 -4.49164L27.181 33.3499ZM28.735 32.5405C26.0636 33.9236 23.0704 34.6666 19.9995 34.6666V-8.00002C16.1838 -8.00002 12.456 -7.07729 9.11767 -5.34887L28.735 32.5405ZM19.9995 34.6666C16.9286 34.6666 13.9354 33.9236 11.2641 32.5405L30.8814 -5.34887C27.5431 -7.07729 23.8152 -8.00002 19.9995 -8.00002V34.6666ZM11.218 32.5166L12.818 33.3499L32.5274 -4.49164L30.9274 -5.32497L11.218 32.5166ZM12.8789 33.3816C9.6468 31.7113 7.05274 29.1972 5.29492 26.2337L41.9916 4.46689C39.7647 0.712448 36.4981 -2.43985 32.4664 -4.52325L12.8789 33.3816ZM5.29492 26.2337C3.54094 23.2767 2.65585 19.9414 2.66666 16.5977L45.3331 16.7356C45.3469 12.4621 44.2148 8.21486 41.9916 4.46689L5.29492 26.2337ZM2.66655 16.6667V19.1383H45.3332V16.6667H2.66655ZM2.66665 19.2039C2.65638 15.8617 3.54116 12.5282 5.29395 9.57245L41.9929 31.3356C44.2145 27.5893 45.3462 23.3442 45.3331 19.0728L2.66665 19.2039ZM5.29395 9.57245C7.05057 6.61028 9.64266 4.09694 12.8725 2.42635L32.4745 40.3236C36.5034 38.2398 39.7674 35.0884 41.9929 31.3356L5.29395 9.57245ZM12.8266 2.45017L11.2266 3.28267L30.9205 41.1323L32.5204 40.2998L12.8266 2.45017ZM2.03528 22.8965C1.40959 20.9356 1.08587 18.9002 1.06744 16.8594L43.7324 16.474C43.7124 14.2598 43.3611 12.0523 42.6829 9.9268L2.03528 22.8965ZM1.06657 16.6667V19.1383H43.7332V16.6667H1.06657ZM1.06674 19.2244C1.05197 15.565 2.0195 11.9195 3.93284 8.69378L40.6295 30.4606C42.6993 26.9712 43.7491 23.0216 43.7331 19.0522L1.06674 19.2244ZM3.93284 8.69378C5.85005 5.46154 8.67403 2.73129 12.18 0.92338L31.735 38.8449C35.5077 36.8995 38.5559 33.9566 40.6295 30.4606L3.93284 8.69378ZM12.1028 0.963367L10.5028 1.7967L30.2122 39.6383L31.8122 38.8049L12.1028 0.963367ZM10.5545 1.7699C13.4466 0.273549 16.6826 -0.528334 19.9995 -0.528334V42.1383C23.5649 42.1383 27.0459 41.2765 30.1606 39.6651L10.5545 1.7699ZM19.9995 -0.528334C23.3164 -0.528334 26.5524 0.27354 29.4446 1.7699L9.83847 39.6651C12.9532 41.2766 16.4342 42.1383 19.9995 42.1383V-0.528334ZM29.4962 1.7967L27.8962 0.963367L8.18686 38.8049L9.78684 39.6383L29.4962 1.7967ZM27.8407 0.934556C31.3455 2.74694 34.1669 5.48135 36.0804 8.71682L-0.644204 30.4366C1.42546 33.936 4.47096 36.8835 8.24237 38.8338L27.8407 0.934556ZM36.0804 8.71682C37.9901 11.9458 38.953 15.5937 38.933 19.2543L-3.73306 19.0207C-3.75481 22.9913 -2.71001 26.9436 -0.644204 30.4366L36.0804 8.71682ZM38.9333 19.1375V16.6667H-3.73339V19.1375H38.9333ZM38.9309 16.987C38.9008 18.9885 38.5771 20.9833 37.963 22.9064L-2.68152 9.92693C-3.34716 12.0113 -3.69836 14.1748 -3.73098 16.3463L38.9309 16.987ZM7.78606 35.3374L9.53004 36.2458L29.2394 -1.5958L27.4954 -2.50414L7.78606 35.3374ZM9.53265 36.2471C12.7393 37.9167 16.3261 38.8096 19.9999 38.8096V-3.85711C23.2466 -3.85711 26.4123 -3.06781 29.2368 -1.59716L9.53265 36.2471ZM19.9999 38.8096C23.6737 38.8096 27.2606 37.9167 30.4672 36.2471L10.763 -1.59716C13.5876 -3.06781 16.7532 -3.85711 19.9999 -3.85711V38.8096ZM30.5124 36.2235L32.2564 35.3102L12.4618 -2.48689L10.7178 -1.57355L30.5124 36.2235ZM5.06653 29.1667C5.06653 24.0045 7.02697 18.8871 10.7759 14.982L41.5552 44.5299C45.6042 40.3121 47.7332 34.7709 47.7332 29.1667H5.06653ZM10.7759 14.982C14.5532 11.0472 19.8665 8.66667 25.5999 8.66667V51.3333C31.7575 51.3333 37.4778 48.7772 41.5552 44.5299L10.7759 14.982ZM25.5999 8.66667H14.4V51.3333H25.5999V8.66667ZM14.4 8.66667C20.1333 8.66667 25.4467 11.0472 29.224 14.982L-1.55538 44.5299C2.52201 48.7772 8.2423 51.3333 14.4 51.3333V8.66667ZM29.224 14.982C32.9728 18.8871 34.9333 24.0044 34.9333 29.1667H-7.73335C-7.73335 34.7709 -5.6043 40.3122 -1.55538 44.5299L29.224 14.982ZM34.9333 29.1667C34.9333 34.3289 32.9728 39.4462 29.224 43.3513L-1.55538 13.8035C-5.6043 18.0212 -7.73335 23.5624 -7.73335 29.1667H34.9333ZM29.224 43.3513C25.4467 47.2861 20.1333 49.6667 14.4 49.6667V7C8.2423 7 2.52201 9.55616 -1.55538 13.8035L29.224 43.3513ZM14.4 49.6667H25.5999V7H14.4V49.6667ZM25.5999 49.6667C19.8665 49.6667 14.5532 47.2861 10.7759 43.3513L41.5552 13.8035C37.4778 9.55615 31.7575 7 25.5999 7V49.6667ZM10.7759 43.3513C7.02697 39.4462 5.06653 34.3289 5.06653 29.1667H47.7332C47.7332 23.5625 45.6042 18.0212 41.5552 13.8035L10.7759 43.3513Z" fill="#E5B683" mask="url(#path-2-inside-1_1601_21409)"/>
</svg>
