<svg width="40" height="40" viewBox="0 0 40 40" fill="none" xmlns="http://www.w3.org/2000/svg">
<rect width="40" height="40" rx="12" fill="#FFF1AC"/>
<mask id="path-2-inside-1_1601_21405" fill="white">
<path d="M11.0993 19.9861L14.0676 22.1125L12.9403 25.5369C12.7581 26.068 12.7558 26.6427 12.9337 27.1752C13.1116 27.7077 13.4602 28.1695 13.9275 28.4919C14.3868 28.8245 14.9434 29.0028 15.5143 29C16.0853 28.9972 16.64 28.8135 17.0959 28.4763L19.9983 26.381L22.9016 28.4739C23.3601 28.8046 23.9136 28.9843 24.4828 28.987C25.0519 28.9898 25.6072 28.8154 26.069 28.489C26.5307 28.1626 26.875 27.701 27.0524 27.1706C27.2299 26.6401 27.2312 26.0682 27.0564 25.5369L25.9291 22.1125L28.8974 19.9861C29.3553 19.6577 29.6956 19.1958 29.8699 18.6664C30.0441 18.1369 30.0434 17.567 29.8677 17.038C29.692 16.509 29.3503 16.048 28.8916 15.7209C28.4328 15.3937 27.8804 15.2171 27.3132 15.2163H23.667L22.5606 11.8337C22.3866 11.3012 22.0447 10.8367 21.5842 10.5071C21.1237 10.1776 20.5684 10 19.9983 10C19.4283 10 18.873 10.1776 18.4125 10.5071C17.952 10.8367 17.6101 11.3012 17.4361 11.8337L16.3296 15.2163H12.6868C12.1196 15.2171 11.5672 15.3937 11.1084 15.7209C10.6497 16.048 10.308 16.509 10.1323 17.038C9.95665 17.567 9.95587 18.1369 10.1301 18.6664C10.3044 19.1958 10.6447 19.6577 11.1026 19.9861H11.0993Z"/>
</mask>
<path d="M11.0993 19.9861L14.0676 22.1125L12.9403 25.5369C12.7581 26.068 12.7558 26.6427 12.9337 27.1752C13.1116 27.7077 13.4602 28.1695 13.9275 28.4919C14.3868 28.8245 14.9434 29.0028 15.5143 29C16.0853 28.9972 16.64 28.8135 17.0959 28.4763L19.9983 26.381L22.9016 28.4739C23.3601 28.8046 23.9136 28.9843 24.4828 28.987C25.0519 28.9898 25.6072 28.8154 26.069 28.489C26.5307 28.1626 26.875 27.701 27.0524 27.1706C27.2299 26.6401 27.2312 26.0682 27.0564 25.5369L25.9291 22.1125L28.8974 19.9861C29.3553 19.6577 29.6956 19.1958 29.8699 18.6664C30.0441 18.1369 30.0434 17.567 29.8677 17.038C29.692 16.509 29.3503 16.048 28.8916 15.7209C28.4328 15.3937 27.8804 15.2171 27.3132 15.2163H23.667L22.5606 11.8337C22.3866 11.3012 22.0447 10.8367 21.5842 10.5071C21.1237 10.1776 20.5684 10 19.9983 10C19.4283 10 18.873 10.1776 18.4125 10.5071C17.952 10.8367 17.6101 11.3012 17.4361 11.8337L16.3296 15.2163H12.6868C12.1196 15.2171 11.5672 15.3937 11.1084 15.7209C10.6497 16.048 10.308 16.509 10.1323 17.038C9.95665 17.567 9.95587 18.1369 10.1301 18.6664C10.3044 19.1958 10.6447 19.6577 11.1026 19.9861H11.0993Z" fill="#FFC93F"/>
<path d="M11.0993 19.9861V-1.34724H-55.3121L-1.32455 37.3285L11.0993 19.9861ZM14.0676 22.1125L34.3312 28.7832L39.2316 13.897L26.4914 4.77011L14.0676 22.1125ZM12.9403 25.5369L33.1195 32.4585L33.1625 32.3333L33.2039 32.2076L12.9403 25.5369ZM13.9275 28.4919L26.4421 11.2148L26.243 11.0706L26.0407 10.9311L13.9275 28.4919ZM17.0959 28.4763L4.60872 11.1795L4.50901 11.2514L4.41013 11.3246L17.0959 28.4763ZM19.9983 26.381L32.4735 9.07545L19.9892 0.0757494L7.51115 9.08409L19.9983 26.381ZM22.9016 28.4739L35.3839 11.1735L35.3768 11.1684L22.9016 28.4739ZM27.0564 25.5369L47.3202 18.867L47.32 18.8663L27.0564 25.5369ZM25.9291 22.1125L13.5053 4.77011L0.765051 13.897L5.66549 28.7832L25.9291 22.1125ZM28.8974 19.9861L41.3212 37.3285L41.3301 37.3221L28.8974 19.9861ZM27.3132 15.2163L27.343 -6.11698L27.3281 -6.117H27.3132V15.2163ZM23.667 15.2163L3.39079 21.8485L8.1994 36.5497H23.667V15.2163ZM22.5606 11.8337L2.28244 18.46L2.28434 18.4658L22.5606 11.8337ZM17.4361 11.8337L37.7123 18.4658L37.7142 18.46L17.4361 11.8337ZM16.3296 15.2163V36.5497H31.7973L36.6059 21.8485L16.3296 15.2163ZM12.6868 15.2163V-6.117H12.6719L12.657 -6.11698L12.6868 15.2163ZM11.1026 19.9861V41.3194H77.4554L23.5353 2.65006L11.1026 19.9861ZM-1.32455 37.3285L1.64375 39.455L26.4914 4.77011L23.5231 2.64367L-1.32455 37.3285ZM-6.19603 15.4419L-7.32331 18.8663L33.2039 32.2076L34.3312 28.7832L-6.19603 15.4419ZM-7.23897 18.6153C-8.94079 23.5768 -8.96264 28.9593 -7.30028 33.9351L33.1677 20.4152C34.4742 24.326 34.457 28.5593 33.1195 32.4585L-7.23897 18.6153ZM-7.30028 33.9351C-5.63981 38.9053 -2.41299 43.1367 1.81427 46.0526L26.0407 10.9311C29.3334 13.2023 31.863 16.5101 33.1677 20.4152L-7.30028 33.9351ZM1.41289 45.7689C5.56777 48.7785 10.5505 50.3579 15.619 50.333L15.4097 7.66689C19.3362 7.64763 23.2058 8.87062 26.4421 11.2148L1.41289 45.7689ZM15.619 50.333C20.6874 50.3082 25.6555 48.6799 29.7817 45.6281L4.41013 11.3246C7.62456 8.94711 11.4831 7.68615 15.4097 7.66689L15.619 50.333ZM29.5831 45.7732L32.4855 43.6778L7.51115 9.08409L4.60872 11.1795L29.5831 45.7732ZM7.52313 43.6865L10.4264 45.7794L35.3768 11.1684L32.4735 9.07545L7.52313 43.6865ZM10.4193 45.7742C14.5093 48.7252 19.3975 50.2963 24.3808 50.3201L24.5847 7.65394C28.4298 7.67232 32.2108 8.88405 35.3839 11.1735L10.4193 45.7742ZM24.3808 50.3201C29.364 50.3439 34.2661 48.8197 38.3832 45.9094L13.7548 11.0686C16.9484 8.81102 20.7398 7.63557 24.5847 7.65394L24.3808 50.3201ZM38.3832 45.9094C42.5061 42.995 45.6506 38.8211 47.2841 33.9376L6.82083 20.4035C8.09941 16.5809 10.5553 13.3302 13.7548 11.0686L38.3832 45.9094ZM47.2841 33.9376C48.9193 29.0488 48.9321 23.764 47.3202 18.867L6.79255 32.2069C5.53039 28.3723 5.54048 24.2314 6.82083 20.4035L47.2841 33.9376ZM47.32 18.8663L46.1927 15.4419L5.66549 28.7832L6.79278 32.2076L47.32 18.8663ZM38.3529 39.455L41.3212 37.3285L16.4736 2.64367L13.5053 4.77011L38.3529 39.455ZM41.3301 37.3221C45.4201 34.389 48.5294 30.2109 50.1339 25.3357L9.60582 11.9971C10.8618 8.18082 13.2904 4.9265 16.4647 2.65006L41.3301 37.3221ZM50.1339 25.3357C51.7402 20.4553 51.7329 15.1893 50.1135 10.3137L9.62181 23.7624C8.35383 19.9447 8.34811 15.8186 9.60582 11.9971L50.1339 25.3357ZM50.1135 10.3137C48.4958 5.44319 45.3755 1.27383 41.2781 -1.64819L16.505 33.0899C13.3251 30.8222 10.8881 27.5749 9.62181 23.7624L50.1135 10.3137ZM41.2781 -1.64819C37.1865 -4.56606 32.3094 -6.11005 27.343 -6.11698L27.2834 36.5496C23.4514 36.5443 19.6791 35.3535 16.505 33.0899L41.2781 -1.64819ZM27.3132 -6.117H23.667V36.5497H27.3132V-6.117ZM43.9432 8.58416L42.8368 5.20149L2.28434 18.4658L3.39079 21.8485L43.9432 8.58416ZM42.8387 5.20731C41.2364 0.303979 38.1128 -3.89768 33.9995 -6.84135L9.16882 27.8556C5.97652 25.5711 3.53673 22.2984 2.28244 18.46L42.8387 5.20731ZM33.9995 -6.84135C29.8921 -9.7808 24.9895 -11.3333 19.9983 -11.3333V31.3333C16.1472 31.3333 12.3552 30.136 9.16882 27.8556L33.9995 -6.84135ZM19.9983 -11.3333C15.0072 -11.3333 10.1045 -9.7808 5.99713 -6.84135L30.8278 27.8556C27.6414 30.136 23.8494 31.3333 19.9983 31.3333V-11.3333ZM5.99713 -6.84135C1.88382 -3.89768 -1.23977 0.303979 -2.84204 5.20731L37.7142 18.46C36.4599 22.2984 34.0201 25.5711 30.8278 27.8556L5.99713 -6.84135ZM-2.84014 5.20149L-3.94658 8.58416L36.6059 21.8485L37.7123 18.4658L-2.84014 5.20149ZM16.3296 -6.117H12.6868V36.5497H16.3296V-6.117ZM12.657 -6.11698C7.69062 -6.11005 2.81347 -4.56607 -1.27814 -1.64819L23.495 33.0899C20.3209 35.3535 16.5486 36.5443 12.7166 36.5496L12.657 -6.11698ZM-1.27814 -1.64819C-5.37552 1.27382 -8.49584 5.44318 -10.1135 10.3137L30.3782 23.7624C29.1119 27.5749 26.6749 30.8222 23.495 33.0899L-1.27814 -1.64819ZM-10.1135 10.3137C-11.7329 15.1893 -11.7401 20.4553 -10.1339 25.3357L30.3942 11.9971C31.6519 15.8185 31.6462 19.9447 30.3782 23.7624L-10.1135 10.3137ZM-10.1339 25.3357C-8.52942 30.2108 -5.42011 34.389 -1.33012 37.3221L23.5353 2.65006C26.7096 4.9265 29.1382 8.18082 30.3942 11.9971L-10.1339 25.3357ZM11.1026 -1.34724H11.0993V41.3194H11.1026V-1.34724Z" fill="#FFC93F" mask="url(#path-2-inside-1_1601_21405)"/>
</svg>
