<svg width="40" height="40" viewBox="0 0 40 40" fill="none" xmlns="http://www.w3.org/2000/svg">
<rect width="40" height="40" rx="12" fill="#DED7FE"/>
<mask id="path-2-inside-1_1601_21410" fill="white">
<path d="M20 30C21.9778 30 23.9112 29.4135 25.5557 28.3147C27.2002 27.2159 28.4819 25.6541 29.2388 23.8268C29.9957 21.9996 30.1937 19.9889 29.8078 18.0491C29.422 16.1093 28.4696 14.3275 27.0711 12.9289C25.6725 11.5304 23.8907 10.578 21.9509 10.1922C20.0111 9.8063 18.0004 10.0043 16.1732 10.7612C14.3459 11.5181 12.7841 12.7998 11.6853 14.4443C10.5865 16.0888 10 18.0222 10 20C10.0029 22.6513 11.0574 25.1932 12.9321 27.0679C14.8068 28.9426 17.3487 29.9971 20 30ZM20 14.1667C20.2472 14.1667 20.4889 14.24 20.6945 14.3773C20.9 14.5147 21.0602 14.7099 21.1548 14.9383C21.2495 15.1667 21.2742 15.4181 21.226 15.6605C21.1777 15.903 21.0587 16.1257 20.8839 16.3006C20.7091 16.4754 20.4863 16.5944 20.2439 16.6427C20.0014 16.6909 19.7501 16.6661 19.5216 16.5715C19.2932 16.4769 19.098 16.3167 18.9607 16.1111C18.8233 15.9056 18.75 15.6639 18.75 15.4167C18.75 15.0851 18.8817 14.7672 19.1161 14.5328C19.3505 14.2984 19.6685 14.1667 20 14.1667ZM19.1667 18.3333H20C20.442 18.3333 20.8659 18.5089 21.1785 18.8215C21.4911 19.1341 21.6667 19.558 21.6667 20V25C21.6667 25.221 21.5789 25.433 21.4226 25.5893C21.2663 25.7455 21.0543 25.8333 20.8333 25.8333C20.6123 25.8333 20.4004 25.7455 20.2441 25.5893C20.0878 25.433 20 25.221 20 25V20H19.1667C18.9457 20 18.7337 19.9122 18.5774 19.7559C18.4211 19.5996 18.3333 19.3877 18.3333 19.1667C18.3333 18.9457 18.4211 18.7337 18.5774 18.5774C18.7337 18.4211 18.9457 18.3333 19.1667 18.3333Z"/>
</mask>
<path d="M20 30C21.9778 30 23.9112 29.4135 25.5557 28.3147C27.2002 27.2159 28.4819 25.6541 29.2388 23.8268C29.9957 21.9996 30.1937 19.9889 29.8078 18.0491C29.422 16.1093 28.4696 14.3275 27.0711 12.9289C25.6725 11.5304 23.8907 10.578 21.9509 10.1922C20.0111 9.8063 18.0004 10.0043 16.1732 10.7612C14.3459 11.5181 12.7841 12.7998 11.6853 14.4443C10.5865 16.0888 10 18.0222 10 20C10.0029 22.6513 11.0574 25.1932 12.9321 27.0679C14.8068 28.9426 17.3487 29.9971 20 30ZM20 14.1667C20.2472 14.1667 20.4889 14.24 20.6945 14.3773C20.9 14.5147 21.0602 14.7099 21.1548 14.9383C21.2495 15.1667 21.2742 15.4181 21.226 15.6605C21.1777 15.903 21.0587 16.1257 20.8839 16.3006C20.7091 16.4754 20.4863 16.5944 20.2439 16.6427C20.0014 16.6909 19.7501 16.6661 19.5216 16.5715C19.2932 16.4769 19.098 16.3167 18.9607 16.1111C18.8233 15.9056 18.75 15.6639 18.75 15.4167C18.75 15.0851 18.8817 14.7672 19.1161 14.5328C19.3505 14.2984 19.6685 14.1667 20 14.1667ZM19.1667 18.3333H20C20.442 18.3333 20.8659 18.5089 21.1785 18.8215C21.4911 19.1341 21.6667 19.558 21.6667 20V25C21.6667 25.221 21.5789 25.433 21.4226 25.5893C21.2663 25.7455 21.0543 25.8333 20.8333 25.8333C20.6123 25.8333 20.4004 25.7455 20.2441 25.5893C20.0878 25.433 20 25.221 20 25V20H19.1667C18.9457 20 18.7337 19.9122 18.5774 19.7559C18.4211 19.5996 18.3333 19.3877 18.3333 19.1667C18.3333 18.9457 18.4211 18.7337 18.5774 18.5774C18.7337 18.4211 18.9457 18.3333 19.1667 18.3333Z" fill="#6B48FF"/>
<path d="M10 20H-11.3333V20.0115L-11.3333 20.0231L10 20ZM20 14.1667V35.5V14.1667ZM20 20H41.3333V-1.33333H20V20ZM20 51.3333C26.1972 51.3333 32.2551 49.4957 37.4079 46.0527L13.7035 10.5767C15.5673 9.33136 17.7585 8.66667 20 8.66667V51.3333ZM37.4079 46.0527C42.5606 42.6098 46.5767 37.7162 48.9482 31.9907L9.52936 15.6629C10.3872 13.592 11.8398 11.822 13.7035 10.5767L37.4079 46.0527ZM48.9482 31.9907C51.3198 26.2653 51.9403 19.9652 50.7313 13.8872L8.88443 22.211C8.44713 20.0126 8.67157 17.7338 9.52936 15.6629L48.9482 31.9907ZM50.7313 13.8872C49.5223 7.80911 46.5381 2.22604 42.156 -2.15601L11.9861 28.0139C10.4011 26.4289 9.32173 24.4095 8.88443 22.211L50.7313 13.8872ZM42.156 -2.15601C37.774 -6.53806 32.1909 -9.52226 26.1128 -10.7313L17.789 31.1156C15.5905 30.6783 13.5711 29.5989 11.9861 28.0139L42.156 -2.15601ZM26.1128 -10.7313C20.0348 -11.9403 13.7347 -11.3198 8.00925 -8.94822L24.3371 30.4706C22.2662 31.3284 19.9874 31.5529 17.789 31.1156L26.1128 -10.7313ZM8.00925 -8.94822C2.28384 -6.57668 -2.60976 -2.56061 -6.05272 2.59213L29.4233 26.2965C28.178 28.1602 26.408 29.6128 24.3371 30.4706L8.00925 -8.94822ZM-6.05272 2.59213C-9.49567 7.74488 -11.3333 13.8029 -11.3333 20H31.3333C31.3333 22.2415 30.6686 24.4327 29.4233 26.2965L-6.05272 2.59213ZM-11.3333 20.0231C-11.3243 28.3243 -8.02271 36.283 -2.15285 42.1528L28.017 11.983C30.1374 14.1033 31.3301 16.9783 31.3333 19.9769L-11.3333 20.0231ZM-2.15285 42.1528C3.71702 48.0227 11.6757 51.3243 19.9769 51.3333L20.0231 8.66668C23.0217 8.66992 25.8967 9.86257 28.017 11.983L-2.15285 42.1528ZM20 35.5C16.0279 35.5 12.145 34.3221 8.8423 32.1154L32.5466 -3.36069C28.8328 -5.84217 24.4666 -7.16666 20 -7.16666V35.5ZM8.8423 32.1154C5.53963 29.9086 2.96549 26.772 1.44542 23.1022L40.8643 6.7744C39.155 2.64781 36.2604 -0.879211 32.5466 -3.36069L8.8423 32.1154ZM1.44542 23.1022C-0.0746431 19.4325 -0.47236 15.3944 0.30256 11.4986L42.1494 19.8225C43.0208 15.4417 42.5736 10.901 40.8643 6.7744L1.44542 23.1022ZM0.30256 11.4986C1.07748 7.60283 2.99023 4.02432 5.79894 1.21561L35.9688 31.3855C39.1272 28.2272 41.278 24.2032 42.1494 19.8225L0.30256 11.4986ZM5.79894 1.21561C8.60764 -1.59309 12.1861 -3.50585 16.0819 -4.28077L24.4058 37.5661C28.7865 36.6947 32.8105 34.5438 35.9688 31.3855L5.79894 1.21561ZM16.0819 -4.28077C19.9777 -5.05569 24.0158 -4.65797 27.6856 -3.13791L11.3577 36.281C15.4843 37.9902 20.0251 38.4375 24.4058 37.5661L16.0819 -4.28077ZM27.6856 -3.13791C31.3553 -1.61786 34.4919 0.956271 36.6987 4.25897L1.22264 27.9633C3.70414 31.6771 7.23118 34.5717 11.3577 36.281L27.6856 -3.13791ZM36.6987 4.25897C38.9055 7.56167 40.0833 11.4446 40.0833 15.4167H-2.58334C-2.58334 19.8832 -1.25886 24.2495 1.22264 27.9633L36.6987 4.25897ZM40.0833 15.4167C40.0833 20.7431 37.9674 25.8514 34.2011 29.6177L4.03117 -0.552159C-0.204034 3.68304 -2.58334 9.42721 -2.58334 15.4167H40.0833ZM34.2011 29.6177C30.4347 33.3841 25.3264 35.5 20 35.5V-7.16666C14.0105 -7.16666 8.26637 -4.78736 4.03117 -0.552159L34.2011 29.6177ZM19.1667 39.6667H20V-3H19.1667V39.6667ZM20 39.6667C14.7841 39.6667 9.78177 37.5946 6.09356 33.9064L36.2635 3.73655C31.9501 -0.57678 26.1 -3 20 -3V39.6667ZM6.09356 33.9064C2.40536 30.2182 0.333331 25.2159 0.333331 20H43C43 13.9 40.5768 8.04987 36.2635 3.73655L6.09356 33.9064ZM0.333331 20V25H43V20H0.333331ZM0.333331 25C0.333331 19.5631 2.49314 14.3488 6.33764 10.5043L36.5075 40.6742C40.6646 36.5171 43 30.879 43 25H0.333331ZM6.33764 10.5043C10.1822 6.65979 15.3964 4.5 20.8333 4.5V47.1667C26.7123 47.1667 32.3504 44.8313 36.5075 40.6742L6.33764 10.5043ZM20.8333 4.5C26.2702 4.5 31.4845 6.65979 35.329 10.5043L5.15913 40.6742C9.31621 44.8313 14.9544 47.1667 20.8333 47.1667V4.5ZM35.329 10.5043C39.1735 14.3488 41.3333 19.5631 41.3333 25H-1.33334C-1.33334 30.879 1.00207 36.5171 5.15913 40.6742L35.329 10.5043ZM41.3333 25V20H-1.33334V25H41.3333ZM20 -1.33333H19.1667V41.3333H20V-1.33333ZM19.1667 -1.33333C24.6036 -1.33333 29.8179 0.826494 33.6624 4.67098L3.49247 34.8409C7.64951 38.9979 13.2877 41.3333 19.1667 41.3333V-1.33333ZM33.6624 4.67098C37.5068 8.51546 39.6667 13.7297 39.6667 19.1667H-3C-3 25.0457 -0.664581 30.6838 3.49247 34.8409L33.6624 4.67098ZM39.6667 19.1667C39.6667 24.6036 37.5068 29.8179 33.6624 33.6624L3.49247 3.49247C-0.664581 7.64951 -3 13.2877 -3 19.1667H39.6667ZM33.6624 33.6624C29.8179 37.5068 24.6036 39.6667 19.1667 39.6667V-3C13.2877 -3 7.64951 -0.664577 3.49247 3.49247L33.6624 33.6624Z" fill="#6B48FF" mask="url(#path-2-inside-1_1601_21410)"/>
</svg>
