<svg width="20" height="20" viewBox="0 0 20 20" fill="none" xmlns="http://www.w3.org/2000/svg">
<path d="M18.6297 5.5197L18.6149 5.49411C18.5944 5.45157 18.5707 5.41083 18.5443 5.37212L15.7619 0.56172C15.5615 0.215235 15.1884 0 14.7881 0H5.21238C4.81148 0 4.43805 0.215743 4.23769 0.563165L1.40995 5.46888C1.38448 5.5131 1.36612 5.55935 1.35315 5.60634C1.31335 5.7138 1.29147 5.82993 1.29147 5.95111V18.6216C1.29147 19.3816 1.9098 20 2.6698 20H17.3302C18.0902 20 18.7085 19.3816 18.7085 18.6216V5.90466C18.7085 5.88767 18.708 5.87079 18.7071 5.854C18.715 5.74122 18.6906 5.62493 18.6297 5.5197ZM10.6062 1.17231H14.7608L16.9496 4.95642H10.6062V1.17231ZM5.23969 1.17231H9.43388V4.95642H3.05843L5.23969 1.17231ZM17.5362 18.6217C17.5362 18.7353 17.4437 18.8277 17.3302 18.8277H2.6698C2.5562 18.8277 2.46378 18.7353 2.46378 18.6217V6.12872H17.5362V18.6217Z" fill="#8134AF"/>
<path d="M12.6608 10.5479C12.4319 10.319 12.0607 10.319 11.8318 10.5479L9.21455 13.1652L8.20815 12.1588C7.97928 11.9299 7.60811 11.9299 7.3792 12.1588C7.15029 12.3876 7.15029 12.7588 7.3792 12.9877L8.80014 14.4086C8.91459 14.523 9.06463 14.5803 9.21459 14.5803C9.36456 14.5803 9.51463 14.523 9.62905 14.4086L12.6608 11.3769C12.8897 11.148 12.8897 10.7768 12.6608 10.5479Z" fill="#8134AF"/>
</svg>
