<svg width="20" height="20" viewBox="0 0 20 20" fill="none" xmlns="http://www.w3.org/2000/svg">
<path d="M17.5 2.5L14.9237 4.93506H1.66666L3.75988 10.8333H13.3135" stroke="#8134AF" stroke-width="2" stroke-miterlimit="10" stroke-linecap="round" stroke-linejoin="round"/>
<path d="M14.5 15C14.5 15.6443 13.9777 16.1667 13.3333 16.1667C12.689 16.1667 12.1667 15.6443 12.1667 15C12.1667 14.3557 12.689 13.8333 13.3333 13.8333C13.9777 13.8333 14.5 14.3557 14.5 15Z" fill="#8134AF" stroke="#8134AF"/>
<path d="M6.16668 15C6.16668 15.6443 5.64434 16.1667 5.00001 16.1667C4.35568 16.1667 3.83334 15.6443 3.83334 15C3.83334 14.3557 4.35568 13.8333 5.00001 13.8333C5.64434 13.8333 6.16668 14.3557 6.16668 15Z" fill="#8134AF" stroke="#8134AF"/>
</svg>
