<svg width="20" height="20" viewBox="0 0 20 20" fill="none" xmlns="http://www.w3.org/2000/svg">
<path d="M17.5 9.375H13.125C11.7537 9.375 10.625 10.5037 10.625 11.875C10.625 13.2463 11.7537 14.375 13.125 14.375H15.625V16.25C15.625 16.5931 15.3431 16.875 15 16.875H5C3.97125 16.875 3.125 16.0288 3.125 15V5.625C3.125 4.59625 3.97125 3.75 5 3.75H6.25C6.59312 3.75 6.875 3.46812 6.875 3.125C6.875 2.78187 6.59312 2.5 6.25 2.5H5C3.28562 2.5 1.875 3.91062 1.875 5.625V15C1.875 16.7144 3.28562 18.125 5 18.125H15C16.0288 18.125 16.875 17.2788 16.875 16.25V14.375H17.5C17.8431 14.375 18.125 14.0931 18.125 13.75V10C18.125 9.65688 17.8431 9.375 17.5 9.375ZM16.875 13.125H13.125C12.4394 13.125 11.875 12.5606 11.875 11.875C11.875 11.1894 12.4394 10.625 13.125 10.625H16.875V13.125Z" fill="#8134AF"/>
<path d="M4.775 5.04374C4.0775 5.34812 4.30812 6.24999 5 6.24999H15C15.3431 6.24999 15.625 6.53187 15.625 6.87499V7.49999C15.625 7.84312 15.9069 8.12499 16.25 8.12499C16.5931 8.12499 16.875 7.84312 16.875 7.49999V6.87499C16.8744 6.37812 16.6769 5.90124 16.325 5.54999C15.9737 5.19812 15.4969 5.00062 15 4.99999H14.8L13.7062 2.26874C13.5794 1.95312 13.2169 1.79562 12.9 1.91874L4.775 5.04374ZM13.45 4.99999H8.36875L12.775 3.30624L13.45 4.99999Z" fill="#8134AF"/>
</svg>
