<svg width="16" height="16" viewBox="0 0 16 16" fill="none" xmlns="http://www.w3.org/2000/svg">
<path d="M15.7241 13.2414H0.275874C0.123531 13.2414 0 13.1178 0 12.9655V3.03448C0 2.88214 0.123531 2.75861 0.275874 2.75861H15.7241C15.8765 2.75861 16 2.88214 16 3.03448V12.9655C16 13.1179 15.8764 13.2414 15.7241 13.2414Z" fill="#41479B"/>
<path d="M8.11206 3.9589L8.22269 4.29056L8.57229 4.29327C8.61757 4.29362 8.63632 4.35137 8.59991 4.37827L8.31866 4.58596L8.4241 4.91927C8.43775 4.9624 8.38863 4.99815 8.35178 4.9718L8.06737 4.76849L7.78297 4.9718C7.74615 4.99812 7.697 4.96243 7.71065 4.91927L7.81609 4.58596L7.53484 4.37827C7.49843 4.35137 7.51718 4.29362 7.56246 4.29327L7.91206 4.29056L8.02269 3.9589C8.03697 3.91596 8.09775 3.91596 8.11206 3.9589Z" fill="#FFE15A"/>
<path d="M8.11206 11.0796L8.22269 11.4112L8.57229 11.4139C8.61757 11.4143 8.63632 11.472 8.59991 11.4989L8.31866 11.7066L8.4241 12.0399C8.43775 12.0831 8.38863 12.1188 8.35178 12.0925L8.06737 11.8892L7.78297 12.0925C7.74615 12.1188 7.697 12.0831 7.71065 12.0399L7.81609 11.7066L7.53484 11.4989C7.49843 11.472 7.51718 11.4143 7.56246 11.4139L7.91206 11.4112L8.02269 11.0796C8.03697 11.0366 8.09775 11.0366 8.11206 11.0796Z" fill="#FFE15A"/>
<path d="M11.6726 7.51926L11.7832 7.85092L12.1328 7.85364C12.1781 7.85399 12.1969 7.91174 12.1604 7.93864L11.8792 8.14633L11.9846 8.47965C11.9983 8.52278 11.9492 8.55853 11.9123 8.53218L11.6279 8.32887L11.3435 8.53218C11.3067 8.5585 11.2575 8.52281 11.2712 8.47965L11.3766 8.14633L11.0954 7.93864C11.059 7.91174 11.0777 7.85399 11.123 7.85364L11.4726 7.85092L11.5832 7.51926C11.5975 7.47633 11.6583 7.47633 11.6726 7.51926Z" fill="#FFE15A"/>
<path d="M4.55151 7.51926L4.66213 7.85092L5.01173 7.85364C5.05701 7.85399 5.07576 7.91174 5.03935 7.93864L4.7581 8.14633L4.86354 8.47965C4.8772 8.52278 4.82807 8.55853 4.79123 8.53218L4.50682 8.32887L4.22241 8.53218C4.1856 8.5585 4.13645 8.52281 4.1501 8.47965L4.25554 8.14633L3.97429 7.93864C3.93788 7.91174 3.95663 7.85399 4.00192 7.85364L4.35151 7.85092L4.46213 7.51926C4.47645 7.47633 4.53723 7.47633 4.55151 7.51926Z" fill="#FFE15A"/>
<path d="M5.08666 5.66001L5.19729 5.99167L5.54688 5.99439C5.59216 5.99473 5.61091 6.05248 5.57451 6.07938L5.29326 6.28707L5.39869 6.62038C5.41235 6.66351 5.36323 6.69926 5.32638 6.67291L5.04198 6.4696L4.75757 6.67291C4.72076 6.69923 4.6716 6.66354 4.68526 6.62038L4.7907 6.28707L4.50945 6.07938C4.47304 6.05248 4.49179 5.99473 4.53707 5.99439L4.88666 5.99167L4.99729 5.66001C5.0116 5.61707 5.07232 5.61707 5.08666 5.66001Z" fill="#FFE15A"/>
<path d="M11.2527 9.22031L11.3633 9.55197L11.7129 9.55469C11.7582 9.55503 11.7769 9.61278 11.7405 9.63969L11.4593 9.84738L11.5647 10.1807C11.5784 10.2238 11.5292 10.2596 11.4924 10.2332L11.208 10.0299L10.9236 10.2332C10.8868 10.2595 10.8376 10.2238 10.8513 10.1807L10.9567 9.84738L10.6755 9.63969C10.6391 9.61278 10.6578 9.55503 10.7031 9.55469L11.0527 9.55197L11.1633 9.22031C11.1776 9.17738 11.2384 9.17738 11.2527 9.22031Z" fill="#FFE15A"/>
<path d="M9.94994 4.35679L10.0606 4.68844L10.4102 4.69116C10.4554 4.69151 10.4742 4.74926 10.4378 4.77616L10.1565 4.98385L10.262 5.31716C10.2756 5.36029 10.2265 5.39604 10.1897 5.36969L9.90526 5.16638L9.62085 5.36969C9.58404 5.396 9.53488 5.36032 9.54854 5.31716L9.65398 4.98385L9.37273 4.77616C9.33632 4.74926 9.35507 4.69151 9.40035 4.69116L9.74995 4.68844L9.86057 4.35679C9.87485 4.31385 9.93557 4.31385 9.94994 4.35679Z" fill="#FFE15A"/>
<path d="M6.3894 10.5235L6.50002 10.8552L6.84962 10.8579C6.8949 10.8583 6.91365 10.916 6.87724 10.9429L6.59599 11.1506L6.70143 11.4839C6.71509 11.527 6.66596 11.5628 6.62912 11.5364L6.34471 11.3331L6.06031 11.5364C6.02349 11.5628 5.97434 11.5271 5.98799 11.4839L6.09343 11.1506L5.81218 10.9429C5.77577 10.916 5.79452 10.8583 5.83981 10.8579L6.1894 10.8552L6.30002 10.5235C6.31434 10.4806 6.37505 10.4806 6.3894 10.5235Z" fill="#FFE15A"/>
<path d="M11.1633 5.66001L11.0527 5.99167L10.7031 5.99439C10.6578 5.99473 10.6391 6.05248 10.6755 6.07938L10.9567 6.28707L10.8513 6.62038C10.8376 6.66351 10.8867 6.69926 10.9236 6.67291L11.208 6.4696L11.4924 6.67291C11.5292 6.69923 11.5784 6.66354 11.5647 6.62038L11.4593 6.28707L11.7405 6.07938C11.7769 6.05248 11.7582 5.99473 11.7129 5.99439L11.3633 5.99167L11.2527 5.66001C11.2384 5.61707 11.1776 5.61707 11.1633 5.66001Z" fill="#FFE15A"/>
<path d="M4.99729 9.22031L4.88666 9.55197L4.53707 9.55469C4.49179 9.55503 4.47304 9.61278 4.50945 9.63969L4.7907 9.84738L4.68526 10.1807C4.6716 10.2238 4.72073 10.2596 4.75757 10.2332L5.04198 10.0299L5.32638 10.2332C5.3632 10.2595 5.41235 10.2238 5.39869 10.1807L5.29326 9.84738L5.57451 9.63969C5.61091 9.61278 5.59216 9.55503 5.54688 9.55469L5.19729 9.55197L5.08666 9.22031C5.07232 9.17738 5.0116 9.17738 4.99729 9.22031Z" fill="#FFE15A"/>
<path d="M6.30002 4.35679L6.1894 4.68844L5.83981 4.69116C5.79452 4.69151 5.77577 4.74926 5.81218 4.77616L6.09343 4.98385L5.98799 5.31716C5.97434 5.36029 6.02346 5.39604 6.06031 5.36969L6.34471 5.16638L6.62912 5.36969C6.66593 5.396 6.71509 5.36032 6.70143 5.31716L6.59599 4.98385L6.87724 4.77616C6.91365 4.74926 6.8949 4.69151 6.84962 4.69116L6.50002 4.68844L6.3894 4.35679C6.37505 4.31385 6.31434 4.31385 6.30002 4.35679Z" fill="#FFE15A"/>
<path d="M9.86057 10.5235L9.74995 10.8552L9.40035 10.8579C9.35507 10.8583 9.33632 10.916 9.37273 10.9429L9.65398 11.1506L9.54854 11.4839C9.53488 11.527 9.58401 11.5628 9.62085 11.5364L9.90526 11.3331L10.1897 11.5364C10.2265 11.5628 10.2756 11.5271 10.262 11.4839L10.1565 11.1506L10.4378 10.9429C10.4742 10.916 10.4554 10.8583 10.4102 10.8579L10.0606 10.8552L9.94995 10.5235C9.9356 10.4806 9.87488 10.4806 9.86057 10.5235Z" fill="#FFE15A"/>
</svg>
