<svg width="16" height="16" viewBox="0 0 16 16" fill="none" xmlns="http://www.w3.org/2000/svg">
<path d="M15.7241 13.2414H0.275874C0.123531 13.2414 0 13.1178 0 12.9655V3.03448C0 2.88214 0.123531 2.75861 0.275874 2.75861H15.7241C15.8765 2.75861 16 2.88214 16 3.03448V12.9655C16 13.1179 15.8764 13.2414 15.7241 13.2414Z" fill="#FF4B55"/>
<path d="M10.9183 8.82275C10.9183 8.82275 10.3688 8.73113 9.96168 8.39353C9.84159 8.29394 9.6673 8.21785 9.49755 8.1616C9.63402 8.15553 9.77877 8.15935 9.91555 8.187C10.4822 8.30157 11.0316 8.02653 11.0316 8.02653C11.0316 8.02653 10.4772 8.08247 9.9958 7.86363C9.86558 7.80444 9.69671 7.77657 9.53187 7.76482C9.65043 7.73072 9.77624 7.70404 9.90046 7.69716C10.4777 7.66516 10.94 7.2605 10.94 7.2605C10.94 7.2605 10.4177 7.45438 9.89662 7.36397C9.74487 7.33763 9.55859 7.35735 9.38524 7.39219C9.49927 7.32057 9.62484 7.25363 9.75512 7.21054C10.3039 7.02894 10.6446 6.5176 10.6446 6.5176C10.6446 6.5176 10.191 6.84113 9.66437 6.88991C9.50799 6.90438 9.3299 6.9746 9.16918 7.05544C9.2619 6.95379 9.36774 6.85316 9.48493 6.77541C9.96658 6.45576 10.1606 5.87279 10.1606 5.87279C10.1606 5.87279 9.80821 6.30432 9.31299 6.49001C9.17799 6.54063 9.03809 6.64201 8.91243 6.75126C8.97249 6.64207 9.04309 6.53285 9.12696 6.43904C9.51224 6.00807 9.55265 5.39501 9.55265 5.39501C9.55265 5.39501 9.32068 5.90157 8.88849 6.20635C8.76249 6.29523 8.64474 6.4411 8.54681 6.58854C8.57674 6.4571 8.61809 6.32079 8.67974 6.19794C8.93909 5.68129 8.81799 5.07895 8.81799 5.07895C8.81799 5.07895 8.72637 5.62851 8.38878 6.0356C8.28918 6.15569 8.21309 6.32998 8.15684 6.49979C8.15078 6.36332 8.15459 6.21857 8.18224 6.08179C8.29681 5.51516 8.02178 4.96576 8.02178 4.96576C8.02178 4.96576 8.07771 5.5201 7.85884 6.00154C7.79965 6.13176 7.77178 6.30063 7.76003 6.46548C7.72593 6.34691 7.69924 6.2211 7.69237 6.09688C7.66037 5.51966 7.25571 5.05735 7.25571 5.05735C7.25571 5.05735 7.44959 5.57966 7.35918 6.10073C7.33284 6.25248 7.35256 6.43876 7.3874 6.61213C7.31578 6.4981 7.24884 6.37254 7.20575 6.24223C7.02415 5.69341 6.51281 5.35279 6.51281 5.35279C6.51281 5.35279 6.83634 5.80638 6.88512 6.33298C6.89959 6.48935 6.96981 6.66751 7.05068 6.82819C6.94903 6.73547 6.8484 6.62963 6.77062 6.51241C6.45097 6.03076 5.868 5.83676 5.868 5.83676C5.868 5.83676 6.29953 6.18916 6.48522 6.68438C6.53584 6.81938 6.63722 6.95932 6.74647 7.08494C6.63728 7.02488 6.52806 6.95429 6.43425 6.87041C6.00328 6.48513 5.39022 6.44473 5.39022 6.44473C5.39022 6.44473 5.89678 6.67669 6.20156 7.10891C6.29037 7.23488 6.43628 7.35266 6.58365 7.4506C6.45225 7.42066 6.31594 7.37932 6.19312 7.31766C5.67647 7.05832 5.07413 7.17941 5.07413 7.17941C5.07413 7.17941 5.62369 7.27104 6.03078 7.60863C6.15087 7.70822 6.32515 7.78432 6.49497 7.84057C6.3585 7.84663 6.21375 7.84282 6.07697 7.81516C5.51034 7.7006 4.96094 7.97563 4.96094 7.97563C4.96094 7.97563 5.51528 7.91969 5.99672 8.13857C6.12694 8.19775 6.29581 8.22563 6.46065 8.23738C6.34209 8.27147 6.21628 8.29816 6.09206 8.30503C5.51484 8.33703 5.05253 8.74169 5.05253 8.74169C5.05253 8.74169 5.57484 8.54781 6.0959 8.63822C6.24765 8.66456 6.43393 8.64485 6.60731 8.61C6.49328 8.68163 6.36772 8.74856 6.2374 8.79166C5.68859 8.97325 5.34797 9.48459 5.34797 9.48459C5.34797 9.48459 5.80156 9.16106 6.32815 9.11228C6.48453 9.09781 6.66268 9.0276 6.82337 8.94672C6.73065 9.04838 6.62481 9.149 6.50759 9.22678C6.02594 9.54644 5.8319 10.1294 5.8319 10.1294C5.8319 10.1294 6.18431 9.69788 6.67953 9.51219C6.8145 9.46156 6.95443 9.36019 7.08006 9.25094C7.02003 9.36009 6.9494 9.46934 6.86559 9.56313C6.48031 9.99409 6.4399 10.6072 6.4399 10.6072C6.4399 10.6072 6.67187 10.1006 7.10409 9.79581C7.23009 9.70694 7.34784 9.56106 7.44578 9.41369C7.41584 9.54513 7.3745 9.68141 7.31284 9.80425C7.0535 10.3209 7.17459 10.9232 7.17459 10.9232C7.17459 10.9232 7.26621 10.3737 7.60381 9.96659C7.7034 9.8465 7.77949 9.67222 7.83574 9.50241C7.84181 9.63894 7.838 9.78366 7.81034 9.92044C7.69578 10.4871 7.97081 11.0364 7.97081 11.0364C7.97081 11.0364 7.91487 10.4821 8.13374 10.0007C8.19293 9.87047 8.22081 9.70156 8.23256 9.53675C8.26665 9.65531 8.29334 9.78113 8.30021 9.90534C8.33221 10.4826 8.73687 10.9449 8.73687 10.9449C8.73687 10.9449 8.54299 10.4225 8.6334 9.9015C8.65974 9.74975 8.64002 9.56347 8.60518 9.39013C8.67681 9.50416 8.74374 9.62969 8.78684 9.76C8.96843 10.3088 9.47977 10.6494 9.47977 10.6494C9.47977 10.6494 9.15624 10.1958 9.10746 9.66922C9.09299 9.51284 9.02277 9.33469 8.9419 9.174C9.04356 9.26672 9.14418 9.37256 9.22196 9.48978C9.54162 9.97144 10.1246 10.1655 10.1246 10.1655C10.1246 10.1655 9.69305 9.81306 9.50737 9.31784C9.45674 9.18288 9.35537 9.04294 9.24612 8.91731C9.35527 8.97735 9.46449 9.04797 9.5583 9.13178C9.98927 9.51706 10.6023 9.55747 10.6023 9.55747C10.6023 9.55747 10.0958 9.3255 9.79099 8.89328C9.70212 8.76728 9.55624 8.6495 9.4088 8.5516C9.54024 8.58153 9.67652 8.62288 9.79937 8.68453C10.316 8.94385 10.9183 8.82275 10.9183 8.82275ZM7.99978 9.40078C7.22625 9.40078 6.59918 8.77372 6.59918 8.00019C6.59918 7.22666 7.22625 6.5996 7.99978 6.5996C8.77331 6.5996 9.40037 7.22666 9.40037 8.00019C9.40037 8.77372 8.77331 9.40078 7.99978 9.40078Z" fill="#FFE15A"/>
<path d="M7.55475 7.43336C7.58462 7.41005 7.61434 7.38664 7.64453 7.36583C7.44609 7.27558 7.26747 7.23224 7.14216 7.21283C7.12222 7.23452 7.10422 7.2578 7.08594 7.28092C7.209 7.30483 7.37434 7.35045 7.55475 7.43336Z" fill="#FFE15A"/>
<path d="M7.20312 7.15103C7.33778 7.16625 7.53272 7.20635 7.749 7.29938C7.78525 7.27775 7.82131 7.25863 7.85744 7.24016C7.62391 7.14428 7.41309 7.10857 7.268 7.09753C7.24619 7.11522 7.22356 7.13185 7.20312 7.15103Z" fill="#FFE15A"/>
<path d="M7.90455 7.80022C7.87661 7.77384 7.84833 7.74887 7.8198 7.72528C7.55758 7.97484 7.32817 8.33881 7.22461 8.8669C7.26227 8.90059 7.29964 8.93465 7.34142 8.96331C7.41752 8.42622 7.64055 8.0555 7.90455 7.80022Z" fill="#FFE15A"/>
<path d="M7.80292 7.56828C7.83264 7.54437 7.86233 7.52037 7.89245 7.499C7.85577 7.47559 7.8192 7.45503 7.78277 7.435C7.75155 7.45637 7.7203 7.47706 7.68945 7.50109C7.7272 7.52187 7.76495 7.544 7.80292 7.56828Z" fill="#FFE15A"/>
<path d="M8.52734 7.50065C8.75216 7.69812 8.95766 7.97618 9.10387 8.36168C9.14141 8.24721 9.16678 8.12721 9.16678 8.00021C9.16678 7.75909 9.0935 7.53512 8.96822 7.34912C8.85228 7.37218 8.69662 7.41725 8.52734 7.50065Z" fill="#FFE15A"/>
<path d="M7.91211 7.64328C7.94139 7.66503 7.97008 7.6896 7.99889 7.71375C8.02767 7.68956 8.05636 7.66503 8.08567 7.64328C8.05686 7.61928 8.02811 7.59566 7.99889 7.5741C7.96967 7.59569 7.94095 7.61928 7.91211 7.64328Z" fill="#FFE15A"/>
<path d="M7.99889 7.3053C7.96223 7.32389 7.92555 7.34486 7.88867 7.36667C7.92536 7.38595 7.96198 7.40664 7.99889 7.4293C8.0358 7.40667 8.07245 7.38598 8.10911 7.36667C8.07223 7.34483 8.03555 7.32389 7.99889 7.3053Z" fill="#FFE15A"/>
<path d="M7.09787 8.73207C7.22134 8.22786 7.45409 7.88242 7.71456 7.64479C7.67815 7.61908 7.64187 7.59548 7.6055 7.57367C7.35484 7.79408 7.12803 8.11257 6.98828 8.57145C7.0205 8.62839 7.05691 8.68167 7.09787 8.73207Z" fill="#FFE15A"/>
<path d="M7.4715 7.50062C7.30222 7.41719 7.14656 7.37219 7.03059 7.34906C6.90531 7.53506 6.83203 7.75903 6.83203 8.00015C6.83203 8.12715 6.85741 8.24715 6.89494 8.36162C7.04119 7.97612 7.24666 7.69809 7.4715 7.50062Z" fill="#FFE15A"/>
<path d="M7.99966 7.17432C8.24797 7.07173 8.47703 7.03529 8.63993 7.02566C8.45597 6.90454 8.23637 6.83301 7.99966 6.83301C7.76294 6.83301 7.54334 6.90457 7.35938 7.02566C7.52228 7.03529 7.75134 7.07169 7.99966 7.17432Z" fill="#FFE15A"/>
<path d="M7.99897 7.89893C7.76619 8.15689 7.57406 8.52727 7.51172 9.0577C7.66041 9.12639 7.82444 9.16733 7.99897 9.16733C8.17353 9.16733 8.33753 9.12639 8.48622 9.0577C8.42387 8.5273 8.23175 8.15689 7.99897 7.89893Z" fill="#FFE15A"/>
<path d="M8.39422 7.57367C8.35787 7.59554 8.32159 7.61908 8.28516 7.64479C8.54559 7.88239 8.77837 8.22786 8.90184 8.73207C8.94281 8.68164 8.97922 8.62839 9.01144 8.57145C8.87172 8.11261 8.64487 7.79408 8.39422 7.57367Z" fill="#FFE15A"/>
<path d="M8.77564 8.8669C8.67208 8.33881 8.44267 7.97487 8.18045 7.72528C8.15189 7.74887 8.12364 7.77384 8.0957 7.80022C8.3597 8.0555 8.58273 8.42622 8.6588 8.96328C8.70061 8.93465 8.73798 8.90059 8.77564 8.8669Z" fill="#FFE15A"/>
<path d="M8.14258 7.24013C8.1787 7.2586 8.2148 7.27775 8.25102 7.29935C8.4673 7.20632 8.66223 7.16622 8.79689 7.151C8.77645 7.13182 8.75383 7.11519 8.73201 7.09747C8.58692 7.10857 8.37611 7.14429 8.14258 7.24013Z" fill="#FFE15A"/>
<path d="M8.19695 7.56828C8.23492 7.544 8.27267 7.5219 8.31042 7.50109C8.27961 7.47706 8.24833 7.45637 8.21711 7.435C8.18067 7.45506 8.14414 7.47559 8.10742 7.499C8.13752 7.52037 8.16723 7.5444 8.19695 7.56828Z" fill="#FFE15A"/>
<path d="M8.44336 7.43339C8.62377 7.35048 8.78911 7.30486 8.91211 7.28098C8.89383 7.25786 8.87586 7.23455 8.85589 7.21289C8.73058 7.2323 8.55195 7.27561 8.35352 7.36589C8.38377 7.38664 8.41352 7.41008 8.44336 7.43339Z" fill="#FFE15A"/>
</svg>
