<svg width="16" height="16" viewBox="0 0 16 16" fill="none" xmlns="http://www.w3.org/2000/svg">
<path d="M15.7241 13.4828H0.275874C0.123531 13.4828 0 13.3592 0 13.2069V3.27587C0 3.12353 0.123531 3 0.275874 3H15.7241C15.8765 3 16 3.12353 16 3.27587V13.2069C16 13.3593 15.8764 13.4828 15.7241 13.4828Z" fill="#F5F5F5"/>
<path d="M16 3.8064H0V3.27587C0 3.12353 0.123531 3 0.275874 3H15.7241C15.8765 3 16 3.12353 16 3.27587L16 3.8064Z" fill="#FF4B55"/>
<path d="M16 6.22546H0V7.03184H16V6.22546Z" fill="#FF4B55"/>
<path d="M16 4.61267H0V5.41904H16V4.61267Z" fill="#FF4B55"/>
<path d="M16 8.6446H0.275874C0.123531 8.6446 0 8.52107 0 8.36873V7.8382H16V8.6446Z" fill="#FF4B55"/>
<path d="M16 11.0639H0V11.8703H16V11.0639Z" fill="#FF4B55"/>
<path d="M15.7241 13.4828H0.275874C0.123531 13.4828 0 13.3592 0 13.2069V12.6764H16V13.2069C16 13.3593 15.8764 13.4828 15.7241 13.4828Z" fill="#FF4B55"/>
<path d="M16 9.45111H0V10.2575H16V9.45111Z" fill="#FF4B55"/>
<path d="M7.17239 3H0.275874C0.123531 3 0 3.1235 0 3.27584V8.36864C0 8.52098 0.123531 8.64451 0.275874 8.64451H7.17242C7.32477 8.64451 7.4483 8.52098 7.4483 8.36864V3.27584C7.44827 3.1235 7.32474 3 7.17239 3Z" fill="#41479B"/>
<path d="M0.774573 3.6332L0.835635 3.81633L1.02867 3.8178C1.05367 3.81801 1.06401 3.84989 1.04392 3.86473L0.888635 3.97942L0.946885 4.16345C0.954448 4.18726 0.927292 4.20701 0.906948 4.19245L0.749917 4.08023L0.592886 4.19248C0.572542 4.20701 0.545449 4.18729 0.552949 4.16348L0.611198 3.97945L0.455917 3.86476C0.435824 3.84989 0.446167 3.81805 0.471167 3.81783L0.664198 3.81636L0.725261 3.63323C0.733136 3.60948 0.766636 3.60948 0.774573 3.6332Z" fill="#F5F5F5"/>
<path d="M0.774573 4.59113L0.835635 4.77425L1.02867 4.77572C1.05367 4.77594 1.06401 4.80781 1.04392 4.82266L0.888635 4.93734L0.946885 5.12137C0.954448 5.14519 0.927292 5.16494 0.906948 5.15037L0.749917 5.03815L0.592886 5.1504C0.572542 5.16494 0.545449 5.14522 0.552949 5.1214L0.611198 4.93737L0.455917 4.82269C0.435824 4.80781 0.446167 4.77597 0.471167 4.77575L0.664198 4.77428L0.725261 4.59116C0.733136 4.56744 0.766636 4.56744 0.774573 4.59113Z" fill="#F5F5F5"/>
<path d="M0.774573 5.54907L0.835635 5.7322L1.02867 5.73367C1.05367 5.73389 1.06401 5.76576 1.04392 5.78061L0.888635 5.8953L0.946885 6.07933C0.954448 6.10314 0.927292 6.12289 0.906948 6.10833L0.749917 5.99611L0.592886 6.10836C0.572542 6.12289 0.545449 6.10317 0.552949 6.07936L0.611198 5.89533L0.455917 5.78064C0.435824 5.76576 0.446167 5.73392 0.471167 5.7337L0.664198 5.73223L0.725261 5.5491C0.733136 5.52539 0.766636 5.52539 0.774573 5.54907Z" fill="#F5F5F5"/>
<path d="M0.774573 6.50704L0.835635 6.69017L1.02867 6.69164C1.05367 6.69186 1.06401 6.72373 1.04392 6.73857L0.888635 6.85326L0.946885 7.03729C0.954448 7.06111 0.927292 7.08086 0.906948 7.06629L0.749917 6.95407L0.592886 7.06632C0.572542 7.08086 0.545449 7.06114 0.552949 7.03733L0.611198 6.85329L0.455917 6.73861C0.435824 6.72373 0.446167 6.69189 0.471167 6.69167L0.664198 6.6902L0.725261 6.50707C0.733136 6.48332 0.766636 6.48332 0.774573 6.50704Z" fill="#F5F5F5"/>
<path d="M0.774573 7.46495L0.835635 7.64808L1.02867 7.64955C1.05367 7.64977 1.06401 7.68164 1.04392 7.69649L0.888635 7.81118L0.946885 7.99521C0.954448 8.01902 0.927292 8.03877 0.906948 8.02421L0.749917 7.91199L0.592886 8.02424C0.572542 8.03877 0.545449 8.01905 0.552949 7.99524L0.611198 7.81121L0.455917 7.69652C0.435824 7.68164 0.446167 7.6498 0.471167 7.64958L0.664198 7.64811L0.725261 7.46498C0.733136 7.4412 0.766636 7.4412 0.774573 7.46495Z" fill="#F5F5F5"/>
<path d="M1.51871 4.10285L1.57977 4.28597L1.77281 4.28744C1.79781 4.28766 1.80815 4.31954 1.78806 4.33438L1.63277 4.44907L1.69102 4.6331C1.69859 4.65691 1.67143 4.67666 1.65109 4.6621L1.49406 4.54985L1.33703 4.6621C1.31668 4.67663 1.28959 4.65691 1.29709 4.6331L1.35534 4.44907L1.20006 4.33438C1.17996 4.3195 1.19031 4.28766 1.21531 4.28744L1.40834 4.28597L1.4694 4.10285C1.47724 4.07916 1.51081 4.07916 1.51871 4.10285Z" fill="#F5F5F5"/>
<path d="M1.51871 5.06082L1.57977 5.24394L1.77281 5.24541C1.79781 5.24563 1.80815 5.2775 1.78806 5.29234L1.63277 5.40703L1.69102 5.59106C1.69859 5.61487 1.67143 5.63462 1.65109 5.62006L1.49406 5.50781L1.33703 5.62006C1.31668 5.63459 1.28959 5.6149 1.29709 5.59106L1.35534 5.40703L1.20006 5.29234C1.17996 5.27747 1.19031 5.24563 1.21531 5.24541L1.40834 5.24394L1.4694 5.06082C1.47724 5.0371 1.51081 5.0371 1.51871 5.06082Z" fill="#F5F5F5"/>
<path d="M1.51871 6.01877L1.57977 6.20189L1.77281 6.20336C1.79781 6.20358 1.80815 6.23545 1.78806 6.2503L1.63277 6.36498L1.69102 6.54901C1.69859 6.57283 1.67143 6.59258 1.65109 6.57801L1.49406 6.46576L1.33703 6.57801C1.31668 6.59255 1.28959 6.57283 1.29709 6.54901L1.35534 6.36498L1.20006 6.2503C1.17996 6.23542 1.19031 6.20358 1.21531 6.20336L1.40834 6.20189L1.4694 6.01877C1.47724 5.99505 1.51081 5.99505 1.51871 6.01877Z" fill="#F5F5F5"/>
<path d="M1.51871 6.97669L1.57977 7.15981L1.77281 7.16128C1.79781 7.1615 1.80815 7.19338 1.78806 7.20822L1.63277 7.32291L1.69102 7.50694C1.69859 7.53075 1.67143 7.5505 1.65109 7.53594L1.49406 7.42369L1.33703 7.53594C1.31668 7.55047 1.28959 7.53075 1.29709 7.50694L1.35534 7.32291L1.20006 7.20822C1.17996 7.19334 1.19031 7.1615 1.21531 7.16128L1.40834 7.15981L1.4694 6.97669C1.47724 6.953 1.51081 6.953 1.51871 6.97669Z" fill="#F5F5F5"/>
<path d="M2.2609 3.63321L2.32196 3.81633L2.515 3.8178C2.54 3.81802 2.55034 3.84989 2.53025 3.86473L2.37496 3.97942L2.43321 4.16345C2.44078 4.18726 2.41362 4.20701 2.39328 4.19245L2.23625 4.0802L2.07921 4.19245C2.05887 4.20698 2.03178 4.18726 2.03928 4.16345L2.09753 3.97942L1.94225 3.86473C1.92215 3.84986 1.9325 3.81802 1.9575 3.8178L2.15053 3.81633L2.21159 3.63321C2.21946 3.60949 2.253 3.60949 2.2609 3.63321Z" fill="#F5F5F5"/>
<path d="M2.2609 4.59113L2.32196 4.77425L2.515 4.77572C2.54 4.77594 2.55034 4.80782 2.53025 4.82266L2.37496 4.93735L2.43321 5.12138C2.44078 5.14519 2.41362 5.16494 2.39328 5.15038L2.23625 5.03813L2.07921 5.15038C2.05887 5.16491 2.03178 5.14519 2.03928 5.12138L2.09753 4.93735L1.94225 4.82266C1.92215 4.80779 1.9325 4.77594 1.9575 4.77572L2.15053 4.77425L2.21159 4.59113C2.21946 4.56744 2.253 4.56744 2.2609 4.59113Z" fill="#F5F5F5"/>
<path d="M2.2609 5.54908L2.32196 5.73221L2.515 5.73367C2.54 5.73389 2.55034 5.76577 2.53025 5.78061L2.37496 5.8953L2.43321 6.07934C2.44078 6.10315 2.41362 6.1229 2.39328 6.10834L2.23625 5.99609L2.07921 6.10834C2.05887 6.12287 2.03178 6.10315 2.03928 6.07934L2.09753 5.8953L1.94225 5.78061C1.92215 5.76574 1.9325 5.73389 1.9575 5.73367L2.15053 5.73221L2.21159 5.54908C2.21946 5.52539 2.253 5.52539 2.2609 5.54908Z" fill="#F5F5F5"/>
<path d="M2.2609 6.50705L2.32196 6.69017L2.515 6.69164C2.54 6.69186 2.55034 6.72373 2.53025 6.73858L2.37496 6.85326L2.43321 7.0373C2.44078 7.06111 2.41362 7.08086 2.39328 7.0663L2.23625 6.95405L2.07921 7.0663C2.05887 7.08083 2.03178 7.06111 2.03928 7.0373L2.09753 6.85326L1.94225 6.73858C1.92215 6.7237 1.9325 6.69186 1.9575 6.69164L2.15053 6.69017L2.21159 6.50705C2.21946 6.48333 2.253 6.48333 2.2609 6.50705Z" fill="#F5F5F5"/>
<path d="M2.2609 7.46496L2.32196 7.64808L2.515 7.64955C2.54 7.64977 2.55034 7.68165 2.53025 7.69649L2.37496 7.81118L2.43321 7.99521C2.44078 8.01902 2.41362 8.03877 2.39328 8.02421L2.23625 7.91196L2.07921 8.02421C2.05887 8.03874 2.03178 8.01902 2.03928 7.99521L2.09753 7.81118L1.94225 7.69649C1.92215 7.68161 1.9325 7.64977 1.9575 7.64955L2.15053 7.64808L2.21159 7.46496C2.21946 7.44121 2.253 7.44121 2.2609 7.46496Z" fill="#F5F5F5"/>
<path d="M3.00504 4.10285L3.0661 4.28597L3.25914 4.28744C3.28414 4.28766 3.29448 4.31954 3.27439 4.33438L3.1191 4.44907L3.17735 4.6331C3.18492 4.65691 3.15776 4.67666 3.13742 4.6621L2.98039 4.54985L2.82335 4.6621C2.80301 4.67663 2.77592 4.65691 2.78342 4.6331L2.84167 4.44907L2.68639 4.33438C2.66629 4.3195 2.67664 4.28766 2.70164 4.28744L2.89467 4.28597L2.95573 4.10285C2.96357 4.07916 2.99714 4.07916 3.00504 4.10285Z" fill="#F5F5F5"/>
<path d="M3.00504 5.06082L3.0661 5.24394L3.25914 5.24541C3.28414 5.24563 3.29448 5.2775 3.27439 5.29234L3.1191 5.40703L3.17735 5.59106C3.18492 5.61487 3.15776 5.63462 3.13742 5.62006L2.98039 5.50781L2.82335 5.62006C2.80301 5.63459 2.77592 5.6149 2.78342 5.59106L2.84167 5.40703L2.68639 5.29234C2.66629 5.27747 2.67664 5.24563 2.70164 5.24541L2.89467 5.24394L2.95573 5.06082C2.96357 5.0371 2.99714 5.0371 3.00504 5.06082Z" fill="#F5F5F5"/>
<path d="M3.00504 6.01877L3.0661 6.20189L3.25914 6.20336C3.28414 6.20358 3.29448 6.23545 3.27439 6.2503L3.1191 6.36498L3.17735 6.54901C3.18492 6.57283 3.15776 6.59258 3.13742 6.57801L2.98039 6.46576L2.82335 6.57801C2.80301 6.59255 2.77592 6.57283 2.78342 6.54901L2.84167 6.36498L2.68639 6.2503C2.66629 6.23542 2.67664 6.20358 2.70164 6.20336L2.89467 6.20189L2.95573 6.01877C2.96357 5.99505 2.99714 5.99505 3.00504 6.01877Z" fill="#F5F5F5"/>
<path d="M3.00504 6.97669L3.0661 7.15981L3.25914 7.16128C3.28414 7.1615 3.29448 7.19338 3.27439 7.20822L3.1191 7.32291L3.17735 7.50694C3.18492 7.53075 3.15776 7.5505 3.13742 7.53594L2.98039 7.42369L2.82335 7.53594C2.80301 7.55047 2.77592 7.53075 2.78342 7.50694L2.84167 7.32291L2.68639 7.20822C2.66629 7.19334 2.67664 7.1615 2.70164 7.16128L2.89467 7.15981L2.95573 6.97669C2.96357 6.953 2.99714 6.953 3.00504 6.97669Z" fill="#F5F5F5"/>
<path d="M3.74921 3.63321L3.81027 3.81633L4.0033 3.8178C4.0283 3.81802 4.03864 3.84989 4.01855 3.86473L3.86327 3.97942L3.92152 4.16345C3.92908 4.18726 3.90193 4.20701 3.88158 4.19245L3.72452 4.0802L3.56749 4.19245C3.54715 4.20698 3.52006 4.18726 3.52756 4.16345L3.58581 3.97942L3.43053 3.86473C3.41043 3.84986 3.42078 3.81802 3.44578 3.8178L3.63881 3.81633L3.69987 3.63321C3.70777 3.60949 3.7413 3.60949 3.74921 3.63321Z" fill="#F5F5F5"/>
<path d="M3.74921 4.59113L3.81027 4.77425L4.0033 4.77572C4.0283 4.77594 4.03864 4.80782 4.01855 4.82266L3.86327 4.93735L3.92152 5.12138C3.92908 5.14519 3.90193 5.16494 3.88158 5.15038L3.72452 5.03813L3.56749 5.15038C3.54715 5.16491 3.52006 5.14519 3.52756 5.12138L3.58581 4.93735L3.43053 4.82266C3.41043 4.80779 3.42078 4.77594 3.44578 4.77572L3.63881 4.77425L3.69987 4.59113C3.70777 4.56744 3.7413 4.56744 3.74921 4.59113Z" fill="#F5F5F5"/>
<path d="M3.74921 5.54908L3.81027 5.73221L4.0033 5.73367C4.0283 5.73389 4.03864 5.76577 4.01855 5.78061L3.86327 5.8953L3.92152 6.07934C3.92908 6.10315 3.90193 6.1229 3.88158 6.10834L3.72452 5.99609L3.56749 6.10834C3.54715 6.12287 3.52006 6.10315 3.52756 6.07934L3.58581 5.8953L3.43053 5.78061C3.41043 5.76574 3.42078 5.73389 3.44578 5.73367L3.63881 5.73221L3.69987 5.54908C3.70777 5.52539 3.7413 5.52539 3.74921 5.54908Z" fill="#F5F5F5"/>
<path d="M3.74921 6.50705L3.81027 6.69017L4.0033 6.69164C4.0283 6.69186 4.03864 6.72373 4.01855 6.73858L3.86327 6.85326L3.92152 7.0373C3.92908 7.06111 3.90193 7.08086 3.88158 7.0663L3.72452 6.95405L3.56749 7.0663C3.54715 7.08083 3.52006 7.06111 3.52756 7.0373L3.58581 6.85326L3.43053 6.73858C3.41043 6.7237 3.42078 6.69186 3.44578 6.69164L3.63881 6.69017L3.69987 6.50705C3.70777 6.48333 3.7413 6.48333 3.74921 6.50705Z" fill="#F5F5F5"/>
<path d="M3.74921 7.46496L3.81027 7.64808L4.0033 7.64955C4.0283 7.64977 4.03864 7.68165 4.01855 7.69649L3.86327 7.81118L3.92152 7.99521C3.92908 8.01902 3.90193 8.03877 3.88158 8.02421L3.72452 7.91196L3.56749 8.02421C3.54715 8.03874 3.52006 8.01902 3.52756 7.99521L3.58581 7.81118L3.43053 7.69649C3.41043 7.68161 3.42078 7.64977 3.44578 7.64955L3.63881 7.64808L3.69987 7.46496C3.70777 7.44121 3.7413 7.44121 3.74921 7.46496Z" fill="#F5F5F5"/>
<path d="M4.49137 4.10285L4.55243 4.28597L4.74546 4.28744C4.77046 4.28766 4.7808 4.31954 4.76071 4.33438L4.60543 4.44907L4.66368 4.6331C4.67124 4.65691 4.64408 4.67666 4.62374 4.6621L4.46671 4.54985L4.30968 4.6621C4.28934 4.67663 4.26224 4.65691 4.26974 4.6331L4.32799 4.44907L4.17271 4.33438C4.15262 4.3195 4.16296 4.28766 4.18796 4.28744L4.38099 4.28597L4.44205 4.10285C4.44996 4.07916 4.48346 4.07916 4.49137 4.10285Z" fill="#F5F5F5"/>
<path d="M4.49137 5.06082L4.55243 5.24394L4.74546 5.24541C4.77046 5.24563 4.7808 5.2775 4.76071 5.29234L4.60543 5.40703L4.66368 5.59106C4.67124 5.61487 4.64408 5.63462 4.62374 5.62006L4.46671 5.50781L4.30968 5.62006C4.28934 5.63459 4.26224 5.6149 4.26974 5.59106L4.32799 5.40703L4.17271 5.29234C4.15262 5.27747 4.16296 5.24563 4.18796 5.24541L4.38099 5.24394L4.44205 5.06082C4.44996 5.0371 4.48346 5.0371 4.49137 5.06082Z" fill="#F5F5F5"/>
<path d="M4.49137 6.01877L4.55243 6.20189L4.74546 6.20336C4.77046 6.20358 4.7808 6.23545 4.76071 6.2503L4.60543 6.36498L4.66368 6.54901C4.67124 6.57283 4.64408 6.59258 4.62374 6.57801L4.46671 6.46576L4.30968 6.57801C4.28934 6.59255 4.26224 6.57283 4.26974 6.54901L4.32799 6.36498L4.17271 6.2503C4.15262 6.23542 4.16296 6.20358 4.18796 6.20336L4.38099 6.20189L4.44205 6.01877C4.44996 5.99505 4.48346 5.99505 4.49137 6.01877Z" fill="#F5F5F5"/>
<path d="M4.49137 6.97669L4.55243 7.15981L4.74546 7.16128C4.77046 7.1615 4.7808 7.19338 4.76071 7.20822L4.60543 7.32291L4.66368 7.50694C4.67124 7.53075 4.64408 7.5505 4.62374 7.53594L4.46671 7.42369L4.30968 7.53594C4.28934 7.55047 4.26224 7.53075 4.26974 7.50694L4.32799 7.32291L4.17271 7.20822C4.15262 7.19334 4.16296 7.1615 4.18796 7.16128L4.38099 7.15981L4.44205 6.97669C4.44996 6.953 4.48346 6.953 4.49137 6.97669Z" fill="#F5F5F5"/>
<path d="M5.23551 3.63321L5.29657 3.81633L5.4896 3.8178C5.5146 3.81802 5.52494 3.84989 5.50485 3.86473L5.34957 3.97942L5.40782 4.16345C5.41538 4.18726 5.38822 4.20701 5.36788 4.19245L5.21085 4.0802L5.05382 4.19245C5.03348 4.20698 5.00638 4.18726 5.01388 4.16345L5.07213 3.97942L4.91685 3.86473C4.89676 3.84986 4.9071 3.81802 4.9321 3.8178L5.12513 3.81633L5.18619 3.63321C5.19404 3.60949 5.2276 3.60949 5.23551 3.63321Z" fill="#F5F5F5"/>
<path d="M5.23551 4.59113L5.29657 4.77425L5.4896 4.77572C5.5146 4.77594 5.52494 4.80782 5.50485 4.82266L5.34957 4.93735L5.40782 5.12138C5.41538 5.14519 5.38822 5.16494 5.36788 5.15038L5.21085 5.03813L5.05382 5.15038C5.03348 5.16491 5.00638 5.14519 5.01388 5.12138L5.07213 4.93735L4.91685 4.82266C4.89676 4.80779 4.9071 4.77594 4.9321 4.77572L5.12513 4.77425L5.18619 4.59113C5.19404 4.56744 5.2276 4.56744 5.23551 4.59113Z" fill="#F5F5F5"/>
<path d="M5.23551 5.54908L5.29657 5.73221L5.4896 5.73367C5.5146 5.73389 5.52494 5.76577 5.50485 5.78061L5.34957 5.8953L5.40782 6.07934C5.41538 6.10315 5.38822 6.1229 5.36788 6.10834L5.21085 5.99609L5.05382 6.10834C5.03348 6.12287 5.00638 6.10315 5.01388 6.07934L5.07213 5.8953L4.91685 5.78061C4.89676 5.76574 4.9071 5.73389 4.9321 5.73367L5.12513 5.73221L5.18619 5.54908C5.19404 5.52539 5.2276 5.52539 5.23551 5.54908Z" fill="#F5F5F5"/>
<path d="M5.23551 6.50705L5.29657 6.69017L5.4896 6.69164C5.5146 6.69186 5.52494 6.72373 5.50485 6.73858L5.34957 6.85326L5.40782 7.0373C5.41538 7.06111 5.38822 7.08086 5.36788 7.0663L5.21085 6.95405L5.05382 7.0663C5.03348 7.08083 5.00638 7.06111 5.01388 7.0373L5.07213 6.85326L4.91685 6.73858C4.89676 6.7237 4.9071 6.69186 4.9321 6.69164L5.12513 6.69017L5.18619 6.50705C5.19404 6.48333 5.2276 6.48333 5.23551 6.50705Z" fill="#F5F5F5"/>
<path d="M5.23551 7.46496L5.29657 7.64808L5.4896 7.64955C5.5146 7.64977 5.52494 7.68165 5.50485 7.69649L5.34957 7.81118L5.40782 7.99521C5.41538 8.01902 5.38822 8.03877 5.36788 8.02421L5.21085 7.91196L5.05382 8.02421C5.03348 8.03874 5.00638 8.01902 5.01388 7.99521L5.07213 7.81118L4.91685 7.69649C4.89676 7.68161 4.9071 7.64977 4.9321 7.64955L5.12513 7.64808L5.18619 7.46496C5.19404 7.44121 5.2276 7.44121 5.23551 7.46496Z" fill="#F5F5F5"/>
<path d="M5.97966 4.10285L6.04072 4.28597L6.23376 4.28744C6.25876 4.28766 6.2691 4.31954 6.24901 4.33438L6.09372 4.44907L6.15197 4.6331C6.15954 4.65691 6.13238 4.67666 6.11203 4.6621L5.955 4.54985L5.79797 4.6621C5.77762 4.67663 5.75053 4.65691 5.75803 4.6331L5.81628 4.44907L5.661 4.33438C5.6409 4.3195 5.65125 4.28766 5.67625 4.28744L5.86928 4.28597L5.93034 4.10285C5.93822 4.07916 5.97178 4.07916 5.97966 4.10285Z" fill="#F5F5F5"/>
<path d="M5.97966 5.06082L6.04072 5.24394L6.23376 5.24541C6.25876 5.24563 6.2691 5.2775 6.24901 5.29234L6.09372 5.40703L6.15197 5.59106C6.15954 5.61487 6.13238 5.63462 6.11203 5.62006L5.955 5.50781L5.79797 5.62006C5.77762 5.63459 5.75053 5.6149 5.75803 5.59106L5.81628 5.40703L5.661 5.29234C5.6409 5.27747 5.65125 5.24563 5.67625 5.24541L5.86928 5.24394L5.93034 5.06082C5.93822 5.0371 5.97178 5.0371 5.97966 5.06082Z" fill="#F5F5F5"/>
<path d="M5.97966 6.01877L6.04072 6.20189L6.23376 6.20336C6.25876 6.20358 6.2691 6.23545 6.24901 6.2503L6.09372 6.36498L6.15197 6.54901C6.15954 6.57283 6.13238 6.59258 6.11203 6.57801L5.955 6.46576L5.79797 6.57801C5.77762 6.59255 5.75053 6.57283 5.75803 6.54901L5.81628 6.36498L5.661 6.2503C5.6409 6.23542 5.65125 6.20358 5.67625 6.20336L5.86928 6.20189L5.93034 6.01877C5.93822 5.99505 5.97178 5.99505 5.97966 6.01877Z" fill="#F5F5F5"/>
<path d="M5.97966 6.97669L6.04072 7.15981L6.23376 7.16128C6.25876 7.1615 6.2691 7.19338 6.24901 7.20822L6.09372 7.32291L6.15197 7.50694C6.15954 7.53075 6.13238 7.5505 6.11203 7.53594L5.955 7.42369L5.79797 7.53594C5.77762 7.55047 5.75053 7.53075 5.75803 7.50694L5.81628 7.32291L5.661 7.20822C5.6409 7.19334 5.65125 7.1615 5.67625 7.16128L5.86928 7.15981L5.93034 6.97669C5.93822 6.953 5.97178 6.953 5.97966 6.97669Z" fill="#F5F5F5"/>
<path d="M6.7238 3.63321L6.78486 3.81633L6.9779 3.8178C7.0029 3.81802 7.01325 3.84989 6.99315 3.86473L6.83787 3.97942L6.89612 4.16345C6.90368 4.18726 6.87652 4.20701 6.85618 4.19245L6.69914 4.0802L6.54211 4.19245C6.52176 4.20698 6.49467 4.18726 6.50217 4.16345L6.56042 3.97942L6.40514 3.86473C6.38504 3.84986 6.39539 3.81802 6.42039 3.8178L6.61342 3.81633L6.67449 3.63321C6.68236 3.60949 6.71586 3.60949 6.7238 3.63321Z" fill="#F5F5F5"/>
<path d="M6.7238 4.59113L6.78486 4.77425L6.9779 4.77572C7.0029 4.77594 7.01325 4.80782 6.99315 4.82266L6.83787 4.93735L6.89612 5.12138C6.90368 5.14519 6.87652 5.16494 6.85618 5.15038L6.69914 5.03813L6.54211 5.15038C6.52176 5.16491 6.49467 5.14519 6.50217 5.12138L6.56042 4.93735L6.40514 4.82266C6.38504 4.80779 6.39539 4.77594 6.42039 4.77572L6.61342 4.77425L6.67449 4.59113C6.68236 4.56744 6.71586 4.56744 6.7238 4.59113Z" fill="#F5F5F5"/>
<path d="M6.7238 5.54908L6.78486 5.73221L6.9779 5.73367C7.0029 5.73389 7.01325 5.76577 6.99315 5.78061L6.83787 5.8953L6.89612 6.07934C6.90368 6.10315 6.87652 6.1229 6.85618 6.10834L6.69914 5.99609L6.54211 6.10834C6.52176 6.12287 6.49467 6.10315 6.50217 6.07934L6.56042 5.8953L6.40514 5.78061C6.38504 5.76574 6.39539 5.73389 6.42039 5.73367L6.61342 5.73221L6.67449 5.54908C6.68236 5.52539 6.71586 5.52539 6.7238 5.54908Z" fill="#F5F5F5"/>
<path d="M6.7238 6.50705L6.78486 6.69017L6.9779 6.69164C7.0029 6.69186 7.01325 6.72373 6.99315 6.73858L6.83787 6.85326L6.89612 7.0373C6.90368 7.06111 6.87652 7.08086 6.85618 7.0663L6.69914 6.95405L6.54211 7.0663C6.52176 7.08083 6.49467 7.06111 6.50217 7.0373L6.56042 6.85326L6.40514 6.73858C6.38504 6.7237 6.39539 6.69186 6.42039 6.69164L6.61342 6.69017L6.67449 6.50705C6.68236 6.48333 6.71586 6.48333 6.7238 6.50705Z" fill="#F5F5F5"/>
<path d="M6.7238 7.46496L6.78486 7.64808L6.9779 7.64955C7.0029 7.64977 7.01325 7.68165 6.99315 7.69649L6.83787 7.81118L6.89612 7.99521C6.90368 8.01902 6.87652 8.03877 6.85618 8.02421L6.69914 7.91196L6.54211 8.02421C6.52176 8.03874 6.49467 8.01902 6.50217 7.99521L6.56042 7.81118L6.40514 7.69649C6.38504 7.68161 6.39539 7.64977 6.42039 7.64955L6.61342 7.64808L6.67449 7.46496C6.68236 7.44121 6.71586 7.44121 6.7238 7.46496Z" fill="#F5F5F5"/>
</svg>
