<svg width="16" height="16" viewBox="0 0 16 16" fill="none" xmlns="http://www.w3.org/2000/svg">
<path d="M14.2812 2.5H13.8125V1.40625C13.8125 0.630844 13.1817 0 12.4062 0C11.6308 0 11 0.630844 11 1.40625V1.79016C11 2.27591 10.6738 2.70838 10.2067 2.84181L9.75 2.97231V2.96875C9.75 2.70988 9.54012 2.5 9.28125 2.5H7.40625C7.14738 2.5 6.9375 2.70988 6.9375 2.96875V5.0625H1.40625C0.630844 5.0625 0 5.69334 0 6.46875V15.5312C0 15.7041 0.0951563 15.863 0.247562 15.9445C0.316875 15.9817 0.392875 16 0.468719 16C0.559656 16 0.650344 15.9736 0.72875 15.9213L2.48569 14.75H11.4062C12.1817 14.75 12.8125 14.1192 12.8125 13.3438V8.4375H14.2812C15.229 8.4375 16 7.66647 16 6.71875V4.21875C16 3.27103 15.229 2.5 14.2812 2.5ZM7.875 3.4375H8.8125V7.5H7.875V3.4375ZM11.875 13.3438C11.875 13.6022 11.6647 13.8125 11.4062 13.8125H2.34375C2.25122 13.8125 2.16075 13.8399 2.08375 13.8912L0.9375 14.6554V6.46875C0.9375 6.21028 1.14778 6 1.40625 6H6.9375V7.96875C6.9375 8.22762 7.14738 8.4375 7.40625 8.4375H9.28125C9.52206 8.4375 9.72025 8.25581 9.74675 8.02209C10.1643 8.28841 10.6553 8.4375 11.166 8.4375H11.875V13.3438ZM15.0625 6.71875C15.0625 7.14953 14.712 7.5 14.2812 7.5H11.166C10.596 7.5 10.0638 7.21247 9.75 6.74231V3.94734L10.4642 3.74328C11.3317 3.49544 11.9375 2.69228 11.9375 1.79016V1.40625C11.9375 1.14778 12.1478 0.9375 12.4062 0.9375C12.6647 0.9375 12.875 1.14778 12.875 1.40625V2.96875C12.875 3.22762 13.0849 3.4375 13.3438 3.4375H14.2812C14.712 3.4375 15.0625 3.78797 15.0625 4.21875V6.71875Z" fill="#333333"/>
<path d="M2.34375 8.8125H5.46875C5.72762 8.8125 5.9375 8.60263 5.9375 8.34375C5.9375 8.08487 5.72762 7.875 5.46875 7.875H2.34375C2.08487 7.875 1.875 8.08487 1.875 8.34375C1.875 8.60263 2.08487 8.8125 2.34375 8.8125Z" fill="#333333"/>
<path d="M10.4688 9.75H2.34375C2.08487 9.75 1.875 9.95987 1.875 10.2188C1.875 10.4776 2.08487 10.6875 2.34375 10.6875H10.4688C10.7276 10.6875 10.9375 10.4776 10.9375 10.2188C10.9375 9.95987 10.7276 9.75 10.4688 9.75Z" fill="#333333"/>
<path d="M10.4688 11.625H2.34375C2.08487 11.625 1.875 11.8349 1.875 12.0938C1.875 12.3526 2.08487 12.5625 2.34375 12.5625H10.4688C10.7276 12.5625 10.9375 12.3526 10.9375 12.0938C10.9375 11.8349 10.7276 11.625 10.4688 11.625Z" fill="#333333"/>
</svg>
