<svg width="17" height="16" viewBox="0 0 17 16" fill="none" xmlns="http://www.w3.org/2000/svg">
<path d="M8.24455 2.66675C4.44374 2.66675 1.33398 4.87813 1.33398 7.57325C1.33398 8.67894 1.81772 9.64642 2.64699 10.4757C2.99252 10.8212 3.47626 11.1667 3.96 11.4432L3.40716 14.0001C5.41122 13.6546 6.86244 12.4107 6.86244 12.4107C7.27707 12.4798 7.76081 12.5489 8.24455 12.5489C12.0454 12.5489 15.1551 10.3375 15.1551 7.64236C15.1551 4.87813 12.0454 2.66675 8.24455 2.66675Z" stroke="#333333" stroke-width="2" stroke-miterlimit="10" stroke-linejoin="round"/>
<path d="M11.4909 8.54067C12.0252 8.54067 12.4584 8.10752 12.4584 7.57319C12.4584 7.03887 12.0252 6.60571 11.4909 6.60571C10.9566 6.60571 10.5234 7.03887 10.5234 7.57319C10.5234 8.10752 10.9566 8.54067 11.4909 8.54067Z" fill="#333333"/>
<path d="M8.24287 8.54067C8.77719 8.54067 9.21035 8.10752 9.21035 7.57319C9.21035 7.03887 8.77719 6.60571 8.24287 6.60571C7.70855 6.60571 7.27539 7.03887 7.27539 7.57319C7.27539 8.10752 7.70855 8.54067 8.24287 8.54067Z" fill="#333333"/>
<path d="M4.99482 8.54067C5.52915 8.54067 5.9623 8.10752 5.9623 7.57319C5.9623 7.03887 5.52915 6.60571 4.99482 6.60571C4.4605 6.60571 4.02734 7.03887 4.02734 7.57319C4.02734 8.10752 4.4605 8.54067 4.99482 8.54067Z" fill="#333333"/>
</svg>
