<svg width="16" height="16" viewBox="0 0 16 16" fill="none" xmlns="http://www.w3.org/2000/svg">
<path d="M10.5438 9.39024C9.89562 9.39024 9.42424 8.85061 9.42424 8.25103C9.42424 7.89128 9.60101 7.59148 9.89562 7.35165C10.8384 6.57219 11.3687 5.2531 11.0741 3.87406C10.7795 2.61493 9.8367 1.65559 8.5404 1.41576C6.36027 0.93609 4.47475 2.61493 4.47475 4.71348C4.47475 5.79273 4.94613 6.75206 5.77104 7.35165C6.06566 7.59148 6.1835 7.89128 6.1835 8.25103C6.1835 8.91057 5.6532 9.39024 5.06397 9.39024C3.35522 9.39024 2 10.7693 2 12.5081V13.6473C2 14.1869 2.41246 14.6666 3.00168 14.6666H12.665C13.1953 14.6666 13.6667 14.2469 13.6667 13.6473V12.5081C13.6077 10.7693 12.2525 9.39024 10.5438 9.39024Z" stroke="#333333" stroke-width="2" stroke-miterlimit="10"/>
</svg>
