<svg width="20" height="20" viewBox="0 0 20 20" fill="none" xmlns="http://www.w3.org/2000/svg">
<path d="M7.14324 5.7143L5.51058 3.26532L3.87793 5.7143L5.91875 7.14287L7.14324 5.7143Z" fill="#FBBC05"/>
<path d="M16.1227 5.7143L14.4901 3.26532L12.8574 5.7143L14.0819 7.34695L16.1227 5.7143Z" fill="#FBBC05"/>
<path d="M13.2656 5.102L12.8574 5.71424L14.0819 7.34689L16.1227 5.71424L15.6254 4.96832C15.6254 4.96832 14.5915 6.18934 14.0819 6.1224C13.7172 6.07444 13.2656 5.102 13.2656 5.102Z" fill="#F4950C"/>
<path d="M6.73507 5.102L7.14324 5.71424L5.91875 7.34689L3.87793 5.71424L4.37528 4.96832C4.37528 4.96832 5.40915 6.18934 5.91875 6.1224C6.28344 6.07444 6.73507 5.102 6.73507 5.102Z" fill="#F4950C"/>
<path d="M3.46947 10.4082H16.5307L19.1838 2.449L14.0817 6.93879L10.0001 0.816345L5.91845 6.93879L0.816406 2.449L3.46947 10.4082Z" fill="#FFE161"/>
<path d="M3.46965 10.4081H16.5309C16.9817 10.4081 17.3472 10.7737 17.3472 11.2245C17.3472 11.6753 16.9817 12.0408 16.5309 12.0408H3.46965C3.01883 12.0408 2.65332 11.6753 2.65332 11.2245C2.65332 10.7737 3.01883 10.4081 3.46965 10.4081Z" fill="#FFE161"/>
<path d="M16.5302 10.4082L19.1832 2.44899L14.0812 6.93878L9.99954 0.816345L9.45873 1.62757C9.60709 1.76165 9.79954 1.83614 9.99954 1.83675C9.99954 1.83675 12.6526 6.32654 13.4689 7.55102C14.2853 8.77551 14.7057 9.18367 14.2914 10.4082H12.6526L15.0383 10.5333C15.3459 10.5849 15.5534 10.8759 15.5018 11.1835C15.4575 11.4471 15.2346 11.6437 14.9675 11.6543L5.30566 12.0408H16.484C16.953 12.0475 17.3387 11.6729 17.3455 11.2039C17.3455 11.1978 17.3457 11.1914 17.3455 11.1853C17.3253 10.75 16.9661 10.4075 16.5302 10.4082Z" fill="#FBBC05"/>
<path d="M0.816326 3.26528C1.26717 3.26528 1.63265 2.8998 1.63265 2.44896C1.63265 1.99811 1.26717 1.63263 0.816326 1.63263C0.365482 1.63263 0 1.99811 0 2.44896C0 2.8998 0.365482 3.26528 0.816326 3.26528Z" fill="#FF1849"/>
<path d="M19.1835 3.26528C19.6344 3.26528 19.9998 2.8998 19.9998 2.44896C19.9998 1.99811 19.6344 1.63263 19.1835 1.63263C18.7327 1.63263 18.3672 1.99811 18.3672 2.44896C18.3672 2.8998 18.7327 3.26528 19.1835 3.26528Z" fill="#FF1849"/>
<path d="M9.99992 1.63265C10.4508 1.63265 10.8162 1.26717 10.8162 0.816326C10.8162 0.365482 10.4508 0 9.99992 0C9.54908 0 9.18359 0.365482 9.18359 0.816326C9.18359 1.26717 9.54908 1.63265 9.99992 1.63265Z" fill="#FF1849"/>
<path d="M5.51068 3.87757C5.84882 3.87757 6.12293 3.60345 6.12293 3.26532C6.12293 2.92719 5.84882 2.65308 5.51068 2.65308C5.17255 2.65308 4.89844 2.92719 4.89844 3.26532C4.89844 3.60345 5.17255 3.87757 5.51068 3.87757Z" fill="#E00E45"/>
<path d="M14.4902 3.87757C14.8283 3.87757 15.1024 3.60345 15.1024 3.26532C15.1024 2.92719 14.8283 2.65308 14.4902 2.65308C14.152 2.65308 13.8779 2.92719 13.8779 3.26532C13.8779 3.60345 14.152 3.87757 14.4902 3.87757Z" fill="#E00E45"/>
<path d="M9.57809 13.2653H10.3944C10.6199 13.2653 10.8026 13.4479 10.8026 13.6734V19.5918C10.8026 19.8173 10.6199 20 10.3944 20H9.57809C9.35257 20 9.16992 19.8173 9.16992 19.5918V13.6734C9.16992 13.4479 9.35278 13.2653 9.57809 13.2653Z" fill="#FF1849"/>
<path d="M7.78209 13.7777L6.21637 19.6961C6.16903 19.8751 6.00699 20 5.82188 20H4.8176C4.63229 20 4.47045 19.8753 4.42311 19.6961L2.85739 13.7777C2.79984 13.5597 2.92964 13.3365 3.1476 13.2787C3.18168 13.2697 3.21678 13.2653 3.25188 13.2653H4.07882C4.27147 13.2653 4.43801 13.4002 4.47801 13.5887L5.31984 17.551L6.16127 13.5887C6.20127 13.4002 6.3678 13.2653 6.56045 13.2653H7.38739C7.6129 13.2653 7.79556 13.4479 7.79556 13.6734C7.79576 13.7087 7.79107 13.7438 7.78209 13.7777Z" fill="#FF1849"/>
<path d="M12.0273 13.6734V19.5918C12.0273 19.8173 12.21 20 12.4355 20H13.2518C13.4773 20 13.66 19.8173 13.66 19.5918V18.1632H14.7075C16.06 18.1632 17.1565 17.0667 17.1565 15.7142C17.1565 14.3618 16.06 13.2653 14.7075 13.2653H12.4355C12.2102 13.2653 12.0273 13.4479 12.0273 13.6734ZM14.6804 16.5306H13.66V14.8979H14.6804C15.1312 14.8979 15.4967 15.2634 15.4967 15.7142C15.4967 16.1651 15.1314 16.5306 14.6804 16.5306Z" fill="#FF1849"/>
<path d="M10.5714 15.102C10.5714 16.1224 10.7754 19.1836 9.75502 19.3877C9.54482 19.4185 9.33155 19.3573 9.16992 19.2193V19.5918C9.16992 19.8173 9.35257 20 9.57808 20H10.3944C10.6199 20 10.8026 19.8173 10.8026 19.5918V13.6734C10.8026 13.4479 10.6199 13.2653 10.3944 13.2653H10.1632C10.5714 13.2653 10.5714 14.0816 10.5714 15.102Z" fill="#E00E45"/>
<path d="M7.12852 14.6938C6.92444 15.7142 6.10811 19.1836 5.29179 19.3877C4.94811 19.4865 4.57811 19.4183 4.29199 19.2038L4.4222 19.6961C4.46954 19.8751 4.63158 20 4.81689 20H5.82118C6.00648 20 6.16832 19.8753 6.21567 19.6961L7.78138 13.7777C7.83893 13.5597 7.70913 13.3365 7.49118 13.2787C7.45709 13.2697 7.42199 13.2653 7.38689 13.2653H6.92464C7.3326 13.2653 7.3326 13.6734 7.12852 14.6938Z" fill="#E00E45"/>
<path d="M14.6804 17.7551H13.7053C13.5675 17.7557 13.4561 17.8671 13.4553 18.0049C13.4498 18.8443 13.4559 19.3877 12.6124 19.3877C12.4047 19.3937 12.2002 19.3349 12.0273 19.2194V19.5918C12.0273 19.8173 12.21 20 12.4355 20H13.2518C13.4773 20 13.66 19.8173 13.66 19.5918V18.1633H14.7075C15.9861 18.1629 17.049 17.1782 17.1471 15.9033C16.6298 17.2114 15.4967 17.7551 14.6804 17.7551Z" fill="#E00E45"/>
<path d="M3.33301 10L3.46913 10.4082H16.5304L16.6665 10H3.33301Z" fill="#FBBC05"/>
</svg>
