<svg width="32" height="32" viewBox="0 0 32 32" fill="none" xmlns="http://www.w3.org/2000/svg">
<rect width="32" height="32" rx="7" fill="#F3F3F3"/>
<path d="M23.5 6H8.5C7.12125 6 6 7.12125 6 8.5V23.5C6 24.8787 7.12125 26 8.5 26H23.5C24.8787 26 26 24.8787 26 23.5V8.5C26 7.12125 24.8787 6 23.5 6Z" fill="#1976D2"/>
<path d="M22.875 16H19.75V13.5C19.75 12.81 20.31 12.875 21 12.875H22.25V9.75H19.75C17.6788 9.75 16 11.4288 16 13.5V16H13.5V19.125H16V26H19.75V19.125H21.625L22.875 16Z" fill="#FAFAFA"/>
</svg>
