<svg width="40" height="34" viewBox="0 0 40 34" fill="none" xmlns="http://www.w3.org/2000/svg">
<path d="M6.66667 7.00001H10V27H6.66667V7.00001ZM11.6667 7.00001H13.3333V27H11.6667V7.00001ZM15 7.00001H20V27H15V7.00001ZM21.6667 7.00001H23.3333V27H21.6667V7.00001ZM26.6667 7.00001H30V27H26.6667V7.00001ZM31.6667 7.00001H33.3333V27H31.6667V7.00001ZM3.33333 3.66668V10.3333H0V3.66668C0 2.78262 0.35119 1.93478 0.976311 1.30965C1.60143 0.684533 2.44928 0.333344 3.33333 0.333344H10V3.66668H3.33333ZM36.6667 0.333344C37.5507 0.333344 38.3986 0.684533 39.0237 1.30965C39.6488 1.93478 40 2.78262 40 3.66668V10.3333H36.6667V3.66668H30V0.333344H36.6667ZM3.33333 23.6667V30.3333H10V33.6667H3.33333C2.44928 33.6667 1.60143 33.3155 0.976311 32.6904C0.35119 32.0652 0 31.2174 0 30.3333V23.6667H3.33333ZM36.6667 30.3333V23.6667H40V30.3333C40 31.2174 39.6488 32.0652 39.0237 32.6904C38.3986 33.3155 37.5507 33.6667 36.6667 33.6667H30V30.3333H36.6667Z" fill="black"/>
</svg>
