<svg width="24" height="17" viewBox="0 0 24 17" fill="none" xmlns="http://www.w3.org/2000/svg">
<path fill-rule="evenodd" clip-rule="evenodd" d="M13.2857 1.78947H-1V0H14.1786C14.6717 0 15.0714 0.400587 15.0714 0.894737V3.57895H19.5357C19.8069 3.57895 20.0635 3.7025 20.2329 3.91475L23.8043 8.38843C23.931 8.54708 24 8.7442 24 8.94737V14.3158C24 14.8099 23.6003 15.2105 23.1071 15.2105H21.169C20.8013 16.2531 19.8091 17 18.6429 17C17.1635 17 15.9643 15.7982 15.9643 14.3158C15.9643 12.8333 17.1635 11.6316 18.6429 11.6316C19.8091 11.6316 20.8013 12.3785 21.169 13.4211H22.2143V9.26122L19.1066 5.36842H15.0714V14.3158C15.0714 14.8099 14.6717 15.2105 14.1786 15.2105H8.82143V13.4211H13.2857V1.78947ZM8.82143 5.36842H0.785714V3.57895H8.82143V5.36842ZM7.03571 8.94737H-1V7.15789H7.03571V8.94737ZM4.35714 13.4211C3.86403 13.4211 3.46429 13.8216 3.46429 14.3158C3.46429 14.8099 3.86403 15.2105 4.35714 15.2105C4.85025 15.2105 5.25 14.8099 5.25 14.3158C5.25 13.8216 4.85025 13.4211 4.35714 13.4211ZM1.67857 14.3158C1.67857 12.8333 2.87781 11.6316 4.35714 11.6316C5.83648 11.6316 7.03571 12.8333 7.03571 14.3158C7.03571 15.7982 5.83648 17 4.35714 17C2.87781 17 1.67857 15.7982 1.67857 14.3158ZM18.6429 13.4211C18.1497 13.4211 17.75 13.8216 17.75 14.3158C17.75 14.8099 18.1497 15.2105 18.6429 15.2105C19.136 15.2105 19.5357 14.8099 19.5357 14.3158C19.5357 13.8216 19.136 13.4211 18.6429 13.4211Z" fill="#333333"/>
</svg>
