<svg width="23" height="19" viewBox="0 0 23 19" fill="none" xmlns="http://www.w3.org/2000/svg">
<path d="M11.3659 1C5.66463 1 1 4.31707 1 8.35976C1 10.0183 1.72561 11.4695 2.96951 12.7134C3.4878 13.2317 4.21341 13.75 4.93902 14.1646L4.10976 18C7.11585 17.4817 9.29268 15.6159 9.29268 15.6159C9.91463 15.7195 10.6402 15.8232 11.3659 15.8232C17.0671 15.8232 21.7317 12.5061 21.7317 8.46341C21.7317 4.31707 17.0671 1 11.3659 1Z" stroke="#333333" stroke-width="2" stroke-miterlimit="10" stroke-linejoin="round"/>
<path d="M16.2383 9.81095C17.0398 9.81095 17.6895 9.16122 17.6895 8.35973C17.6895 7.55824 17.0398 6.90851 16.2383 6.90851C15.4368 6.90851 14.7871 7.55824 14.7871 8.35973C14.7871 9.16122 15.4368 9.81095 16.2383 9.81095Z" fill="#333333"/>
<path d="M11.3653 9.81095C12.1668 9.81095 12.8165 9.16122 12.8165 8.35973C12.8165 7.55824 12.1668 6.90851 11.3653 6.90851C10.5638 6.90851 9.91406 7.55824 9.91406 8.35973C9.91406 9.16122 10.5638 9.81095 11.3653 9.81095Z" fill="#333333"/>
<path d="M6.49419 9.81089C7.29568 9.81089 7.94541 9.16115 7.94541 8.35967C7.94541 7.55818 7.29568 6.90845 6.49419 6.90845C5.6927 6.90845 5.04297 7.55818 5.04297 8.35967C5.04297 9.16115 5.6927 9.81089 6.49419 9.81089Z" fill="#333333"/>
</svg>
