<svg width="24" height="24" viewBox="0 0 24 24" fill="none" xmlns="http://www.w3.org/2000/svg">
<path d="M18.6856 17.1637L13.5185 11.9858L18.6576 6.83621C19.0767 6.41603 19.0767 5.73491 18.6576 5.31496C18.2383 4.89501 17.5588 4.89501 17.1395 5.31496L12.0003 10.4646L6.86137 5.31496C6.44204 4.89501 5.76253 4.89501 5.3432 5.31496C4.92387 5.73514 4.92387 6.41626 5.3432 6.83621L10.4821 11.9858L5.3145 17.1637C4.89517 17.5839 4.89517 18.2648 5.3145 18.685C5.52416 18.8951 5.79881 19 6.07369 19C6.34857 19 6.62323 18.8951 6.83289 18.685L12.0003 13.5071L17.1675 18.685C17.3771 18.8951 17.6518 19 17.9267 19C18.2016 19 18.4762 18.8951 18.6859 18.685C19.1047 18.265 19.1047 17.5839 18.6856 17.1637Z" fill="#8134AF"/>
</svg>
