<svg width="24" height="24" viewBox="0 0 24 24" fill="none" xmlns="http://www.w3.org/2000/svg">
<path d="M12.6781 15.3269C12.3389 15.0285 11.7872 15.0735 11.4889 15.4127L8.34209 18.96V4.78309C8.34209 4.3172 7.95793 3.93304 7.49204 3.93304C7.02616 3.93304 6.642 4.3172 6.642 4.78309V18.96L3.49522 15.4127C3.15602 15.0735 2.64518 15.0285 2.30598 15.3269C1.96678 15.6661 1.92182 16.1769 2.22016 16.5161L6.85451 21.7022C7.20189 22.1313 7.8149 22.0659 8.08871 21.7022L12.7639 16.5161C13.0623 16.181 13.0214 15.6252 12.6781 15.3269Z" fill="white"/>
<path d="M21.7796 7.50484L17.1861 2.31877C16.7774 1.90601 16.2666 1.88149 15.911 2.31877L11.2358 7.50484C10.9374 7.84404 10.9824 8.39574 11.3216 8.69408C11.8447 9.11092 12.3719 8.82485 12.5108 8.60825L15.6576 5.06097V19.197C15.6576 19.6629 16.0418 20.047 16.5077 20.047C16.9736 20.047 17.3577 19.7078 17.3577 19.2379V5.06506L20.5045 8.61234C20.8437 8.95154 21.3545 8.99649 21.6937 8.69816C22.0329 8.35488 22.0779 7.84404 21.7796 7.50484Z" fill="white"/>
</svg>
