<svg width="37" height="31" viewBox="0 0 37 31" fill="none" xmlns="http://www.w3.org/2000/svg">
<path d="M20.667 25.6667C20.667 25.1 20.7337 24.55 20.817 24H4.00033V14H30.667V15.6667C31.8337 15.6667 32.9503 15.8833 34.0003 16.25V3.99999C34.0003 2.14999 32.517 0.666656 30.667 0.666656H4.00033C2.15033 0.666656 0.666992 2.14999 0.666992 3.99999V24C0.666992 25.8333 2.15033 27.3333 4.00033 27.3333H20.817C20.7337 26.7833 20.667 26.2333 20.667 25.6667ZM4.00033 3.99999H30.667V7.33332H4.00033V3.99999ZM28.5837 30.6667L24.0003 25.6667L25.9337 23.7333L28.5837 26.3833L34.567 20.4L36.5003 22.75L28.5837 30.6667Z" fill="black"/>
</svg>
