<svg width="34" height="38" viewBox="0 0 34 38" fill="none" xmlns="http://www.w3.org/2000/svg">
<path d="M3.66634 10.6667V34H26.9997V37.3333H3.66634C1.83301 37.3333 0.333008 35.8333 0.333008 34V10.6667H3.66634ZM18.333 24.5833L12.833 19.0833L15.1663 16.75L18.333 19.9167L25.4997 12.75L27.833 15.0833L18.333 24.5833ZM30.333 3.99999C32.1663 3.99999 33.6663 5.49999 33.6663 7.33332V27.3333C33.6663 29.1667 32.1663 30.6667 30.333 30.6667H10.333C8.49967 30.6667 6.99967 29.1667 6.99967 27.3333V7.33332C6.99967 5.49999 8.49967 3.99999 10.333 3.99999H15.633C16.333 2.06666 18.1663 0.666656 20.333 0.666656C22.4997 0.666656 24.333 2.06666 25.033 3.99999H30.333ZM20.333 3.99999C19.4163 3.99999 18.6663 4.74999 18.6663 5.66666C18.6663 6.58332 19.4163 7.33332 20.333 7.33332C21.2497 7.33332 21.9997 6.58332 21.9997 5.66666C21.9997 4.74999 21.2497 3.99999 20.333 3.99999ZM13.6663 10.6667V7.33332H10.333V27.3333H30.333V7.33332H26.9997V10.6667H13.6663Z" fill="black"/>
</svg>
