<svg width="34" height="33" viewBox="0 0 34 33" fill="none" xmlns="http://www.w3.org/2000/svg">
<path d="M25 16.8167V11.6667H28.3333V16.8167C27.7833 16.7333 27.2333 16.6667 26.6667 16.6667C26.1 16.6667 25.55 16.7333 25 16.8167ZM10.8333 13.3333C10.3667 13.3333 10 13.7 10 14.1667V16.6667H20V14.1667C20 13.7 19.6333 13.3333 19.1667 13.3333H10.8333ZM5 26.6667V11.6667H1.66667V30H17.25C16.8833 28.95 16.6667 27.8333 16.6667 26.6667H5ZM30 10H0V0H30V10ZM26.6667 3.33333H3.33333V6.66667H26.6667V3.33333ZM33.3333 24.8167L28.5167 24.4L26.6667 20L24.7833 24.4L20 24.8167L23.6333 27.95L22.5 32.6333L26.6667 30.15L30.75 32.6333L29.6667 27.95L33.3333 24.8167Z" fill="black"/>
</svg>
