<svg width="32" height="30" viewBox="0 0 32 30" fill="none" xmlns="http://www.w3.org/2000/svg">
<path d="M23.3333 30L18.75 25L20.6833 23.0667L23.3333 25.7167L29.3167 19.7333L31.25 22.0833L23.3333 30ZM16.3333 30H3.33333C1.48333 30 0 28.5167 0 26.6667V3.33333C0 1.48333 1.48333 0 3.33333 0H26.6667C28.5167 0 30 1.48333 30 3.33333V16.3333C28.9833 15.75 27.8667 15.3333 26.6667 15.1333V3.33333H3.33333V26.6667H15.1333C15.3333 27.8667 15.75 28.9833 16.3333 30ZM15 23.3333H6.66667V20H15V23.3333ZM19.4667 16.6667H6.66667V13.3333H23.3333V15.1333C21.9167 15.3667 20.6167 15.9 19.4667 16.6667ZM23.3333 10H6.66667V6.66667H23.3333" fill="black"/>
</svg>
