<svg width="31" height="36" viewBox="0 0 31 36" fill="none" xmlns="http://www.w3.org/2000/svg">
<path d="M10.667 30.3333H4.00033V3.66668H15.667V12H24.0003V17.1667L27.3337 13.8333V10.3333L17.3337 0.333344H4.00033C2.16699 0.333344 0.666992 1.83334 0.666992 3.66668V30.3333C0.666992 32.1667 2.16699 33.6667 4.00033 33.6667H10.667V30.3333ZM27.667 18.6667C27.8337 18.6667 28.167 18.8333 28.3337 19L30.5003 21.1667C30.8337 21.5 30.8337 22.1667 30.5003 22.5L28.8337 24.1667L25.3337 20.6667L27.0003 19C27.167 18.8333 27.3337 18.6667 27.667 18.6667ZM27.667 25.1667L17.5003 35.3333H14.0003V31.8333L24.167 21.6667L27.667 25.1667Z" fill="black"/>
</svg>
