<svg width="34" height="34" viewBox="0 0 34 34" fill="none" xmlns="http://www.w3.org/2000/svg">
<path d="M30.333 12V30.3333H3.66634V10.3333H10.4163L13.4663 7.00001H21.9997V3.66668H11.9997L8.94967 7.00001H3.66634C2.78229 7.00001 1.93444 7.3512 1.30932 7.97632C0.684197 8.60144 0.333008 9.44929 0.333008 10.3333V30.3333C0.333008 31.2174 0.684197 32.0652 1.30932 32.6904C1.93444 33.3155 2.78229 33.6667 3.66634 33.6667H30.333C31.2171 33.6667 32.0649 33.3155 32.69 32.6904C33.3152 32.0652 33.6663 31.2174 33.6663 30.3333V12H30.333ZM31.4497 10.3333H33.6663C33.6663 4.80001 29.183 0.333344 23.6663 0.333344V2.55001C27.9663 2.55001 31.433 6.01668 31.4497 10.3333ZM26.9997 10.3333H29.2163C29.1997 7.25001 26.733 4.78334 23.6663 4.78334V7.00001C25.5163 7.00001 26.9997 8.48334 26.9997 10.3333ZM8.66634 20.3333C8.66634 22.5435 9.54432 24.6631 11.1071 26.2259C12.6699 27.7887 14.7895 28.6667 16.9997 28.6667C19.2098 28.6667 21.3294 27.7887 22.8922 26.2259C24.455 24.6631 25.333 22.5435 25.333 20.3333C25.333 18.1232 24.455 16.0036 22.8922 14.4408C21.3294 12.878 19.2098 12 16.9997 12C14.7895 12 12.6699 12.878 11.1071 14.4408C9.54432 16.0036 8.66634 18.1232 8.66634 20.3333ZM21.9997 20.3333C21.9997 21.6594 21.4729 22.9312 20.5352 23.8689C19.5975 24.8066 18.3258 25.3333 16.9997 25.3333C15.6736 25.3333 14.4018 24.8066 13.4641 23.8689C12.5265 22.9312 11.9997 21.6594 11.9997 20.3333C11.9997 19.0073 12.5265 17.7355 13.4641 16.7978C14.4018 15.8601 15.6736 15.3333 16.9997 15.3333C18.3258 15.3333 19.5975 15.8601 20.5352 16.7978C21.4729 17.7355 21.9997 19.0073 21.9997 20.3333Z" fill="black"/>
</svg>
