<svg width="38" height="28" viewBox="0 0 38 28" fill="none" xmlns="http://www.w3.org/2000/svg">
<path d="M29.0003 24.8333C30.3837 24.8333 31.5003 23.7167 31.5003 22.3333C31.5003 20.95 30.3837 19.8333 29.0003 19.8333C27.617 19.8333 26.5003 20.95 26.5003 22.3333C26.5003 23.7167 27.617 24.8333 29.0003 24.8333ZM31.5003 9.83332H27.3337V14H34.767L31.5003 9.83332ZM9.00032 24.8333C10.3837 24.8333 11.5003 23.7167 11.5003 22.3333C11.5003 20.95 10.3837 19.8333 9.00032 19.8333C7.61699 19.8333 6.50033 20.95 6.50033 22.3333C6.50033 23.7167 7.61699 24.8333 9.00032 24.8333ZM32.3337 7.33332L37.3337 14V22.3333H34.0003C34.0003 25.1 31.767 27.3333 29.0003 27.3333C26.2337 27.3333 24.0003 25.1 24.0003 22.3333H14.0003C14.0003 25.1 11.767 27.3333 9.00032 27.3333C6.23366 27.3333 4.00033 25.1 4.00033 22.3333H0.666992V3.99999C0.666992 2.14999 2.15033 0.666656 4.00033 0.666656H27.3337V7.33332H32.3337ZM4.00033 3.99999V19H5.26699C6.18366 17.9833 7.51699 17.3333 9.00032 17.3333C10.4837 17.3333 11.817 17.9833 12.7337 19H24.0003V3.99999H4.00033ZM7.33366 11.5L9.83366 8.99999L12.3337 11.5L18.167 5.66666L20.667 8.16666L12.3337 16.5L7.33366 11.5Z" fill="black"/>
</svg>
