<svg width="155" height="40" viewBox="0 0 155 40" fill="none" xmlns="http://www.w3.org/2000/svg">
<path fill-rule="evenodd" clip-rule="evenodd" d="M40.208 15.0984H50.3266C51.2413 15.0984 52.0988 15.4991 52.6704 16.186C53.2421 16.873 53.528 17.7317 53.4708 18.6476L52.4418 34.1038C52.0988 37.4812 49.2976 40 45.9247 40H19.3992C16.0264 40 13.2252 37.424 12.9393 34.0465L12.0247 18.5331C11.9103 17.6744 12.1962 16.7585 12.825 16.1288C13.3967 15.4991 14.2542 15.0984 15.1689 15.0984H25.2874C25.4589 11.1485 28.7175 8 32.7191 8C36.7208 8 39.9794 11.1485 40.208 15.0984ZM38.4359 15.0984C38.2643 12.1216 35.749 9.71735 32.7191 9.71735C29.6893 9.71735 27.2311 12.1216 27.0024 15.0984H38.4359ZM45.9247 38.2827C48.3829 38.2827 50.4409 36.3936 50.7268 33.932L51.7558 18.4759C51.8129 18.0179 51.6986 17.6172 51.4128 17.3309C51.1269 17.0447 50.7268 16.873 50.3266 16.873H15.1689C14.7115 16.873 14.3685 17.0447 14.0827 17.3309C13.7968 17.6172 13.6253 18.0179 13.6825 18.4186L14.5972 33.9893C14.883 36.4508 16.941 38.2827 19.3992 38.2827H45.9247ZM71.9932 19.5064H73.308C73.5367 19.5064 73.651 19.6781 73.651 19.8499V35.2488C73.651 35.4205 73.4795 35.5923 73.308 35.5923H71.8217C71.6502 35.5923 71.4787 35.4205 71.4787 35.2488V23.857L65.762 33.4742C65.7048 33.5887 65.5905 33.6459 65.4761 33.6459H64.7901C64.6758 33.6459 64.5615 33.5887 64.5043 33.4742L58.7876 23.9143V35.2488C58.7876 35.4205 58.6161 35.5923 58.4446 35.5923H56.9582C56.7867 35.5923 56.6152 35.4205 56.6152 35.2488V19.8499C56.6152 19.6781 56.7867 19.5064 56.9582 19.5064H58.2731C58.3874 19.5064 58.5017 19.5637 58.5589 19.6781L65.1903 30.7837L71.7073 19.6781C71.7645 19.5637 71.8788 19.5064 71.9932 19.5064ZM121.042 21.1665V19.8499C121.042 19.6781 120.871 19.5064 120.699 19.5064H108.122C107.951 19.5064 107.779 19.6781 107.779 19.8499V21.1665C107.779 21.3383 107.951 21.51 108.122 21.51H113.267V35.2488C113.267 35.4205 113.439 35.5923 113.61 35.5923H115.154C115.325 35.5923 115.497 35.4205 115.497 35.2488V21.51H120.642C120.928 21.51 121.042 21.3383 121.042 21.1665ZM119.899 33.0159C120.185 32.7297 120.528 32.5579 120.985 32.5579C121.385 32.5579 121.785 32.7297 122.071 32.9586C122.357 33.2449 122.528 33.6456 122.528 34.1035C122.528 34.5615 122.357 34.9622 122.071 35.2484C121.728 35.5347 121.385 35.7064 120.985 35.7064C120.585 35.7064 120.185 35.5347 119.899 35.2484C119.613 34.9622 119.441 34.5615 119.441 34.1035C119.441 33.7028 119.613 33.3021 119.899 33.0159ZM137.449 28.2649C138.078 27.4062 138.364 26.3186 138.364 25.1164C138.364 23.3418 137.792 22.0252 136.591 20.9948C135.391 20.0216 133.733 19.5064 131.675 19.5064H125.73C125.558 19.5064 125.387 19.6781 125.387 19.8499V35.2488C125.387 35.4205 125.558 35.5923 125.73 35.5923H127.33C127.502 35.5923 127.673 35.4205 127.673 35.2488V30.7264H131.618C131.847 30.7264 132.19 30.7264 132.647 30.6692L136.02 35.4778C136.077 35.5923 136.191 35.6495 136.306 35.6495H137.963C138.249 35.6495 138.421 35.3061 138.249 35.0771L134.819 30.2112C135.963 29.8105 136.877 29.1808 137.449 28.2649ZM134.934 27.8069C134.19 28.4366 133.047 28.7229 131.618 28.7229H127.731V21.7962C127.731 21.6245 127.845 21.51 128.016 21.51H131.618C133.047 21.51 134.19 21.7962 134.934 22.4259C135.677 23.0556 136.077 23.9143 136.077 25.1164C136.077 26.2613 135.677 27.1772 134.934 27.8069ZM107.151 25.1164C107.151 26.3186 106.865 27.4062 106.236 28.2649C105.607 29.1808 104.75 29.8105 103.606 30.2112L107.037 35.0771C107.208 35.3061 107.037 35.6495 106.751 35.6495H105.093C104.978 35.6495 104.864 35.5923 104.807 35.4778L101.434 30.6692C100.977 30.7264 100.634 30.7264 100.405 30.7264H96.4606V35.2488C96.4606 35.4205 96.2891 35.5923 96.1176 35.5923H94.5169C94.3454 35.5923 94.1739 35.4205 94.1739 35.2488V19.8499C94.1739 19.6781 94.3454 19.5064 94.5169 19.5064H100.462C102.52 19.5064 104.178 20.0216 105.379 20.9948C106.579 22.0252 107.151 23.3418 107.151 25.1164ZM100.405 28.7229C101.834 28.7229 102.978 28.4366 103.721 27.8069C104.464 27.1772 104.864 26.2613 104.864 25.1164C104.864 23.9143 104.464 23.0556 103.721 22.4259C102.978 21.7962 101.834 21.51 100.405 21.51H96.8036C96.6321 21.51 96.5178 21.6245 96.5178 21.7962V28.7229H100.405ZM154.657 19.5064H153.114C152.942 19.5064 152.771 19.6781 152.771 19.8499V28.5511C152.771 30.3257 152.371 31.5851 151.627 32.4438C150.827 33.3025 149.741 33.7032 148.255 33.7032C145.225 33.7032 143.738 31.9858 143.738 28.5511V19.8499C143.738 19.6781 143.567 19.5064 143.395 19.5064H141.738C141.566 19.5064 141.395 19.6781 141.395 19.8499V28.6656C141.395 30.9554 141.966 32.73 143.167 33.9322C144.367 35.1343 146.025 35.764 148.197 35.764C150.313 35.764 152.028 35.1343 153.228 33.9322C154.429 32.73 155 30.9554 155 28.6084V19.8499C155 19.6781 154.829 19.5064 154.657 19.5064ZM31.6903 20.0789L25.402 26.7193L32.262 35.0198C32.4335 35.2488 32.262 35.5923 31.9762 35.5923H30.204C30.0897 35.5923 29.9753 35.535 29.9182 35.4778L23.8585 28.4366L20.9429 31.4134V35.2488C20.9429 35.4205 20.7714 35.5923 20.5999 35.5923H18.9993C18.8278 35.5923 18.6562 35.4205 18.6562 35.2488V19.8499C18.6562 19.6781 18.8278 19.5064 18.9993 19.5064H20.5999C20.7714 19.5064 20.9429 19.6781 20.9429 19.8499V28.4939L29.5752 19.6209C29.6323 19.5637 29.6895 19.5064 29.8038 19.5064H31.4617C31.7475 19.5064 31.919 19.8499 31.6903 20.0789ZM38.0925 22.1395C39.0643 21.6243 40.1505 21.3381 41.4081 21.3381C43.1232 21.3381 44.6095 21.9106 45.8672 22.9982C45.9815 23.1127 46.2102 23.1127 46.3245 22.9982L47.2963 22.0251C47.4107 21.9106 47.4107 21.6816 47.2963 21.5671C46.6103 20.8802 45.81 20.3077 44.8382 19.9642C43.8092 19.5635 42.6087 19.3345 41.351 19.3345C39.6931 19.3345 38.264 19.678 36.9491 20.4222C35.6343 21.1091 34.6053 22.0823 33.8621 23.3417C33.1189 24.6011 32.7188 26.0322 32.7188 27.5778C32.7188 29.1234 33.1189 30.5546 33.8621 31.814C34.6053 33.0734 35.6343 34.0465 36.9491 34.7335C38.264 35.4204 39.6931 35.8211 41.351 35.8211C42.4943 35.8211 43.5805 35.6494 44.6667 35.3059C45.6385 34.9624 46.5532 34.5045 47.2963 33.932C47.4107 33.8748 47.4678 33.703 47.4678 33.5886V27.8068C47.4678 27.6351 47.3535 27.5206 47.182 27.5206H42.1513C41.9798 27.5206 41.8655 27.6351 41.8655 27.8068V28.9517C41.8655 29.1234 41.9798 29.2379 42.1513 29.2379H45.2955V32.5009C45.2955 32.6726 45.2383 32.7871 45.0668 32.8444C44.0378 33.4741 42.8373 33.7603 41.5225 33.7603C40.322 33.7603 39.2358 33.4741 38.264 32.9589C37.2921 32.4437 36.5489 31.6995 35.9773 30.7263C35.4056 29.8104 35.1769 28.7227 35.1769 27.5778C35.1769 26.3757 35.4628 25.3453 35.9773 24.3721C36.3774 23.3989 37.1206 22.6547 38.0925 22.1395ZM84.7978 19.449C84.9693 19.449 85.0836 19.5635 85.1408 19.678L92.1723 35.0769C92.2295 35.3059 92.058 35.5921 91.8293 35.5921H90.1715C90 35.5921 89.8856 35.4776 89.8285 35.3631L87.7704 30.669H79.9957L77.9377 35.3631C77.8805 35.5348 77.709 35.5921 77.5947 35.5921H75.994C75.7082 35.5921 75.5367 35.3059 75.651 35.0769L82.6254 19.678C82.6826 19.5062 82.8541 19.449 82.9684 19.449H84.7978ZM83.9402 21.796L80.9104 28.7227H86.9701L83.9402 21.796Z" fill="#8134AF"/>
<path d="M4.5 10.1925C4.5 3.708 17.5 2.8435 17.5 10.1925V14.515C17.5 18.0965 14.5895 21 11 21C7.41 21 4.5 18.0965 4.5 14.5145V10.1925Z" fill="#FFB74D"/>
<path d="M15.0734 12.5715C15.0734 13.046 14.6889 13.4285 14.2159 13.4285C13.7414 13.4285 13.3594 13.046 13.3594 12.5715C13.3594 12.0985 13.7414 11.714 14.2159 11.714C14.6889 11.714 15.0734 12.098 15.0734 12.5715Z" fill="#784719"/>
<path d="M9.07192 12.5715C9.07192 13.046 8.68942 13.4285 8.21542 13.4285C7.74142 13.4285 7.35742 13.046 7.35742 12.5715C7.35742 12.0985 7.74142 11.714 8.21542 11.714C8.68942 11.714 9.07192 12.098 9.07192 12.5715Z" fill="#784719"/>
<path d="M18.5 7C19.949 7.836 20.5 8.5 20.5 8.5C20.5 8.5 18 1.5 13 1.5C3.5 1.5 3.5 9.5 3.5 9.5H17.9585C17.9585 9 17.717 6.706 18.5 7Z" fill="#FF3D00"/>
<path d="M16.2811 17.8435C17.3597 17.8435 18.2341 16.9691 18.2341 15.8905C18.2341 14.8119 17.3597 13.9375 16.2811 13.9375C15.2025 13.9375 14.3281 14.8119 14.3281 15.8905C14.3281 16.9691 15.2025 17.8435 16.2811 17.8435Z" fill="#FF8A80"/>
<path d="M6.04675 17.906C7.12536 17.906 7.99975 17.0316 7.99975 15.953C7.99975 14.8744 7.12536 14 6.04675 14C4.96814 14 4.09375 14.8744 4.09375 15.953C4.09375 17.0316 4.96814 17.906 6.04675 17.906Z" fill="#FF8A80"/>
<path d="M19.5 14.037C19.5 13.2625 18.8845 12.6335 18.1075 12.581C18.3365 12.361 18.4795 12.0545 18.4795 11.716C18.4795 11.133 18.0595 10.6455 17.5 10.5285V10.5H16.5V14.3645C16.4725 14.8545 16.37 15.6045 16 16C15.2355 16.8155 14.656 16.6405 14.216 16.3445C12.5695 15.2325 11 15.5405 11 15.5405C11 15.5405 9.4305 15.2325 7.784 16.3445C7.344 16.6405 6.7645 16.8155 6 16C5.63 15.605 5.5275 14.8545 5.5 14.3645V10.5H4.5V10.5235C3.9305 10.634 3.5 11.126 3.5 11.716C3.5 12.056 3.644 12.3625 3.874 12.583C3.106 12.6445 2.5 13.269 2.5 14.037C2.5 14.71 2.967 15.2705 3.5985 15.4415C3.2345 15.762 3 16.2265 3 16.75C3 17.6925 3.746 18.4545 4.6785 18.493C4.568 18.7225 4.5 18.9775 4.5 19.25C4.5 20.217 5.283 21 6.25 21C6.7585 21 7.2125 20.78 7.5315 20.4335C7.513 20.5365 7.5 20.6415 7.5 20.75C7.5 21.717 8.283 22.5 9.25 22.5C10.139 22.5 10.8645 21.8355 10.977 20.977C10.985 20.976 10.992 20.973 11 20.9715C11.008 20.973 11.015 20.976 11.023 20.977C11.1355 21.8355 11.861 22.5 12.75 22.5C13.717 22.5 14.5 21.717 14.5 20.75C14.5 20.6415 14.487 20.5365 14.4685 20.4335C14.7875 20.78 15.2415 21 15.75 21C16.717 21 17.5 20.217 17.5 19.25C17.5 18.9775 17.432 18.7225 17.3215 18.493C18.254 18.4545 19 17.6925 19 16.75C19 16.2265 18.7655 15.762 18.4015 15.4415C19.033 15.2705 19.5 14.71 19.5 14.037Z" fill="#CFD8DC"/>
<path d="M19 9.25C19 8.924 18.7905 8.6495 18.5 8.546V8.454C18.7905 8.3505 19 8.076 19 7.75C19 7.336 18.664 7 18.25 7C17.924 7 17.6495 7.2095 17.546 7.5H17.454C17.3505 7.2095 17.076 7 16.75 7C16.424 7 16.1495 7.2095 16.046 7.5H15.954C15.8505 7.2095 15.576 7 15.25 7C14.924 7 14.6495 7.2095 14.546 7.5H14.454C14.3505 7.2095 14.076 7 13.75 7C13.424 7 13.1495 7.2095 13.046 7.5H12.954C12.8505 7.2095 12.576 7 12.25 7C11.924 7 11.6495 7.2095 11.546 7.5H11.454C11.3505 7.2095 11.076 7 10.75 7C10.424 7 10.1495 7.2095 10.046 7.5H9.954C9.8505 7.2095 9.576 7 9.25 7C8.924 7 8.6495 7.2095 8.546 7.5H8.454C8.3505 7.2095 8.076 7 7.75 7C7.424 7 7.1495 7.2095 7.046 7.5H6.954C6.8505 7.2095 6.576 7 6.25 7C5.924 7 5.6495 7.2095 5.546 7.5H5.454C5.3505 7.2095 5.076 7 4.75 7C4.424 7 4.1495 7.2095 4.046 7.5H3.954C3.8505 7.2095 3.576 7 3.25 7C2.836 7 2.5 7.336 2.5 7.75C2.5 8.076 2.7095 8.3505 3 8.454V8.546C2.7095 8.6495 2.5 8.924 2.5 9.25C2.5 9.576 2.7095 9.8505 3 9.954V10.046C2.7095 10.1495 2.5 10.424 2.5 10.75C2.5 11.164 2.836 11.5 3.25 11.5C3.576 11.5 3.8505 11.2905 3.954 11H4.046C4.1495 11.2905 4.424 11.5 4.75 11.5C5.076 11.5 5.3505 11.2905 5.454 11H5.546C5.6495 11.2905 5.924 11.5 6.25 11.5C6.576 11.5 6.8505 11.2905 6.954 11H7.046C7.1495 11.2905 7.424 11.5 7.75 11.5C8.076 11.5 8.3505 11.2905 8.454 11H8.546C8.6495 11.2905 8.924 11.5 9.25 11.5C9.576 11.5 9.8505 11.2905 9.954 11H10.046C10.1495 11.2905 10.424 11.5 10.75 11.5C11.076 11.5 11.3505 11.2905 11.454 11H11.546C11.6495 11.2905 11.924 11.5 12.25 11.5C12.576 11.5 12.8505 11.2905 12.954 11H13.046C13.1495 11.2905 13.424 11.5 13.75 11.5C14.076 11.5 14.3505 11.2905 14.454 11H14.546C14.6495 11.2905 14.924 11.5 15.25 11.5C15.576 11.5 15.8505 11.2905 15.954 11H16.046C16.1495 11.2905 16.424 11.5 16.75 11.5C17.076 11.5 17.3505 11.2905 17.454 11H17.546C17.6495 11.2905 17.924 11.5 18.25 11.5C18.664 11.5 19 11.164 19 10.75C19 10.424 18.7905 10.1495 18.5 10.046V9.954C18.7905 9.8505 19 9.576 19 9.25Z" fill="#CFD8DC"/>
<path d="M21.1695 8.04103C21.447 7.85103 21.573 7.50103 21.457 7.17103C21.457 7.17603 21.457 7.17603 21.457 7.17603C21.346 6.84653 21.0235 6.65153 20.691 6.67153C20.782 6.35703 20.6455 6.00653 20.3485 5.83153C20.0465 5.65203 19.673 5.70653 19.437 5.93703C19.296 5.63603 18.968 5.45103 18.6255 5.51103C18.283 5.56653 18.0315 5.84653 17.996 6.17653C17.6985 6.03703 17.3255 6.11153 17.1045 6.37153C16.8775 6.63603 16.867 7.01103 17.0585 7.28653C16.7365 7.37103 16.5 7.66152 16.5 8.00602C16.5 8.33602 16.7115 8.61053 17.0035 8.71553C16.8375 8.97603 16.847 9.32552 17.054 9.58052C17.271 9.85052 17.6385 9.93553 17.9405 9.80553C17.9605 10.1345 18.2025 10.42 18.55 10.49C18.6005 10.5 18.646 10.5 18.696 10.5C18.9835 10.5 19.246 10.34 19.372 10.09C19.6035 10.325 19.976 10.3905 20.2785 10.2255C20.585 10.0555 20.7265 9.71053 20.651 9.39053C20.9835 9.42503 21.306 9.23502 21.432 8.91052C21.5575 8.59052 21.442 8.23603 21.1695 8.04103Z" fill="#CFD8DC"/>
<path d="M9 18C9 18 9.5 19 11 19C12.5 19 13 18 13 18H9Z" fill="#E57373"/>
<path d="M5.5 11H5.454C5.3505 11.2905 5.076 11.5 4.75 11.5C4.424 11.5 4.1495 11.2905 4.046 11H3.954C3.883 11.198 3.7295 11.3525 3.5375 11.4345C3.5155 11.5255 3.5 11.6185 3.5 11.716C3.5 11.98 3.589 12.223 3.7355 12.422C3.825 12.3955 3.916 12.369 4 12.329C4.23 12.4395 4.485 12.5 4.75 12.5C5.015 12.5 5.27 12.4395 5.5 12.329V11Z" fill="#90A4AE"/>
<path d="M18.1835 12.492C18.365 12.281 18.4795 12.013 18.4795 11.7155C18.4795 11.6305 18.4685 11.5485 18.451 11.469C18.3865 11.4875 18.3205 11.5 18.25 11.5C17.924 11.5 17.6495 11.2905 17.546 11H17.454C17.3505 11.2905 17.076 11.5 16.75 11.5C16.6615 11.5 16.578 11.4825 16.5 11.454V12.4715C16.583 12.484 16.6645 12.5 16.75 12.5C17.015 12.5 17.27 12.4395 17.5 12.329C17.71 12.4295 17.943 12.483 18.1835 12.492Z" fill="#90A4AE"/>
<path d="M19 10.75C19 10.645 18.972 10.549 18.933 10.459C18.8575 10.4835 18.7785 10.5 18.696 10.5C18.646 10.5 18.601 10.5 18.55 10.49C18.203 10.42 17.9605 10.1345 17.9405 9.8055C17.847 9.8455 17.7475 9.865 17.648 9.865C17.4255 9.865 17.2035 9.767 17.054 9.5805C16.8475 9.325 16.8375 8.9755 17.0035 8.7155C16.7115 8.6105 16.5 8.336 16.5 8.006C16.5 7.662 16.7365 7.371 17.0585 7.287C17.004 7.2085 16.9705 7.1215 16.949 7.032C16.8855 7.0135 16.82 7 16.75 7C16.424 7 16.1495 7.2095 16.046 7.5H15.954C15.9075 7.369 15.8225 7.259 15.7175 7.173C15.581 7.423 15.5 7.7065 15.5 8.006C15.5 8.4125 15.6425 8.7965 15.887 9.101C15.8845 9.4945 16.0155 9.8875 16.276 10.2095C16.539 10.537 16.906 10.756 17.3125 10.834C17.36 10.8935 17.4145 10.947 17.469 11H17.5455C17.812 11.714 18.3955 11.4755 18.4185 11.4795C18.7515 11.4025 19 11.1055 19 10.75Z" fill="#90A4AE"/>
<path d="M11 16.5C11.5523 16.5 12 16.0523 12 15.5C12 14.9477 11.5523 14.5 11 14.5C10.4477 14.5 10 14.9477 10 15.5C10 16.0523 10.4477 16.5 11 16.5Z" fill="#FF9800"/>
<path d="M12 16.25C12.4142 16.25 12.75 15.9142 12.75 15.5C12.75 15.0858 12.4142 14.75 12 14.75C11.5858 14.75 11.25 15.0858 11.25 15.5C11.25 15.9142 11.5858 16.25 12 16.25Z" fill="#FF9800"/>
<path d="M10 16.25C10.4142 16.25 10.75 15.9142 10.75 15.5C10.75 15.0858 10.4142 14.75 10 14.75C9.58579 14.75 9.25 15.0858 9.25 15.5C9.25 15.9142 9.58579 16.25 10 16.25Z" fill="#FF9800"/>
</svg>
