<svg width="107" height="24" viewBox="0 0 107 24" fill="none" xmlns="http://www.w3.org/2000/svg">
<path fill-rule="evenodd" clip-rule="evenodd" d="M21.1068 5.32379H28.6781C29.3625 5.32379 30.0041 5.62433 30.4319 6.13953C30.8596 6.65474 31.0735 7.29875 31.0307 7.98569L30.2608 19.5778C30.0041 22.1109 27.9081 24 25.3844 24H5.5365C3.01275 24 0.916745 22.068 0.702868 19.5349L0.018459 7.89982C-0.0670921 7.25581 0.146786 6.56887 0.617317 6.0966C1.04507 5.62433 1.68671 5.32379 2.37111 5.32379H9.94238C10.0707 2.36136 12.5089 0 15.5032 0C18.4975 0 20.9357 2.36136 21.1068 5.32379ZM19.7808 5.32379C19.6524 3.09123 17.7703 1.28801 15.5032 1.28801C13.2361 1.28801 11.3968 3.09123 11.2257 5.32379H19.7808ZM25.3844 22.712C27.2237 22.712 28.7636 21.2952 28.9775 19.449L29.7475 7.85689C29.7902 7.51342 29.7047 7.21288 29.4908 6.99821C29.2769 6.78354 28.9775 6.65474 28.6781 6.65474H2.37111C2.02891 6.65474 1.77226 6.78354 1.55838 6.99821C1.3445 7.21288 1.21617 7.51342 1.25895 7.81395L1.94336 19.492C2.15724 21.3381 3.69716 22.712 5.5365 22.712H25.3844ZM44.8894 8.62988H45.8733C46.0444 8.62988 46.1299 8.75868 46.1299 8.88749V20.4367C46.1299 20.5655 46.0016 20.6943 45.8733 20.6943H44.7611C44.6328 20.6943 44.5045 20.5655 44.5045 20.4367V11.8929L40.2269 19.1057C40.1841 19.1916 40.0986 19.2345 40.013 19.2345H39.4997C39.4142 19.2345 39.3286 19.1916 39.2858 19.1057L35.0083 11.9358V20.4367C35.0083 20.5655 34.88 20.6943 34.7516 20.6943H33.6395C33.5111 20.6943 33.3828 20.5655 33.3828 20.4367V8.88749C33.3828 8.75868 33.5111 8.62988 33.6395 8.62988H34.6233C34.7089 8.62988 34.7944 8.67282 34.8372 8.75868L39.7991 17.0878L44.6756 8.75868C44.7183 8.67282 44.8039 8.62988 44.8894 8.62988ZM81.5899 9.87496V8.88749C81.5899 8.75868 81.4616 8.62988 81.3333 8.62988H71.9227C71.7943 8.62988 71.666 8.75868 71.666 8.88749V9.87496C71.666 10.0038 71.7943 10.1326 71.9227 10.1326H75.7725V20.4367C75.7725 20.5655 75.9008 20.6943 76.0291 20.6943H77.1841C77.3124 20.6943 77.4407 20.5655 77.4407 20.4367V10.1326H81.2905C81.5044 10.1326 81.5899 10.0038 81.5899 9.87496ZM80.7348 18.7619C80.9487 18.5472 81.2053 18.4184 81.5475 18.4184C81.8469 18.4184 82.1464 18.5472 82.3603 18.7189C82.5741 18.9336 82.7025 19.2341 82.7025 19.5776C82.7025 19.9211 82.5741 20.2216 82.3603 20.4363C82.1036 20.651 81.8469 20.7798 81.5475 20.7798C81.2481 20.7798 80.9487 20.651 80.7348 20.4363C80.5209 20.2216 80.3926 19.9211 80.3926 19.5776C80.3926 19.2771 80.5209 18.9765 80.7348 18.7619ZM93.8674 15.1988C94.338 14.5547 94.5518 13.739 94.5518 12.8374C94.5518 11.5064 94.1241 10.519 93.2258 9.74616C92.3275 9.01629 91.087 8.62988 89.5471 8.62988H85.0984C84.9701 8.62988 84.8418 8.75868 84.8418 8.88749V20.4367C84.8418 20.5655 84.9701 20.6943 85.0984 20.6943H86.2962C86.4245 20.6943 86.5528 20.5655 86.5528 20.4367V17.0449H89.5043C89.6754 17.0449 89.9321 17.0449 90.2743 17.002L92.798 20.6084C92.8408 20.6943 92.9264 20.7372 93.0119 20.7372H94.2524C94.4663 20.7372 94.5946 20.4796 94.4663 20.3079L91.8998 16.6585C92.7553 16.358 93.4397 15.8857 93.8674 15.1988ZM91.9853 14.8553C91.4292 15.3276 90.5737 15.5422 89.5043 15.5422H86.5956V10.3472C86.5956 10.2184 86.6811 10.1326 86.8095 10.1326H89.5043C90.5737 10.1326 91.4292 10.3472 91.9853 10.8195C92.5414 11.2918 92.8408 11.9358 92.8408 12.8374C92.8408 13.6961 92.5414 14.383 91.9853 14.8553ZM71.1964 12.8374C71.1964 13.739 70.9825 14.5547 70.512 15.1988C70.0414 15.8857 69.3998 16.358 68.5443 16.6585L71.1108 20.3079C71.2392 20.4796 71.1108 20.7372 70.8969 20.7372H69.6565C69.5709 20.7372 69.4854 20.6943 69.4426 20.6084L66.9188 17.002C66.5766 17.0449 66.32 17.0449 66.1489 17.0449H63.1973V20.4367C63.1973 20.5655 63.069 20.6943 62.9407 20.6943H61.743C61.6147 20.6943 61.4863 20.5655 61.4863 20.4367V8.88749C61.4863 8.75868 61.6147 8.62988 61.743 8.62988H66.1916C67.7316 8.62988 68.972 9.01629 69.8703 9.74616C70.7686 10.519 71.1964 11.5064 71.1964 12.8374ZM66.1489 15.5422C67.2182 15.5422 68.0738 15.3276 68.6298 14.8553C69.1859 14.383 69.4854 13.6961 69.4854 12.8374C69.4854 11.9358 69.1859 11.2918 68.6298 10.8195C68.0738 10.3472 67.2182 10.1326 66.1489 10.1326H63.454C63.3257 10.1326 63.2401 10.2184 63.2401 10.3472V15.5422H66.1489ZM106.744 8.62988H105.589C105.461 8.62988 105.333 8.75868 105.333 8.88749V15.4134C105.333 16.7444 105.033 17.6889 104.477 18.3329C103.878 18.9769 103.066 19.2775 101.953 19.2775C99.6863 19.2775 98.5741 17.9895 98.5741 15.4134V8.88749C98.5741 8.75868 98.4458 8.62988 98.3175 8.62988H97.077C96.9486 8.62988 96.8203 8.75868 96.8203 8.88749V15.4993C96.8203 17.2166 97.2481 18.5476 98.1464 19.4492C99.0446 20.3508 100.285 20.8231 101.911 20.8231C103.493 20.8231 104.777 20.3508 105.675 19.4492C106.573 18.5476 107.001 17.2166 107.001 15.4564V8.88749C107.001 8.75868 106.873 8.62988 106.744 8.62988ZM14.7333 9.05922L10.028 14.0395L15.161 20.2649C15.2894 20.4367 15.161 20.6943 14.9472 20.6943H13.6211C13.5356 20.6943 13.45 20.6513 13.4073 20.6084L8.87304 15.3276L6.69149 17.5601V20.4367C6.69149 20.5655 6.56316 20.6943 6.43484 20.6943H5.23712C5.1088 20.6943 4.98047 20.5655 4.98047 20.4367V8.88749C4.98047 8.75868 5.1088 8.62988 5.23712 8.62988H6.43484C6.56316 8.62988 6.69149 8.75868 6.69149 8.88749V15.3705L13.1506 8.71575C13.1934 8.67282 13.2361 8.62988 13.3217 8.62988H14.5622C14.7761 8.62988 14.9044 8.88749 14.7333 9.05922ZM19.5229 10.6047C20.25 10.2183 21.0628 10.0037 22.0038 10.0037C23.2871 10.0037 24.3993 10.433 25.3403 11.2487C25.4259 11.3346 25.597 11.3346 25.6825 11.2487L26.4097 10.5189C26.4953 10.433 26.4953 10.2613 26.4097 10.1754C25.8964 9.66019 25.2976 9.23085 24.5704 8.97325C23.8004 8.67271 22.9021 8.50098 21.9611 8.50098C20.7206 8.50098 19.6512 8.75858 18.6673 9.31672C17.6835 9.83193 16.9135 10.5618 16.3575 11.5063C15.8014 12.4509 15.502 13.5242 15.502 14.6834C15.502 15.8427 15.8014 16.916 16.3575 17.8605C16.9135 18.8051 17.6835 19.535 18.6673 20.0502C19.6512 20.5654 20.7206 20.8659 21.9611 20.8659C22.8166 20.8659 23.6293 20.7371 24.442 20.4795C25.1692 20.2219 25.8536 19.8784 26.4097 19.4491C26.4953 19.4062 26.538 19.2774 26.538 19.1915V14.8552C26.538 14.7264 26.4525 14.6405 26.3242 14.6405H22.5599C22.4316 14.6405 22.346 14.7264 22.346 14.8552V15.7139C22.346 15.8427 22.4316 15.9285 22.5599 15.9285H24.9126V18.3758C24.9126 18.5046 24.8698 18.5904 24.7415 18.6334C23.9715 19.1056 23.0732 19.3203 22.0894 19.3203C21.1911 19.3203 20.3784 19.1056 19.6512 18.7192C18.924 18.3328 18.3679 17.7747 17.9402 17.0448C17.5124 16.3579 17.3413 15.5421 17.3413 14.6834C17.3413 13.7818 17.5552 13.009 17.9402 12.2792C18.2396 11.5493 18.7957 10.9911 19.5229 10.6047ZM54.4705 8.58691C54.5988 8.58691 54.6844 8.67278 54.7271 8.75865L59.9885 20.3078C60.0313 20.4796 59.903 20.6942 59.7319 20.6942H58.4914C58.3631 20.6942 58.2775 20.6084 58.2347 20.5225L56.6948 17.0019H50.8773L49.3374 20.5225C49.2947 20.6513 49.1663 20.6942 49.0808 20.6942H47.8831C47.6692 20.6942 47.5409 20.4796 47.6264 20.3078L52.845 8.75865C52.8878 8.62985 53.0161 8.58691 53.1017 8.58691H54.4705ZM53.8289 10.3472L51.5618 15.5422H56.096L53.8289 10.3472Z" fill="white"/>
</svg>
