<svg width="24" height="22" viewBox="0 0 24 22" fill="none" xmlns="http://www.w3.org/2000/svg">
<path d="M11.0794 0.842388C11.4238 0.0287414 12.5769 0.0287408 12.9212 0.842387L15.3315 6.53714C15.4759 6.87836 15.7971 7.11176 16.1663 7.14366L22.3271 7.67615C23.2074 7.75223 23.5637 8.8489 22.8963 9.42784L18.225 13.4799C17.9451 13.7227 17.8224 14.1003 17.9062 14.4613L19.3035 20.4851C19.5032 21.3458 18.5703 22.0235 17.8135 21.5677L12.5163 18.3772C12.1989 18.1861 11.8018 18.1861 11.4844 18.3772L6.18718 21.5677C5.43033 22.0235 4.49745 21.3458 4.69711 20.4851L6.09448 14.4613C6.17821 14.1003 6.0555 13.7227 5.77561 13.4799L1.10438 9.42784C0.436974 8.8489 0.7933 7.75223 1.67354 7.67615L7.83438 7.14366C8.20352 7.11176 8.52477 6.87836 8.66918 6.53714L11.0794 0.842388Z" fill="#F2C94C"/>
</svg>
