<svg width="32" height="32" viewBox="0 0 32 32" fill="none" xmlns="http://www.w3.org/2000/svg">
<rect width="32" height="32" rx="7" fill="#F3F3F3"/>
<g clip-path="url(#clip0_1301_20378)">
<path d="M15.786 21.6584H16.9811C16.9811 21.6584 17.3424 21.6184 17.5261 21.4196C17.6962 21.2371 17.6899 20.8946 17.6899 20.8946C17.6899 20.8946 17.6661 19.2907 18.4112 19.0544C19.145 18.8219 20.0876 20.6045 21.0864 21.2908C21.8415 21.8096 22.4153 21.6959 22.4153 21.6959L25.0867 21.6584C25.0867 21.6584 26.4843 21.5721 25.8218 20.4733C25.768 20.3833 25.4355 19.6607 23.8354 18.1756C22.1602 16.6205 22.3853 16.873 24.4029 14.1841C25.6317 12.5464 26.123 11.5464 25.9693 11.1188C25.823 10.7113 24.9192 10.8188 24.9192 10.8188L21.914 10.8363C21.914 10.8363 21.6914 10.8063 21.5252 10.9051C21.3639 11.0026 21.2602 11.2276 21.2602 11.2276C21.2602 11.2276 20.7839 12.4952 20.1488 13.5728C18.81 15.8467 18.2737 15.9667 18.0549 15.8254C17.5461 15.4967 17.6736 14.5028 17.6736 13.7978C17.6736 11.5939 18.0074 10.6751 17.0224 10.4375C16.6948 10.3588 16.4548 10.3063 15.6185 10.2975C14.5459 10.2863 13.6371 10.3013 13.1233 10.5525C12.7808 10.7201 12.517 11.0938 12.6783 11.1151C12.877 11.1413 13.3271 11.2363 13.5658 11.5614C13.8746 11.9802 13.8634 12.9227 13.8634 12.9227C13.8634 12.9227 14.0409 15.5167 13.4496 15.8392C13.0433 16.0605 12.487 15.6092 11.2932 13.5453C10.6819 12.4889 10.2193 11.3201 10.2193 11.3201C10.2193 11.3201 10.1306 11.1026 9.97182 10.9863C9.77931 10.8451 9.50929 10.8001 9.50929 10.8001L6.65158 10.8176C6.65158 10.8176 6.2228 10.8301 6.06528 11.0163C5.92527 11.1826 6.05403 11.5251 6.05403 11.5251C6.05403 11.5251 8.2917 16.7593 10.8244 19.3982C13.1483 21.8171 15.786 21.6584 15.786 21.6584Z" fill="#1E88E5"/>
</g>
<defs>
<clipPath id="clip0_1301_20378">
<rect width="20" height="20" fill="white" transform="translate(6 6)"/>
</clipPath>
</defs>
</svg>
