<svg width="32" height="32" viewBox="0 0 32 32" fill="none" xmlns="http://www.w3.org/2000/svg">
<rect width="32" height="32" rx="7" fill="#F3F3F3"/>
<path fill-rule="evenodd" clip-rule="evenodd" d="M13.935 19.5817L13.9344 13.9891L19.3381 16.795L13.935 19.5817ZM25.8 13.02C25.8 13.02 25.6044 11.6484 25.005 11.0444C24.2444 10.2513 23.3919 10.2476 23.0012 10.2015C20.2025 10 16.0044 10 16.0044 10H15.9956C15.9956 10 11.7975 10 8.99875 10.2015C8.6075 10.2476 7.75563 10.2513 6.99438 11.0444C6.395 11.6484 6.2 13.02 6.2 13.02C6.2 13.02 6 14.631 6 16.2414V17.7517C6 19.3628 6.2 20.9732 6.2 20.9732C6.2 20.9732 6.395 22.3448 6.99438 22.9488C7.75563 23.7419 8.755 23.717 9.2 23.7997C10.8 23.9527 16 24 16 24C16 24 20.2025 23.9938 23.0012 23.7922C23.3919 23.7456 24.2444 23.7419 25.005 22.9488C25.6044 22.3448 25.8 20.9732 25.8 20.9732C25.8 20.9732 26 19.3628 26 17.7517V16.2414C26 14.631 25.8 13.02 25.8 13.02Z" fill="#FF0002"/>
</svg>
